<?xml version="1.0" standalone="no"?>
<!DOCTYPE svg PUBLIC "-//W3C//DTD SVG 1.1//EN" "http://www.w3.org/Graphics/SVG/1.1/DTD/svg11.dtd" >
<svg>
<metadata>
Created by FontForge 20090622 at Thu Apr 25 01:55:57 2019
 By deploy user
</metadata>
<defs>
<font id="iCielSmoothy-Cursive" horiz-adv-x="0" >
  <font-face 
    font-family="iCiel Smoothy Cursive"
    font-weight="400"
    font-stretch="normal"
    units-per-em="1000"
    panose-1="0 0 5 0 0 0 0 0 0 0"
    ascent="800"
    descent="-200"
    x-height="498"
    cap-height="949"
    bbox="-440.028 -477 2606 1241"
    underline-thickness="50"
    underline-position="-50"
    unicode-range="U+0020-U+E020"
  />
<missing-glyph horiz-adv-x="600" 
 />
    <glyph glyph-name=".notdef" horiz-adv-x="600" 
 />
    <glyph glyph-name="nonmarkingreturn" unicode=" " horiz-adv-x="350" 
 />
    <glyph glyph-name="A" unicode="A" horiz-adv-x="1650" 
d="M1650 913q27 -35 27 -105q0 -37 -6.5 -71.5t-11.5 -52.5l-48 -179q18 1 29 -5t11 -16q0 -12 -14.5 -21.5t-39.5 -9.5l-113 -422l-1 -3q-1 -9 -8 -14t-16 -5q-13 0 -21 10.5t-4 21.5v1q8 29 18.5 94.5t10.5 141.5q0 84 -16 148q-11 -3 -31 -7q-98 -22 -164.5 -34
t-124.5 -12l-31 1q-103 -159 -194.5 -270t-206 -183t-247.5 -72q-105 0 -191 33.5t-147 98.5q-53 57 -81.5 132t-28.5 158q0 81 26.5 154.5t75.5 131.5q56 64 132 97t167 33q55 0 105 -25t80.5 -66t30.5 -87q0 -11 -7 -18.5t-18 -7.5t-18.5 7.5t-7.5 18.5q0 32 -23.5 61.5
t-61.5 47.5t-80 18q-110 0 -189.5 -52t-120 -135.5t-40.5 -177.5q0 -73 24.5 -139t71.5 -116q53 -57 129.5 -86.5t171.5 -29.5q118 0 221.5 65.5t189.5 168.5t180 248q-78 15 -123.5 57.5t-45.5 102.5q0 51 32 89t90.5 59t136.5 21q59 0 114 -13q87 122 165 186.5t165 64.5
q49 0 77 -36zM1437 842q-67 -56 -142 -160q83 -32 136 -101q30 -39 51 -95q60 11 75 13l53 199q16 58 16 112q0 49 -17 72q-11 16 -36 16q-69 0 -136 -56zM983 630.5q-62 -28.5 -62 -88.5q0 -47 41.5 -75.5t106.5 -37.5l42 65q60 98 101 158q-36 7 -83 7q-84 0 -146 -28.5z
M1154 467l-27 -42q54 0 119 11.5t159 32.5l26 6q-14 39 -41 75q-49 63 -125 89q-37 -54 -111 -172zM1497 436q11 -47 16 -100l29 109q-24 -3 -45 -9z" />
    <glyph glyph-name="B" unicode="B" horiz-adv-x="850" 
d="M643 929.5q63 -20.5 107 -60.5q39 -35 60.5 -83t21.5 -102q0 -59 -26 -116t-76 -102t-120 -69q81 -34 121 -105.5t40 -152.5q0 -62 -21.5 -122.5t-59.5 -107.5q-43 -53 -100.5 -81t-121.5 -28q-53 0 -101.5 22t-79.5 62q-47 57 -47 133q0 25 6 55l1 3q-13 3 -39 13
q-96 40 -152 132t-56 211q0 170 72.5 287t188 174.5t243.5 57.5q76 0 139 -20.5zM283.5 850q-104.5 -52 -170 -158.5t-65.5 -260.5q0 -104 47.5 -184t130.5 -115q22 -8 34 -11l154 565q3 10 11.5 14.5t18.5 2.5q9 -3 14 -11.5t2 -17.5l-153 -561q54 -3 104.5 16.5t90.5 59.5
q8 8 17 8q11 0 17 -8q7 -6 7 -17q0 -10 -7 -17q-45 -44 -100 -67t-115 -23q-18 0 -27 1l-1 -5q-5 -25 -5 -44q0 -60 36 -103q25 -31 63.5 -48.5t80.5 -17.5q110 0 185 91q33 41 51.5 93.5t18.5 106.5q0 61 -26 114.5t-83 87.5t-146 34q-10 0 -17 7t-7 17t7 17t17 7
q98 0 169.5 38t109 98t37.5 125q0 43 -17.5 82t-49.5 68q-37 33 -91.5 50.5t-121.5 17.5q-116 0 -220.5 -52z" />
    <glyph glyph-name="C" unicode="C" horiz-adv-x="700" 
d="M678.5 922.5q40.5 -27.5 59 -67t18.5 -76.5q0 -50 -27 -91.5t-73 -63.5q-33 -16 -73 -16q-60 0 -108 40q-8 7 -8 19q0 10 5 15q8 8 18 8q8 0 16 -6q34 -28 77 -28q28 0 53 12q34 15 53.5 44.5t19.5 66.5q0 22 -12 50.5t-41 50.5t-78 22q-97 0 -199 -72t-183 -194
t-119 -267q-28 -102 -28 -197q0 -73 17 -134t50 -104q32 -42 78 -64t103 -22q116 0 207 61t148 154t77 188q1 7 7.5 11t14.5 4q6 0 9 -1q19 -8 16 -27q-21 -106 -83 -206.5t-163.5 -166t-232.5 -65.5q-68 0 -123.5 26.5t-94.5 78.5q-39 49 -58.5 117t-19.5 149q0 99 30 210
q41 154 129 285t199.5 207.5t218.5 76.5q60 0 100.5 -27.5z" />
    <glyph glyph-name="D" unicode="D" horiz-adv-x="1000" 
d="M834 814q48 -58 73 -138t25 -176q0 -157 -65 -321t-172 -271.5t-227 -107.5q-54 0 -102.5 22.5t-80.5 62.5q-46 54 -46 133q0 26 6 56q-15 3 -37 12q-97 40 -152.5 132.5t-55.5 211.5q0 170 72.5 287t188 175t243.5 58q218 0 330 -136zM256.5 828
q-101.5 -67 -151.5 -173.5t-50 -224.5q0 -101 47 -180t128 -112q16 -7 29 -11l153 559q2 8 9.5 13.5t15.5 5.5q5 0 8 -1q11 -3 17 -12.5t3 -20.5l-151 -552q51 -2 99.5 17t86.5 57q9 9 20 9q12 0 19 -9q8 -7 8 -19t-8 -20q-45 -44 -101 -67.5t-115 -23.5q-16 0 -24 1v-2
q-4 -19 -4 -42q0 -59 33 -101q25 -30 62 -47t78 -17q104 0 198.5 100t152 251.5t57.5 293.5q0 87 -21.5 158t-63.5 121q-95 116 -287 116q-146 0 -247.5 -67z" />
    <glyph glyph-name="E" unicode="E" horiz-adv-x="670" 
d="M558.5 919.5q58.5 -30.5 89 -79t30.5 -101.5q0 -54 -23.5 -90t-59.5 -52.5t-74 -16.5q-40 0 -71.5 17.5t-41.5 46.5q-1 2 -1 8q0 8 4.5 14.5t11.5 8.5q3 1 8 1q8 0 14.5 -4.5t8.5 -11.5q5 -15 24 -23.5t44 -8.5q13 0 20 1q30 6 59 29.5t29 80.5q0 42 -24.5 79.5
t-72.5 60.5t-114 23q-63 0 -117 -32t-85.5 -86t-31.5 -117q0 -92 51.5 -146t140.5 -54q10 0 17 -7t7 -17t-7 -17.5t-17 -7.5q-98 0 -176.5 -38.5t-123 -106t-44.5 -152.5q0 -74 37 -136.5t99.5 -99.5t136.5 -37q82 0 142 44.5t91 108t31 116.5q0 52 -21 88t-61 52
q-25 11 -59 11q-27 0 -51.5 -8.5t-39.5 -24.5q-38 -38 -38 -81q0 -16 6 -30q5 -12 12 -18.5t14 -6.5q10 0 17 -7t7 -17t-7 -17.5t-17 -7.5q-22 0 -41 14.5t-30 40.5q-9 21 -9 49q0 64 51 115q23 23 56.5 35.5t70.5 12.5q40 0 77 -15q53 -22 82 -70.5t29 -114.5
q0 -62 -37 -137t-107.5 -127.5t-167.5 -52.5q-87 0 -161 43t-117 117t-43 161q0 119 71.5 207.5t191.5 121.5q-53 30 -82.5 86.5t-29.5 130.5q0 77 38 142t103 103t142 38q81 0 139.5 -30.5z" />
    <glyph glyph-name="F" unicode="F" horiz-adv-x="950" 
d="M1201.5 922q36.5 -28 36.5 -72q0 -43 -37.5 -72t-93.5 -29q-78 0 -160 17q-20 -43 -36.5 -98.5t-36.5 -133.5h52q16 0 36.5 10t20.5 37q0 11 8 18.5t18 7.5q11 0 18.5 -7.5t7.5 -18.5q0 -49 -35 -73t-73 -26h-66l-2 -7q-49 -198 -96 -323t-140.5 -213.5t-244.5 -88.5
q-93 0 -180.5 47t-142.5 133.5t-55 197.5q0 87 36 165t98 126q33 26 73.5 40t79.5 14q46 0 83 -18q35 -17 54 -48t19 -69q0 -10 -8 -18t-18 -8q-11 0 -18.5 8t-7.5 18q0 27 -13 44.5t-31 25.5q-26 13 -60 13q-66 0 -122 -43q-53 -41 -83.5 -108t-30.5 -142
q0 -94 47.5 -168.5t123.5 -116.5t156 -42q132 0 214 80t125.5 195.5t90.5 305.5h-160q-24 0 -38.5 -11t-9 0.5t-19.5 -39.5q-2 -9 -9 -14.5t-16 -5.5l-6 1q-10 2 -15.5 11t-3.5 20q7 31 37 60.5t80 29.5h172q21 82 38.5 139.5t38.5 104.5q-45 13 -83 28.5t-91 39.5
q-61 28 -96 40.5t-70 12.5q-76 0 -76 -54q0 -16 13.5 -32.5t37.5 -16.5q11 0 18.5 -7.5t7.5 -18.5t-7.5 -18.5t-18.5 -7.5q-29 0 -52.5 14.5t-37 38t-13.5 48.5q0 49 34 77t94 28q42 0 82 -13.5t105 -43.5q57 -26 94.5 -41t81.5 -27q35 61 80 93t107 32q58 0 94.5 -28z
M1163 815q23 14 23 35q0 23 -23.5 36t-55.5 13q-79 0 -134 -86q60 -12 134 -12q33 0 56 14z" />
    <glyph glyph-name="G" unicode="G" horiz-adv-x="1033" 
d="M1090 279q6 -9 4 -20q-40 -149 -117.5 -225t-181.5 -106l-29 -102q-5 -24 -30 -76t-79 -101t-135 -49q-40 0 -71 20t-46 56q-11 28 -11 58q0 39 17 77.5t48 69.5q28 28 69.5 39.5t115.5 22.5q81 13 114 22q12 40 57 203q3 8 7 24q-114 -172 -262 -172q-61 0 -109.5 21.5
t-81.5 62.5q-21 25 -35 60q-21 -4 -50 -4q-68 0 -134 37t-108 102.5t-42 145.5q0 77 38 142.5t103.5 104t142.5 38.5q69 0 187 -20q167 190 389 190q48 0 86 -22.5t59 -58t21 -73.5t-22 -74t-60 -58.5t-84 -22.5q-53 0 -315 57l-55 12q-64 -81 -100 -176.5t-36 -182.5
q0 -40 10 -82q69 24 114.5 83.5t45.5 142.5q0 9 6.5 15.5t16.5 6.5q9 0 15.5 -6.5t6.5 -15.5q0 -94 -52.5 -167.5t-138.5 -102.5q14 -27 27 -43q52 -67 155 -67q106 0 180.5 94t133.5 235l4 17q1 7 7.5 12.5t14.5 5.5q11 0 17.5 -8.5t4.5 -19.5l-4 -18l-2 -7
q-29 -122 -106 -396q84 31 145.5 98.5t94.5 192.5q2 8 8.5 12.5t13.5 4.5q12 0 18 -9zM677.5 814.5q-80.5 -40.5 -152.5 -115.5l30 -6q247 -56 305 -56q35 0 62.5 17.5t42.5 43t15 48.5q0 45 -29.5 77t-90.5 32q-102 0 -182.5 -40.5zM309 301q0 92 34.5 189t95.5 179
q-90 15 -155 15t-120 -32t-87 -87t-32 -120q0 -72 38 -127t94 -84t107 -29q18 0 36 3q-11 46 -11 93zM744 -85q-41 -9 -94 -16q-66 -10 -102 -19.5t-57 -30.5q-26 -26 -39 -56t-13 -59q0 -22 8 -41q20 -48 75 -48q65 0 109.5 42.5t67.5 91.5t23 59z" />
    <glyph glyph-name="H" unicode="H" horiz-adv-x="800" 
d="M1045 849q0 -38 -27 -68q-6 -8 -16 -8q-8 0 -16 6q-8 8 -8 17q0 8 6 16q15 15 15 38q0 11 -5 21q-11 25 -40 25q-27 0 -69.5 -45.5t-89.5 -138.5q-51 -98 -95 -233l37 12q6 2 8 2q7 0 12.5 -4.5t7.5 -11.5q2 -6 2 -9q0 -7 -4.5 -12.5t-11.5 -7.5q-29 -11 -67 -19
q-39 -136 -56 -249q-15 -104 -15 -190q0 -180 63 -267q52 -73 149 -73q25 0 48 4l5 1q8 0 13.5 -5.5t7.5 -14.5l1 -5q0 -16 -20 -21q-25 -4 -54 -4q-122 0 -188 91q-72 99 -72 294q0 97 18 207.5t49 221.5q-58 -8 -113 -8q-61 0 -102 -8q-63 -207 -132 -342t-150 -135
q-59 0 -95 41t-36 109q0 65 33 131.5t92 118.5q102 89 252 119q62 212 105 420q-35 -20 -72 -20q-23 0 -44.5 7t-49.5 20q-25 12 -40 18t-31 6q-25 0 -41 -20t-16 -44q0 -20 13 -36t47 -16q10 0 16.5 -6.5t6.5 -16.5t-6.5 -16.5t-16.5 -6.5q-52 0 -79 28.5t-27 69.5
q0 43 28.5 76.5t74.5 33.5q23 0 41.5 -6.5t50.5 -20.5q24 -12 40.5 -18t33.5 -6q42 0 87 44q10 8 18 7h4q10 -2 15 -10t3 -18q-3 -19 -17 -85.5t-39 -169.5t-55 -207q45 5 88 5q64 0 128 11q45 146 105 265q45 88 97 148.5t104 60.5q28 0 49.5 -13.5t32.5 -38.5q9 -19 9 -41
zM247.5 88q59.5 116 118.5 306q-125 -30 -205 -102q-56 -50 -83 -108.5t-27 -107.5q0 -35 17 -69.5t68 -34.5q52 0 111.5 116z" />
    <glyph glyph-name="I" unicode="I" horiz-adv-x="550" 
d="M594 933q2 -6 2 -9q0 -7 -3 -13l-181 -673q-33 -122 -70 -210.5t-115 -157.5t-201 -69q-11 0 -18 7t-7 18q0 10 7.5 17.5t17.5 7.5q106 0 173 61.5t100.5 142.5t63.5 196l7 24l156 580l-2 1q-46 -27 -94 -27q-32 0 -60 9.5t-66 28.5q-34 16 -55 24t-43 8q-36 0 -61 -29
q-11 -13 -17 -30.5t-6 -34.5q0 -26 17.5 -51t69.5 -25q11 0 18 -7t7 -18t-7 -18t-18 -7q-66 0 -101.5 37t-35.5 89q0 36 17 69t47.5 54t69.5 21q30 0 57.5 -10t63.5 -28q37 -17 58.5 -25t44.5 -8q28 0 56.5 13.5t63.5 45.5q9 12 21 12q17 -2 23 -16z" />
    <glyph glyph-name="J" unicode="J" horiz-adv-x="830" 
d="M888 945.5q7 -4.5 10 -12.5q1 -3 1 -10q0 -8 -2 -11l-175 -650l-10 -37q-30 -118 -66.5 -204.5t-114 -153.5t-202.5 -67q-76 0 -139 26.5t-108 76.5q-40 45 -61 103t-21 123q0 84 38.5 159.5t113 122.5t177.5 47q11 0 18.5 -7.5t7.5 -18.5q0 -10 -7.5 -18t-18.5 -8
q-90 0 -152.5 -40t-93.5 -103.5t-31 -133.5q0 -55 18 -104t51 -87q38 -42 91 -64t117 -22q107 0 173.5 59.5t98.5 137t61 189.5l9 37l157 581q-49 -28 -96 -28q-32 0 -60.5 10t-64.5 28q-34 16 -55 24t-44 8q-36 0 -59 -28.5t-23 -63.5q0 -26 17 -51t69 -25q11 0 18.5 -7.5
t7.5 -18.5t-7.5 -18.5t-18.5 -7.5q-67 0 -102.5 37.5t-35.5 90.5q0 35 16.5 68.5t47 54.5t70.5 21q31 0 57.5 -9.5t64.5 -27.5q33 -17 56 -25t46 -8q57 0 120 59q3 5 9 8t12 3q8 0 15 -4.5z" />
    <glyph glyph-name="K" unicode="K" horiz-adv-x="700" 
d="M871 -248q-70 -27 -127 -27q-53 0 -97 26q-51 29 -81.5 88.5t-45.5 128t-31 177.5q-15 100 -28.5 160.5t-35.5 98t-57 44.5h-6l-75 -280q-24 -95 -70 -132.5t-98 -37.5q-35 0 -69 27.5t-48 60.5q-2 6 -2 9q0 8 4.5 15t12.5 10q6 2 10 2q8 0 14.5 -4.5t9.5 -12.5
q8 -18 29.5 -36t38.5 -18q84 0 117 130l181 677q-25 -12 -52 -12q-22 0 -41.5 7t-44.5 20q-21 11 -35 16t-28 5q-21 0 -34 -16.5t-13 -37.5q0 -17 10.5 -30t39.5 -13q11 0 18.5 -7.5t7.5 -18.5t-7.5 -19t-18.5 -8q-50 0 -76.5 28.5t-26.5 67.5q0 41 26 72q29 35 74 35
q22 0 42 -7t44 -19q23 -11 36.5 -16t27.5 -5q36 0 77 40q7 5 8 5q6 2 10 2q12 0 20 -8q7 -8 7 -18q0 -5 -1 -8l-110 -411q46 6 81 35t59 68t58 106q37 73 65 116.5t70.5 73.5t100.5 30q11 0 18.5 -7.5t7.5 -18.5t-7.5 -19t-18.5 -8q-43 0 -75.5 -24.5t-56 -62.5t-57.5 -104
q-30 -59 -52.5 -97t-54.5 -72t-73 -52q41 -41 61 -115t38 -198q16 -102 29 -164.5t38 -115.5t66 -77q28 -17 70 -17q49 0 108 23q6 2 9 2q11 0 19 -7.5t8 -19.5q0 -17 -17 -25z" />
    <glyph glyph-name="L" unicode="L" horiz-adv-x="650" 
d="M874 919q25 -27 25 -71q0 -42 -26 -87t-76.5 -75t-118.5 -30q-30 0 -63 5l-111 -391q-43 -149 -116 -234q38 -45 102 -142q50 -76 84.5 -119t78 -72t95.5 -29q64 0 140 45q6 3 13 3q16 0 23 -13q4 -5 4 -12q0 -15 -14 -24q-91 -52 -166 -52q-65 0 -118 34t-92 82.5
t-91 127.5l-53.5 78.5t-44.5 55.5q-87 -72 -219 -72q-49 0 -76.5 15.5t-37.5 35.5q-11 16 -11 39q0 26 14 47q21 35 66 54.5t104 19.5q88 0 162 -66q63 72 102 213l110 386q-26 6 -53 16t-34 12q-50 18 -86.5 27t-78.5 9q-68 0 -126.5 -28t-93 -76.5t-34.5 -104.5
q0 -82 43 -124.5t103 -42.5q32 0 63 13t54 37q56 62 56 162q0 11 7.5 19t18.5 8t18.5 -8t7.5 -19q0 -69 -20.5 -118t-50.5 -79q-30 -33 -70 -50.5t-84 -17.5q-51 0 -96 24t-73.5 74t-28.5 122q0 71 41 131t111.5 95.5t153.5 35.5q47 0 87.5 -10t94.5 -30l35 -12t50 -15
l13 48q16 59 49.5 100t75 61t81.5 20q50 0 77 -31zM705 860.5q-45 -36.5 -63 -105.5l-13 -43q32 -4 49 -4q52 0 90.5 22t58.5 54.5t20 63.5q0 23 -12 36t-38 13q-47 0 -92 -36.5zM187 85q-48 0 -79.5 -14t-43.5 -34q-6 -10 -6 -20q0 -17 20 -28t52 -11q109 0 183 58
q-57 48 -121 49h-5z" />
    <glyph glyph-name="M" unicode="M" horiz-adv-x="1175" 
d="M409 888.5q36 -35.5 36 -112.5q0 -43 -12 -87l-20 -75q112 182 236 182q56 0 91 -43q32 -44 32 -125q0 -50 -14 -114q111 182 234 182q65 0 103 -47q33 -44 33 -117q0 -53 -18 -118l-81 -310q-18 -64 -18 -120q0 -88 43 -135q43 -49 123 -49q25 0 48 4q10 1 18.5 -4.5
t10.5 -15.5q2 -11 -4.5 -19.5t-16.5 -9.5q-32 -5 -56 -5q-101 0 -160 65q-56 64 -56 169q0 60 20 134l81 309q16 62 16 105q0 55 -23 86q-22 28 -63 28q-69 0 -133 -74.5t-112.5 -184.5t-79.5 -222l-40 -147q-2 -8 -9 -13.5t-15 -5.5q-11 0 -18.5 9.5t-5.5 20.5
q3 16 14 57.5t24 85.5l83 317q22 79 22 142q0 62 -22 91q-18 24 -51 24q-75 0 -143.5 -86.5t-127.5 -226.5q63 17 115 50t84 76q6 11 21 11q7 0 14 -5q10 -7 10 -20q0 -8 -5 -15q-42 -58 -110.5 -98t-150.5 -55q-16 -41 -31 -88l-74 -272q-2 -8 -9 -13t-15 -5q-12 0 -19 9
t-5 21q4 24 25 107.5t49 167.5l17 65q-24 -2 -38 -2q-58 0 -111 27t-89 74q-55 72 -55 168q0 47 13 93q13 54 47 98.5t84 73.5q33 20 69 30.5t70 10.5q25 0 48 -6q41 -12 77 -47.5zM186 867q-46 -25 -79.5 -65.5t-44.5 -84.5q-11 -38 -11 -81q0 -80 45 -137
q29 -38 71.5 -59.5t88.5 -21.5q35 0 53 2l75 281q11 42 11 74q0 45 -19.5 73.5t-56.5 38.5q-22 5 -40 5q-47 0 -93 -25z" />
    <glyph glyph-name="N" unicode="N" horiz-adv-x="1000" 
d="M427 885q39 -38 39 -119q0 -41 -13 -92l-51 -190q71 136 153.5 219.5t172.5 83.5q56 0 100.5 -20.5t75.5 -60.5q25 -32 37.5 -74t12.5 -89q0 -48 -13 -94l-86 -327q-18 -67 -18 -125q0 -93 45 -144q45 -50 129 -50q27 0 51 4q11 2 20 -5t10 -17q2 -11 -4.5 -20t-17.5 -10
q-25 -5 -59 -5q-108 0 -168 68q-60 66 -60 178q0 65 21 140l86 326q11 39 11 81q0 79 -39 130q-22 30 -56.5 45.5t-77.5 15.5q-79 0 -155.5 -88t-146.5 -231q57 19 103 50.5t76 72.5q8 11 21 11q10 0 15 -5q11 -8 11 -22q0 -9 -5 -15q-41 -57 -106 -97t-145 -59
q-72 -163 -117 -322l-2 -10q-2 -9 -9.5 -14.5t-16.5 -5.5q-13 0 -21 10.5t-4 22.5q0 3 1 5l80 300q-13 -1 -40 -1q-61 0 -117 28t-94 78q-58 74 -58 178q0 49 13 97q15 57 51 103.5t88 77.5q34 21 71.5 32t73.5 11q24 0 52 -7q41 -11 80 -49zM193 862q-48 -26 -83.5 -69
t-47.5 -89q-11 -40 -11 -84q0 -86 47 -146q31 -40 75.5 -62.5t93.5 -22.5q28 0 55 3l80 295q11 39 11 77q0 48 -20.5 78.5t-59.5 40.5q-18 5 -42 5q-50 0 -98 -26z" />
    <glyph glyph-name="O" unicode="O" horiz-adv-x="800" 
d="M646.5 936.5q46.5 -18.5 82.5 -56.5q31 -33 47.5 -76t16.5 -88q0 -14 -1 -21q-1 -10 -9 -16t-18 -5q-10 2 -16.5 9.5t-5.5 17.5q1 5 1 16q0 34 -13.5 67.5t-37.5 61.5q-28 29 -64.5 44t-74.5 12q-107 -7 -203 -77.5t-166.5 -190.5t-101.5 -270q-13 -66 -13 -134
q0 -84 21 -153.5t61 -116.5q34 -37 77 -56.5t92 -19.5q99 0 173.5 64.5t121.5 145.5q48 81 74.5 174t26.5 176q0 79 -34.5 147.5t-134.5 62.5q-15 -1 -22.5 5.5t-7.5 16.5t7 18t20 9q102 6 163 -64q28 -35 43 -84.5t15 -110.5q0 -90 -28.5 -189.5t-79.5 -185.5
q-68 -113 -155 -174t-182 -61q-61 0 -113 23.5t-92 69.5q-46 55 -70.5 133.5t-24.5 170.5q0 74 14 143q33 160 110 288.5t183 205t223 83.5q49 4 95.5 -14.5z" />
    <glyph glyph-name="P" unicode="P" horiz-adv-x="900" 
d="M929 752.5q22 -56.5 22 -122.5q0 -112 -58 -217.5t-162 -172t-235 -66.5q-11 0 -17.5 7t-6.5 17q0 11 6.5 18t17.5 7q99 0 193 52t153.5 145t59.5 210q0 115 -72 187q-81 81 -237 81q-84 0 -163.5 -35t-135.5 -95t-73 -130q-8 -35 -8 -61q0 -47 20 -82t59 -57
q55 -31 135 -29l87 337q3 10 11.5 15t18.5 2q10 -2 15 -10t3 -19l-83 -319q57 10 109.5 35.5t90.5 63.5q6 8 17 8q10 0 18 -8q7 -6 7 -17t-7 -18q-48 -48 -113 -78t-136 -38q-22 -87 -71 -262q-20 -69 -37 -113.5t-46 -83.5q-31 -43 -77.5 -72t-100.5 -29q-14 0 -21 1
q-29 4 -55 18.5t-46 38.5q-5 8 -5 16q0 11 9 19q8 5 16 5q11 0 19 -9q15 -19 37 -29.5t45 -10.5q37 0 74.5 21.5t64.5 58.5q27 36 43 79t32 103l68 246q-83 0 -147 35q-41 23 -72 66t-31 113q0 39 9 75q20 82 82.5 150.5t152 108t185.5 39.5q86 0 155 -24t117 -71
q42 -43 64 -99.5z" />
    <glyph glyph-name="Q" unicode="Q" horiz-adv-x="775" 
d="M838 -273q0 -10 -7 -16q-58 -58 -125 -58h-7q-51 2 -102 35.5t-95 79.5t-106 119l-41 48q-61 -23 -119 -23q-60 0 -93 27q-32 26 -32 65q0 36 28 64t73 28q35 0 72.5 -27t84.5 -78q73 34 141 100.5t119.5 155.5t78.5 188q23 87 23 164q0 66 -16.5 122t-47.5 97
q-31 40 -73 61t-93 21q-87 0 -157 -55t-117 -125q-54 -80 -85.5 -172.5t-31.5 -173.5q0 -102 42.5 -142.5t103.5 -40.5q57 0 118.5 49t105.5 110t44 81q0 10 7 17t17 7t16.5 -6.5t6.5 -17.5q0 -37 -50 -107.5t-123.5 -125t-141.5 -54.5q-48 0 -86 17.5t-63 51.5
q-44 61 -44 161q0 88 33.5 188t90.5 184q67 97 147.5 149t166.5 52q62 0 114 -25.5t90 -74.5q36 -47 54.5 -111t18.5 -138q0 -85 -24 -175q-41 -154 -138 -281t-215 -187l32 -38q61 -72 100.5 -113.5t84.5 -72.5t87 -31q49 0 92 44q6 7 17 7q10 0 17 -7t7 -17zM321 -28
q-72 77 -109 77q-24 0 -39 -14t-15 -31q0 -15 14 -27q8 -7 24.5 -12.5t39.5 -5.5q40 0 85 13z" />
    <glyph glyph-name="R" unicode="R" horiz-adv-x="780" 
d="M918.5 -185q3.5 -6 3.5 -13t-2 -10q-14 -30 -36.5 -51t-49.5 -31q-20 -6 -40 -6q-35 0 -69 18t-53.5 54.5t-29 87.5t-19.5 139q-10 91 -28.5 148t-57.5 89t-106 32q-10 0 -17 7t-7 17t7 17t17 7q86 0 167.5 45t132.5 125t51 181q0 99 -62 161q-70 70 -205 70
q-72 0 -140.5 -30t-117 -81.5t-62.5 -112.5q-7 -27 -7 -54q0 -39 17 -69t49 -48q47 -27 115 -25l75 290v1q3 10 11.5 15t18.5 2q10 -2 14.5 -10.5t2.5 -18.5v-1l-71 -272q48 9 92 31t76 54q7 7 17 7t17 -7q7 -6 7 -17q0 -10 -7 -17q-41 -42 -97.5 -68t-117.5 -34l-62 -226
q-16 -56 -31.5 -97t-41.5 -76q-27 -37 -68 -62.5t-88 -25.5q-12 0 -18 1q-26 3 -49.5 16t-40.5 34q-5 5 -5 15q0 12 8 19q6 5 16 5q13 0 18 -8q11 -14 26.5 -23t31.5 -10q4 -1 13 -1q31 0 63 18.5t55 50.5q22 30 35.5 65t29.5 92q25 86 57 210q-72 2 -125 31
q-37 21 -64 59.5t-27 99.5q0 33 8 65q17 72 72 132t133 94.5t162 34.5q76 0 137 -21.5t102 -62.5q76 -74 76 -195q0 -80 -35 -158t-98.5 -137.5t-147.5 -85.5q59 -37 85 -109.5t36 -170.5q12 -116 27 -171.5t50 -73.5q26 -13 48 -13q8 0 24 4q37 13 58 57q6 14 21 14
q6 0 11 -3q6 -3 9.5 -9z" />
    <glyph glyph-name="S" unicode="S" horiz-adv-x="850" 
d="M745.5 927.5q43.5 -22.5 71 -63.5t27.5 -96q0 -46 -17 -76.5t-42 -44.5t-50 -14q-32 0 -57.5 19t-33.5 50q-3 10 2.5 20t16.5 12q11 3 20.5 -2.5t12.5 -16.5q3 -14 15 -21t25 -7q22 0 38 20t16 61q0 27 -14.5 57t-45 50.5t-76.5 20.5q-37 0 -68.5 -18.5t-50 -49.5
t-18.5 -68q0 -22 21 -72.5t65 -145.5q74 -157 116 -269t42 -196q0 -68 -24.5 -134t-69.5 -118q-45 -53 -115 -89t-169 -36q-111 0 -197 55t-133 142.5t-47 180.5q0 128 59.5 197t127.5 97q53 22 107 22q69 0 103 -34q8 -8 8 -19q0 -9 -8 -19q-7 -7 -19 -7t-19 7
q-19 19 -65 19q-44 0 -87 -18q-55 -23 -104 -81t-49 -164q0 -80 40 -155t114 -122t169 -47q101 0 174.5 46.5t111.5 121t38 155.5q0 75 -40 181.5t-112 261.5q-50 109 -70.5 160t-20.5 80q0 52 25.5 95.5t69 69t95.5 25.5q48 0 91.5 -22.5z" />
    <glyph glyph-name="T" unicode="T" horiz-adv-x="925" 
d="M1201.5 922q36.5 -28 36.5 -72q0 -43 -37.5 -72t-93.5 -29q-78 0 -160 17q-24 -52 -43.5 -119.5t-44.5 -171.5q-49 -198 -96 -323t-140.5 -213.5t-244.5 -88.5q-93 0 -180.5 47t-142.5 133.5t-55 197.5q0 87 36 165t98 126q33 26 73.5 40t79.5 14q46 0 83 -18
q35 -17 54 -48t19 -69q0 -10 -7.5 -18t-18.5 -8q-10 0 -18 8t-8 18q0 27 -13 44.5t-31 25.5q-26 13 -60 13q-66 0 -122 -43q-53 -41 -83.5 -108t-30.5 -142q0 -94 47.5 -168.5t123.5 -116.5t156 -42q133 0 215.5 80.5t125 197t90.5 309.5q25 102 44.5 168.5t43.5 121.5
q-45 13 -83 28.5t-91 39.5q-61 28 -96 40.5t-70 12.5q-76 0 -76 -54q0 -16 13.5 -32.5t37.5 -16.5q11 0 18.5 -7.5t7.5 -18.5t-7.5 -18.5t-18.5 -7.5q-29 0 -52.5 14.5t-37 38t-13.5 48.5q0 49 34 77t94 28q42 0 82 -13.5t105 -43.5q57 -26 94.5 -41t81.5 -27q35 61 80 93
t107 32q58 0 94.5 -28zM973 813q60 -12 134 -12q33 0 56 14t23 35q0 23 -23.5 36t-55.5 13q-79 0 -134 -86z" />
    <glyph glyph-name="U" unicode="U" horiz-adv-x="1150" 
d="M1261 704q8 -8 8 -18q0 -11 -7.5 -19t-18.5 -8q-38 0 -67 -42t-49.5 -102t-48.5 -160l-18 -66l-3 -10q-67 -235 -67 -340q0 -51 17 -70q8 -8 8 -18q0 -11 -8 -19q-7 -7 -18 -7t-19 7q-32 33 -32 111q0 62 19 149q-61 -99 -132 -154.5t-157 -55.5q-100 0 -154 71
q-53 68 -53 186q-51 -16 -107 -16q-81 0 -149 31.5t-114 91.5q-36 46 -54.5 104t-18.5 123q0 57 15 117q32 122 115.5 213.5t192.5 121.5q40 12 79 12q87 0 144 -55q67 -65 67 -188q0 -69 -23 -157l-73 -238q-9 -34 -16 -79q74 39 132 103.5t83 144.5q2 8 9 13t15 5
q14 0 22 -11t4 -23q-30 -95 -103 -173.5t-167 -120.5q-5 -114 41 -173q40 -51 113 -51q83 0 152.5 69.5t113.5 153t86 183.5q35 126 60 196.5t65.5 123t97.5 52.5q10 0 18 -8zM484 313l74 238q20 80 20 141q0 103 -51 152q-40 40 -107 40q-31 0 -65 -9q-55 -15 -109.5 -55
t-98 -102t-63.5 -141q-14 -54 -14 -104q0 -55 16 -105t47 -90q38 -50 95 -76.5t126 -26.5q53 0 110 21q4 51 20 117z" />
    <glyph glyph-name="V" unicode="V" horiz-adv-x="1025" 
d="M431.5 850.5q38.5 -52.5 38.5 -140.5q0 -58 -19 -130l-67 -236q66 19 124 66t98.5 105t57.5 112q3 10 13 15.5t21 2.5q11 -4 16 -14t2 -20q-18 -57 -56.5 -115t-89.5 -104q-94 -86 -201 -108q-14 -83 -14 -162q0 -152 57 -219q40 -49 104 -49q59 0 122.5 44.5
t121.5 126.5t103 191q40 94 62.5 197.5t22.5 195.5q0 79 -18.5 141.5t-56.5 100.5q-7 7 -7 19t7 19q8 8 19 8q12 0 19 -8q47 -47 69 -119t22 -162q0 -98 -24 -206.5t-65 -206.5q-43 -103 -103.5 -192.5t-136.5 -146t-157 -56.5q-44 0 -81 17t-65 51q-70 84 -70 254
q0 75 13 156h-10q-74 0 -138.5 30t-104.5 84q-59 75 -59 182q0 59 16 116q20 73 62.5 126t97 81t109.5 28q25 0 49 -6q58 -16 96.5 -68.5zM192 844.5q-44 -27.5 -76.5 -72.5t-46.5 -96q-14 -50 -14 -102q0 -90 47 -150q34 -43 87 -67.5t114 -24.5q14 0 22 1l74 261
q16 61 16 115q0 64 -24 105t-70 53q-20 5 -38 5q-47 0 -91 -27.5z" />
    <glyph glyph-name="W" unicode="W" horiz-adv-x="1100" 
d="M433.5 835.5q33.5 -46.5 33.5 -125.5q0 -54 -17 -116l-66 -212q60 16 113 57.5t90 94.5t53 102q3 10 12 15t18 2q10 -4 14 -12t2 -19q-16 -51 -50.5 -102.5t-79.5 -91.5q-37 -35 -85 -62t-104 -37l-29 -92q-22 -91 -22 -154q0 -75 27 -106q21 -28 61 -28q51 0 87.5 45.5
t68.5 139t80 273.5q2 8 9 13.5t15 5.5q12 0 18.5 -8.5t4.5 -20.5q-41 -213 -41 -310q0 -83 27 -114q20 -24 63 -24q47 0 93 47.5t80 130.5q27 66 42.5 142.5t15.5 150.5q0 89 -22.5 163t-68.5 119q-7 9 -7 17q0 9 7 16q8 8 18 8q11 0 17 -8q53 -52 78.5 -135t25.5 -182
q0 -79 -16 -159.5t-45 -149.5q-41 -99 -98.5 -154t-119.5 -55q-65 0 -100 42q-39 47 -37 158q-38 -103 -83.5 -151.5t-111.5 -48.5q-30 0 -56 12t-44 34q-37 51 -37 137q0 71 24 165v1t1 1l24 76q-65 1 -121 27.5t-93 72.5q-52 72 -52 164q0 50 14 103q17 64 55.5 111.5
t87.5 72t98 24.5q26 0 43 -5q52 -14 85.5 -60.5zM219.5 829.5q-39.5 -24.5 -68 -64.5t-40.5 -86q-13 -46 -13 -90q0 -78 42 -132q29 -39 76.5 -61t101.5 -22h12l75 234q14 52 14 100q0 57 -21.5 94t-62.5 49q-17 3 -34 3q-42 0 -81.5 -24.5z" />
    <glyph glyph-name="X" unicode="X" horiz-adv-x="800" 
d="M980 -203.5q8 -8.5 8 -19.5t-8 -19t-19 -8q-104 0 -184.5 83t-138.5 208.5t-120 308.5q-91 -188 -170 -292t-161 -104q-37 0 -67 15.5t-47 40t-17 50.5q0 10 6.5 16.5t16.5 6.5t17 -6.5t7 -16.5q0 -11 10 -25t29 -24t45 -10q67 0 143 112t166 302l-4 11q-50 146 -75 213
q-126 -142 -253 -142q-48 0 -80 17t-50 42q-33 45 -33 112q0 40 14 88q19 63 55 107t78.5 65.5t82.5 21.5q59 0 107 -52t93 -151q22 32 36.5 57.5t17.5 33.5q7 15 24 15q12 0 20 -8t8 -19q0 -6 -3 -12q-4 -10 -26 -47.5t-52 -78.5q24 -62 73 -202l23 51q72 155 114.5 237
t81.5 127.5t78 45.5q10 0 17 -7t7 -17t-7 -17t-17 -7q-36 0 -91.5 -100.5t-138.5 -281.5l-45 -97q65 -192 118.5 -317t126.5 -211.5t165 -86.5q11 0 19 -8.5zM393 696q-40 95 -80 147t-82 52q-30 0 -62.5 -18t-59.5 -53t-42 -84q-12 -37 -12 -72q0 -48 23 -79q27 -38 86 -38
q112 0 229 145z" />
    <glyph glyph-name="Y" unicode="Y" horiz-adv-x="1000" 
d="M1053 249q5 -9 2 -19q-38 -143 -111.5 -215t-172.5 -102l-27 -95q-18 -49 -36 -86t-70 -84t-129 -47q-40 0 -70 19.5t-45 54.5q-10 24 -10 56q0 37 16 74.5t46 67.5q27 27 66.5 38.5t111.5 22.5q72 10 106 19l56 202q-110 -156 -242 -156q-40 0 -73 15.5t-55 44.5
q-29 35 -38 87q-50 -14 -92 -14q-62 0 -119.5 30t-97.5 82q-67 88 -67 211q0 62 18 130q23 86 75 151t118 100t129 35q26 0 50 -6q44 -12 85 -55.5t41 -140.5q0 -55 -19 -130l-61 -195q-17 -74 -17 -130q64 29 113.5 79.5t69.5 114.5q2 8 9 13t15 5q13 0 20.5 -10.5
t3.5 -21.5q-24 -79 -86 -139t-141 -93q8 -45 30 -72q32 -41 89 -41q93 0 166.5 88.5t128.5 218.5l4 19q19 83 42.5 140.5t27 63l37.5 57.5q8 8 19 8q10 0 17 -7q8 -8 8 -18t-7 -17q-5 -5 -20.5 -30.5t-36.5 -78t-38 -129.5q-20 -91 -105 -394q77 29 133 92.5t87 179.5
q3 10 12 15.5t19 2.5q10 -2 15 -11zM467 667q0 61 -22.5 99.5t-65.5 50.5q-20 5 -37 5q-52 0 -108 -31t-100.5 -88t-64.5 -131q-17 -63 -17 -119q0 -105 56 -179q34 -43 81 -67.5t97 -24.5q37 0 86 13l-1 22q0 59 19 140l61 196q16 61 16 114zM715 -101q-44 -9 -84 -15
q-62 -9 -96 -18t-53 -28q-25 -24 -37 -52t-12 -55q0 -18 7 -37q9 -21 26.5 -32.5t42.5 -11.5q61 0 102.5 40t66.5 94t18 47q0 3 19 68z" />
    <glyph glyph-name="Z" unicode="Z" horiz-adv-x="645" 
d="M641 900q28 0 48 -22q18 -20 18 -48q0 -14 -4 -25q-12 -37 -44 -52q-24 -11 -51 -11q-15 0 -31 3q-11 -42 -25 -113q-18 -90 -34 -151.5t-45 -119t-74 -91.5q21 -46 32.5 -102t11.5 -114q0 -31 -3 -61q74 32 129 97.5t86 180.5q2 8 8.5 13t14.5 5q11 0 18.5 -9.5
t3.5 -20.5q-37 -138 -106.5 -212.5t-162.5 -108.5l-8 -32q-36 -119 -106 -211t-186 -92q-41 0 -72 20t-46 56q-11 28 -11 57q0 39 17 78t48 70q28 28 69.5 39.5t114.5 22.5q34 5 71.5 12t68.5 16q6 39 6 79q0 52 -10 102t-29 91q-43 -19 -94 -19q-48 0 -77 24
q-13 10 -20.5 25t-7.5 32q0 33 25 58t65 25q67 0 119 -69l7 -11q37 30 61 80t38 105.5t32 144.5q14 70 25 114q-48 13 -125 44q-67 25 -111.5 38.5t-75.5 13.5q-51 0 -81.5 -19t-36.5 -56q-1 -4 -1 -11q0 -23 18 -46q23 -29 63 -29q38 0 56 19.5t23 47.5q1 9 7.5 14t15.5 5
q11 0 18 -8t5 -19q-6 -35 -33.5 -70.5t-91.5 -35.5q-29 0 -55 12t-44 34q-14 16 -21.5 36t-7.5 40q0 7 2 19q9 53 52.5 83.5t111.5 30.5q37 0 83 -14t120 -42q82 -31 122 -42q16 49 38.5 71t43.5 27q10 2 15 2zM615 837.5q-13 -13.5 -25 -46.5q14 -2 20 -2q17 0 29 6
q14 6 20 24q2 6 2 10q0 11 -7 17q-6 8 -18 6q-8 -1 -21 -14.5zM218 333q-12 -11 -12 -25q0 -12 11 -21q14 -13 47 -13q37 0 71 13q-1 3 -5 7q-37 50 -81 50q-19 0 -31 -11zM258 -100q-65 -10 -101 -19.5t-57 -29.5q-26 -27 -38.5 -56t-12.5 -57q0 -22 8 -41q9 -23 28 -35
t46 -12q96 0 156 82.5t91 187.5q1 1 1 3q-37 -10 -121 -23z" />
    <glyph glyph-name="a" unicode="a" horiz-adv-x="575" 
d="M642 263.5q5 -8.5 2 -18.5q-5 -24 -27.5 -81.5t-66 -110.5t-103.5 -53q-24 0 -43.5 9.5t-32.5 26.5q-22 28 -25 80q-41 -54 -93 -85t-104 -31q-34 0 -63 14t-49 40q-37 47 -37 122q0 36 11 80q18 68 58.5 123.5t93.5 88t107 32.5q34 0 63 -14t49 -40q14 -19 20 -35l5 17
q2 10 11 15t19 3q10 -3 15 -11.5t2 -18.5l-39 -147q-9 -28 -15 -64.5t-6 -68.5q0 -50 16 -71q11 -16 37 -16q36 0 67.5 37t52 84.5t30.5 86.5q2 10 11 15t19 3q10 -3 15 -11.5zM234.5 77.5q43.5 28.5 77.5 75.5t49 102l2 9q7 28 7 59q0 58 -27 93q-26 35 -73 35
q-42 0 -85.5 -28.5t-77.5 -76t-49 -102.5q-9 -34 -9 -67q0 -57 27 -93q27 -35 73 -35q42 0 85.5 28.5z" />
    <glyph glyph-name="b" unicode="b" horiz-adv-x="498" 
d="M471 322q0 -37 -11 -79q-18 -67 -59 -122.5t-94 -88t-106 -32.5q-34 0 -63 14t-49 40q-12 15 -20 34l-19 -70q-2 -8 -9 -13t-15 -5q-4 0 -6 1q-10 2 -15 11t-2 19l58 216l2 9l3 9l99 372q26 106 71 209.5t104 103.5q36 0 51 -26q10 -18 10 -40q0 -51 -40 -143t-129 -265
q44 23 90 23q34 0 63 -14t49 -40q37 -49 37 -123zM171 465q83 159 132.5 265.5t49.5 151.5q0 9 -4 17l-2 1t-7 1q-25 0 -63.5 -86t-63.5 -190l-45 -166zM421 324q0 58 -26 91q-28 36 -73 36q-41 0 -84.5 -27.5t-77.5 -74t-49 -101.5l-3 -10q-8 -34 -8 -61q0 -57 28 -93
q26 -35 73 -35q41 0 84.5 28.5t77.5 76t49 102.5q9 35 9 68z" />
    <glyph glyph-name="c" unicode="c" horiz-adv-x="425" 
d="M320 485.5q25 -14.5 36 -39.5q5 -11 5 -27q0 -33 -28 -60q-6 -7 -17 -7q-10 0 -17 7t-7 17q0 11 7 17q13 15 13 27t-14 21.5t-36 9.5q-42 0 -83 -28t-73 -75.5t-47 -103.5q-9 -34 -9 -67q0 -57 27 -93q13 -17 35.5 -26t46.5 -9q54 0 109.5 28.5t99 76t63.5 102.5
q4 10 12 15t18 3q10 -3 15 -11.5t2 -18.5q-18 -67 -66.5 -123t-115 -88.5t-137.5 -32.5q-35 0 -68 14.5t-53 39.5q-37 47 -37 122q0 36 11 80q18 68 56.5 124t89.5 88t104 32q33 0 58 -14.5z" />
    <glyph glyph-name="d" unicode="d" horiz-adv-x="600" 
d="M656.5 264.5q5.5 -8.5 3.5 -19.5q-19 -78 -60 -161.5t-122 -83.5q-55 0 -85 39q-25 32 -30 86q-41 -57 -95 -91t-109 -34q-34 0 -63 14t-49 40q-37 49 -37 123q0 37 11 79q18 67 58.5 123t93.5 88t107 32q34 0 63 -14t49 -40q9 -12 20 -33l59 225q26 107 71 210t104 103
q35 0 50 -26q10 -16 10 -41q0 -54 -42.5 -150t-143.5 -291l-102 -199q-8 -46 -8 -85q0 -61 21 -89q17 -21 47 -21q34 0 62 36.5t46 84.5t26 86q2 11 10.5 16t18.5 3q10 -1 15.5 -9.5zM581.5 815q-38.5 -86 -63.5 -190l-43 -163l1 2q86 166 134 270t48 148q0 10 -3 16
q-3 3 -9 3q-26 0 -64.5 -86zM244.5 77.5q43.5 28.5 77.5 76t49 102.5q9 35 9 66q0 59 -27 93q-28 36 -73 36q-42 0 -85.5 -28.5t-77.5 -76t-49 -103.5q-9 -34 -9 -66q0 -58 27 -93t73 -35q42 0 85.5 28.5z" />
    <glyph glyph-name="e" unicode="e" horiz-adv-x="390" 
d="M313.5 474.5q24.5 -25.5 24.5 -69.5q0 -89 -81 -132.5t-203 -46.5q-5 -28 -5 -50q0 -58 27 -92q27 -35 73 -35q45 0 99.5 29t98 77t57.5 101q3 10 11.5 15t18.5 3q10 -3 15 -11.5t2 -18.5q-17 -65 -68 -121t-115.5 -89.5t-118.5 -33.5q-34 0 -63 14t-49 40
q-37 47 -37 122q0 37 11 81q18 67 55.5 123t85 88t96.5 32q41 0 65.5 -25.5zM148.5 400.5q-50.5 -50.5 -79.5 -125.5q116 5 168.5 41.5t52.5 88.5q0 46 -42 46q-49 0 -99.5 -50.5z" />
    <glyph glyph-name="f" unicode="f" horiz-adv-x="430" 
d="M485 260q5 -6 5 -13q0 -2 -2 -8q-16 -63 -63.5 -118t-109 -90t-117.5 -41q-1 -69 -13 -133.5t-34 -113.5q-29 -65 -69 -99t-90 -34q-35 0 -60 28q-23 31 -23 99q0 79 32 199l190 708q24 99 72 209t117 110q25 0 46 -15t34 -42q21 -45 21 -120q0 -94 -34 -211.5
t-98.5 -213.5t-152.5 -128q26 -29 41.5 -78.5t19.5 -115.5q46 6 98 36.5t92 77.5t54 99q2 8 9 13t14 5q2 0 8 -2q8 -2 13 -8zM228.5 366.5q65.5 83.5 103.5 200t38 219.5q0 66 -16 98q-13 30 -34 30q-33 0 -73.5 -86t-68.5 -197l-95 -358q80 10 145.5 93.5zM124.5 156.5
q-17.5 46.5 -43.5 59.5q-4 -21 -4 -46q0 -61 27 -95q17 -23 43 -32q-5 67 -22.5 113.5zM56.5 -312.5q26.5 28.5 49.5 73.5q20 48 31.5 108t11.5 123q-52 11 -84 52q-19 26 -28 56l-48 -178q-12 -41 -21 -92.5t-9 -92.5q0 -49 14 -67q6 -11 19 -11q38 0 64.5 28.5z" />
    <glyph glyph-name="g" unicode="g" horiz-adv-x="562" 
d="M618 261.5q5 -8.5 3 -18.5q-43 -162 -126.5 -242.5t-195.5 -111.5l-32 -113q-21 -69 -81 -156.5t-182 -87.5q-44 0 -77 21.5t-49 60.5q-12 30 -12 63q0 41 18.5 83t51.5 75t80.5 47t131.5 27q65 9 111 19l42 149q-37 -36 -79 -56t-83 -20q-70 0 -112 54q-37 47 -37 121
q0 37 11 81q18 67 58.5 122.5t93.5 88t106 32.5q70 0 112 -54q12 -15 20 -34l17 69q1 8 8 13.5t15 5.5q12 0 19 -9t5 -21q-32 -141 -141 -526q91 32 157 103.5t102 207.5q3 10 11.5 15t18.5 3q10 -3 15 -11.5zM223.5 78.5q43.5 28.5 77.5 76t49 102.5q9 35 9 66q0 58 -27 93
q-26 35 -73 35q-41 0 -84.5 -28t-77.5 -76t-49 -103q-9 -34 -9 -68q0 -58 26 -91q27 -35 74 -35q41 0 84.5 28.5zM244 -125l-53 -9l-36 -6q-75 -10 -116.5 -21.5t-67.5 -37.5q-29 -29 -43 -61.5t-14 -62.5q0 -22 9 -45q22 -51 81 -51q70 0 118 46t68.5 91.5t29.5 70.5z" />
    <glyph glyph-name="h" unicode="h" horiz-adv-x="540" 
d="M596.5 265q5.5 -8 4.5 -18q-14 -71 -55 -159t-126 -88q-51 0 -75 30.5t-24 95.5q0 53 19 143l13 52q7 25 12.5 50t5.5 40q0 19 -7 27q-11 13 -39 13q-41 0 -84 -27.5t-77 -74t-50 -101.5l-61 -230q-2 -8 -9 -13t-15 -5q-4 0 -6 1q-10 2 -15 11t-2 19l60 223v2l3 9l99 372
q29 111 73 212t102 101q36 0 51 -26q10 -18 10 -40q0 -51 -40 -143t-129 -265q44 23 90 23q54 0 78 -32q15 -20 15 -59q0 -25 -5.5 -53t-16.5 -75l-9 -39q-17 -73 -17 -118q0 -74 50 -74q36 0 64.5 36.5t45 84t23.5 85.5q2 10 10 15.5t18 4.5q10 -2 15.5 -10zM174 465
q83 159 132.5 265.5t49.5 151.5q0 9 -4 17l-2 1t-7 1q-25 0 -63.5 -86t-63.5 -190l-45 -166z" />
    <glyph glyph-name="i" unicode="i" horiz-adv-x="250" 
d="M158.5 633.5q11.5 -11.5 11.5 -28.5t-11.5 -28.5t-28.5 -11.5q-16 0 -28 12t-12 28q0 17 12 28.5t28 11.5q17 0 28.5 -11.5zM120 488q5 -9 2 -19l-52 -200q-9 -28 -15 -64t-6 -68q0 -51 16 -72q11 -16 37 -16q37 0 68 37t52 85.5t30 85.5q2 10 11 15t19 3q10 -3 15 -11.5
t3 -18.5q-13 -44 -32 -92t-62.5 -100.5t-103.5 -52.5q-24 0 -43.5 9.5t-32.5 26.5q-26 34 -26 102q0 60 23 144l52 200q3 10 11.5 15t18.5 2q10 -2 15 -11z" />
    <glyph glyph-name="j" unicode="j" horiz-adv-x="384" 
d="M298.5 633.5q11.5 -11.5 11.5 -28.5t-11.5 -28.5t-28.5 -11.5t-29 12t-11 28q0 17 12 28.5t28 11.5q17 0 28.5 -11.5zM259 491.5q7 -9.5 5 -21.5q-27 -121 -142 -531q92 32 158 104.5t103 210.5q2 8 9.5 13t15.5 5q12 0 19.5 -10t3.5 -21q-44 -163 -128 -244.5
t-197 -113.5l-13 -47q-19 -63 -19 -67q-14 -41 -37.5 -90.5t-82 -102.5t-146.5 -53q-44 0 -77 21.5t-50 60.5q-12 30 -12 63q0 42 18.5 84.5t52.5 76.5t82.5 48t130.5 26q78 13 113 20q115 406 150 558q2 8 9 14t15 6q12 0 19 -9.5zM-39 -145q-77 -12 -119 -23.5t-67 -37.5
q-29 -29 -43 -62t-14 -64q0 -23 8 -44q11 -25 32 -38.5t50 -13.5q71 0 119.5 46.5t73.5 100t25 63.5l25 88q-26 -6 -90 -15z" />
    <glyph glyph-name="k" unicode="k" horiz-adv-x="379" 
d="M434.5 266.5q7.5 -8.5 5.5 -19.5q-14 -72 -60 -159.5t-152 -87.5q-38 0 -58 16t-28 39t-13 59q-2 8 -4 20q-8 45 -24.5 66.5t-43.5 24.5l-55 -207q-2 -8 -9 -13t-15 -5q-4 0 -6 1q-10 2 -15 11t-2 19l162 606q29 111 73 212t102 101q36 0 51 -26q10 -16 10 -41
q0 -51 -39.5 -143.5t-123.5 -251.5q30 11 62 11q37 0 59.5 -21t22.5 -56t-23.5 -73.5t-69 -69.5t-107.5 -44q27 -34 39 -92q5 -25 5 -29q5 -28 9 -40t13 -18.5t28 -6.5q57 0 93 45.5t58.5 113t12.5 47.5q1 9 8 14.5t16 5.5q11 0 18.5 -8.5zM123 465q83 159 132.5 265.5
t49.5 151.5q0 9 -4 17l-2 1t-7 1q-25 0 -63.5 -86t-63.5 -190l-45 -166zM277 444q-8 7 -25 7q-47 0 -84.5 -29t-61 -63t-23.5 -39l-1 -1l-11 -43q67 4 115.5 28.5t73.5 57.5t25 60q0 15 -8 22z" />
    <glyph glyph-name="l" unicode="l" horiz-adv-x="330" 
d="M375 263.5q5 -8.5 3 -18.5q-5 -26 -30 -82.5t-80 -109.5t-138 -53q-54 0 -85 39q-32 41 -32 120q0 48 10 94q0 3 1 5q3 16 5 23l94 356q26 106 71 209.5t104 103.5q35 0 50 -26q10 -16 10 -41q0 -54 -43 -150.5t-143 -290.5l-102 -198q-8 -48 -8 -86q0 -61 21 -89
q16 -20 47 -20q66 0 110.5 45.5t60.5 82.5t30 80q2 10 10.5 15t18.5 2q10 -2 15 -10.5zM233.5 815q-38.5 -86 -63.5 -190l-42 -160q85 163 133.5 268t48.5 150q0 10 -3 16l-2 1t-7 1q-26 0 -64.5 -86zM128 465l-1 -3z" />
    <glyph glyph-name="m" unicode="m" horiz-adv-x="738" 
d="M794 263.5q5 -8.5 3 -18.5q-5 -24 -27.5 -81.5t-66 -110.5t-103.5 -53q-49 0 -77 36q-26 36 -26 101q0 43 8.5 85t15.5 60l19 76q7 25 7 52q0 24 -8 35q-4 6 -16 6q-27 0 -71 -63.5t-91.5 -164t-85.5 -207.5q-6 -16 -24 -16h-6l-2 1q-10 2 -15 11t-2 19l87 327q7 25 7 51
q0 25 -8 36q-6 6 -16 6q-27 0 -70.5 -62.5t-90.5 -161.5t-86 -206l-1 -3q-2 -7 -6 -11l-6 -4q-6 -3 -12 -3v0q-5 0 -8 1q-7 3 -11.5 9.5t-4.5 14.5q0 5 1 8l2 5l117 444q2 10 11 15t19 2q10 -2 14.5 -11t2.5 -19l-38 -144q96 175 167 175q35 0 55 -25q18 -23 18 -66
q0 -20 -3.5 -39t-5.5 -25l-7 -25q98 180 170 180q35 0 55 -25q18 -23 18 -67q0 -23 -8 -63l-20 -76q-9 -28 -15 -64.5t-6 -68.5q0 -50 16 -71q11 -16 37 -16q36 0 67.5 37t52 84.5t30.5 86.5q2 10 10.5 15t18.5 3q10 -3 15 -11.5z" />
    <glyph glyph-name="n" unicode="n" horiz-adv-x="550" 
d="M607 263.5q5 -8.5 3 -18.5q-5 -24 -27.5 -81.5t-66 -110.5t-103.5 -53q-55 0 -84 40q-27 36 -27 103q0 44 9 86.5t17 65.5l9 34q20 72 20 95q0 15 -5 21q-3 6 -16 6q-45 0 -99.5 -68.5t-104 -167.5t-83.5 -194v-3q-1 -3 -6 -11q-1 -1 -2.5 -2t-4.5 -2q-4 -3 -11 -3v0
q-5 0 -8 1q-5 2 -7 4q-9 7 -9 18q-1 4 1 10l2 5l117 444q2 10 11 15t19 2q10 -2 14.5 -11t2.5 -19l-44 -167q112 198 212 198q36 0 56 -26q14 -21 14 -52q0 -30 -12 -66l-19 -75q-9 -27 -16.5 -66.5t-7.5 -74.5q0 -48 17 -72q15 -19 45 -19q36 0 67.5 37t52 84.5t30.5 86.5
q2 10 10.5 15t18.5 3q10 -3 15 -11.5z" />
    <glyph glyph-name="o" unicode="o" horiz-adv-x="510" 
d="M222 523q17 0 25 -17q2 -6 2 -9q0 -8 -5 -14.5t-12 -9.5q-57 -23 -104 -80.5t-66 -128.5q-10 -34 -10 -71q0 -60 29 -98q35 -44 78 -44q30 0 61.5 15t46.5 42q-28 23 -47.5 70t-19.5 107q0 50 19 99t51.5 80.5t70.5 31.5q21 0 37.5 -10.5t26.5 -30.5q17 -31 17 -80
q0 -56 -22.5 -126t-54.5 -119q15 -5 34 -5q48 0 84.5 40.5t51.5 112.5q6 23 26 23q21 0 21 -28q0 -9 -1 -14q-17 -88 -71 -135.5t-120 -47.5q-29 0 -56 9q-29 -42 -71.5 -63.5t-83.5 -21.5q-35 0 -66 17.5t-53 46.5q-39 51 -39 129q0 45 11 85q23 82 78 149t123 94q6 2 9 2z
M299 420.5q-21 -23.5 -34 -60.5t-13 -75q0 -42 13.5 -83t30.5 -51q33 46 53.5 108t20.5 116q0 36 -10 56q-7 13 -19 13q-21 0 -42 -23.5z" />
    <glyph glyph-name="p" unicode="p" horiz-adv-x="470" 
d="M428 326q0 -39 -12 -81q-18 -67 -58.5 -122.5t-93.5 -88t-106 -32.5q-34 0 -63 14t-49 40q-12 15 -20 34l-63 -240q-10 -47 -32 -115t-60 -126.5t-88 -58.5q-34 0 -49 26q-9 15 -9 37q0 50 41.5 140.5t139.5 273.5l21 40l86 164l65 251q3 10 11.5 15t18.5 3
q10 -3 15 -11.5t2 -18.5l-13 -50q38 38 81 59.5t86 21.5q34 0 63 -14t49 -40q37 -49 37 -121zM378 326q0 58 -26 91q-27 35 -73 35q-42 0 -85.5 -28.5t-77.5 -76t-49 -102.5q-9 -35 -9 -66q0 -59 27 -93q13 -17 32 -26.5t41 -9.5q41 0 84.5 28.5t77.5 76.5t49 103q9 34 9 68
zM-51 4q-82 -151 -129.5 -250.5t-47.5 -139.5q0 -9 3 -13q1 -2 8 -2q36 0 74.5 84.5t58.5 177.5l42 162z" />
    <glyph glyph-name="q" unicode="q" horiz-adv-x="630" 
d="M687.5 262.5q4.5 -8.5 2.5 -18.5q-28 -104 -75 -174t-130 -70q-20 0 -41 7q5 -42 5 -85q0 -84 -16.5 -170t-50.5 -144t-83 -58q-32 0 -51 25q-21 29 -21 92q0 106 54 283l36 133q-38 -39 -81.5 -61t-86.5 -22q-34 0 -63 14.5t-49 40.5q-37 47 -37 121q0 36 11 80
q18 68 58.5 123.5t93.5 88t107 32.5q34 0 63 -14.5t49 -40.5q12 -16 22 -39l10 38q2 10 11 15t19 2q10 -2 14.5 -11t2.5 -19l-55 -205q-5 -22 -5 -50q0 -55 26 -92q16 -20 26.5 -27.5t31.5 -7.5q52 0 90.5 50.5t67.5 156.5q2 10 11 15t19 3q10 -3 14.5 -11.5zM234 77.5
q43 28.5 77.5 76t49.5 102.5q9 35 9 67q0 57 -27 93q-27 35 -73 35q-42 0 -85.5 -28.5t-77.5 -76t-49 -102.5q-9 -34 -9 -67q0 -57 27 -93q26 -35 73 -35q42 0 85 28.5zM347 -353.5q24 47.5 39 122.5t15 153q0 81 -17 129q-6 19 -16 32l-40 -147q-22 -69 -37.5 -146
t-15.5 -128q0 -41 12 -58q4 -5 12 -5q24 0 48 47.5z" />
    <glyph glyph-name="r" unicode="r" horiz-adv-x="362" 
d="M23 583q20 0 33 -25.5t12 -83.5l-4 -53l70 -17q48 -11 64.5 -30.5t16.5 -60.5q0 -23 -19 -86q-22 -72 -22 -105q0 -28 12.5 -50t37.5 -22q51 0 90.5 68.5t60.5 140.5q2 9 10 14.5t18 3.5q11 -3 15.5 -11.5t1.5 -18.5q-5 -24 -27.5 -82t-66 -111.5t-102.5 -53.5
q-39 0 -68 28t-29 82q0 25 5 49.5t15 58.5q7 24 12.5 48t5.5 42q0 21 -7 31t-21.5 15t-49.5 11l-28 6q0 -98 -16 -141q-1 -3 -5 -13t-9 -14.5t-12 -4.5q-3 0 -11 2q-13 5 -13 20q0 8 2.5 18.5t3.5 13.5q9 36 12 64t3 67q-22 14 -35 44t-13 63q0 30 11.5 56.5t33.5 34.5
q8 2 12 2z" />
    <glyph glyph-name="s" unicode="s" horiz-adv-x="460" 
d="M422.5 639q18.5 -11 26.5 -32q6 -15 6 -33q0 -39 -28 -88t-80 -101l9 -21q22 -48 33 -85t11 -83q0 -54 -28.5 -99t-73.5 -71t-90 -26q-43 0 -80.5 19t-64.5 54q-22 29 -33 65t-11 75q0 42 11 76q2 10 11 15t20 3q10 -4 15 -13t3 -19q-9 -30 -9 -62q0 -64 35 -110
q37 -52 103 -52q30 0 63 18.5t55.5 51.5t22.5 75q0 35 -8 64t-24 67l-9 21q-33 -26 -68.5 -65t-35.5 -79q0 -4 2 -14q3 -10 -2.5 -19t-15.5 -12q-10 -2 -19 3t-13 16q-3 15 -3 28q0 33 17 64t39.5 54.5t60.5 57.5l18 16q-21 56 -21 108q0 33 15 66.5t41 55.5t57 22
q24 0 42.5 -11zM338 569q-20 -30 -20 -63q0 -39 10 -69q41 44 58.5 79.5t17.5 57.5q0 11 -2 14q-5 11 -22 11q-22 0 -42 -30z" />
    <glyph glyph-name="t" unicode="t" horiz-adv-x="320" 
d="M363.5 265.5q7.5 -7.5 4.5 -18.5q-8 -33 -35.5 -90t-82 -107t-132.5 -50q-66 0 -93.5 38.5t-27.5 99.5q0 58 22 137l64 225h-72q-11 0 -17.5 7t-6.5 17t7 16.5t17 6.5h86l53 185q3 10 11 15t18 2q9 -2 14.5 -11t2.5 -18l-50 -173h56q18 0 26 -6t8 -18q0 -23 -28 -23h-75
l-68 -237q-19 -64 -19 -117q0 -98 72 -98q96 0 141.5 73.5t60.5 133.5q2 9 8.5 13.5t14.5 4.5q13 0 20.5 -7.5z" />
    <glyph glyph-name="u" unicode="u" horiz-adv-x="498" 
d="M552 266.5q7 -9.5 5 -20.5q-13 -44 -32 -92t-62 -100.5t-103 -52.5q-55 0 -85 39q-17 24 -24 64q-61 -103 -139 -103q-55 0 -84 39q-28 37 -28 108q0 44 9 87t15 61l49 185q3 10 11.5 15t18.5 3q10 -3 15 -11.5t2 -18.5l-49 -186q-8 -26 -15 -64t-7 -73q0 -52 18 -77
q15 -20 45 -20q51 0 90.5 67t58.5 137q5 28 11 43l49 185q3 10 11.5 15t18.5 3q10 -3 15 -11.5t2 -18.5l-49 -186q-8 -26 -15 -64t-7 -73q0 -52 18 -77q15 -20 45 -20q36 0 67.5 37t52 85t30.5 87q2 8 8.5 13t14.5 5q12 0 19 -9.5z" />
    <glyph glyph-name="v" unicode="v" horiz-adv-x="418" 
d="M366 486q18 -19 18 -53q0 -22 -8 -51q-46 -147 -96 -238q6 -14 11 -20q17 -21 47 -21q22 0 44.5 30t36.5 66q8 21 13 37.5t6 21.5q3 10 11.5 15t18.5 2q10 -2 15 -10.5t3 -18.5q-1 -6 -6.5 -24t-14.5 -41q-15 -39 -47.5 -83t-79.5 -44q-54 0 -86 40l-1 2
q-65 -96 -130 -96q-36 0 -59.5 14t-36.5 34q-25 38 -25 106q0 84 30.5 183.5t52.5 147.5q6 15 23 15q10 0 17.5 -7.5t7.5 -16.5q0 -5 -3 -10q-27 -64 -53 -155t-26 -159q0 -50 17 -77q16 -26 55 -26q46 0 106 102q-7 33 -7 64q0 76 30 185q12 46 34.5 73t49.5 27
q20 0 32 -14zM315.5 434.5q-10.5 -17.5 -18.5 -46.5q-24 -91 -27 -153q37 87 59 161q8 30 8 42q0 11 -5 12q-6 2 -16.5 -15.5z" />
    <glyph glyph-name="w" unicode="w" horiz-adv-x="670" 
d="M704.5 245q5.5 -7 5.5 -17q0 -6 -1 -9q-20 -60 -69.5 -93t-112.5 -33q-17 0 -34 3q-22 -40 -58.5 -68t-83.5 -28q-49 0 -76 33.5t-36 88.5q-56 -121 -127 -121q-56 0 -84 39q-28 37 -28 108q0 44 9 87t15 61l49 185q3 10 11.5 15t18.5 3q10 -3 15 -11.5t2 -18.5l-49 -186
q-8 -26 -15 -64t-7 -73q0 -52 18 -77q15 -20 45 -20q43 0 74 76.5t55 171.5l1 4l48 180q2 10 11 15t19 3q10 -3 15 -11.5t2 -18.5l-49 -186l-1 -4l-3 -12q-4 -21 -4 -61q0 -59 14 -104.5t45 -52.5q12 -2 19 -2q54 0 96 70q-20 15 -38 65t-18 100q0 48 13.5 98.5t40 84.5
t61.5 34q36 0 55 -27q18 -26 18 -74q0 -40 -10 -83t-19 -70q-15 -51 -35 -99q7 -1 20 -1q42 0 74.5 22.5t48.5 68.5q2 7 9 11.5t14 4.5q11 0 16.5 -7zM513.5 271.5q20.5 71.5 20.5 121.5q0 41 -16 56q-3 2 -9 2q-15 0 -29.5 -23t-23.5 -62t-9 -84q0 -30 8.5 -65t22.5 -49
q15 32 35.5 103.5z" />
    <glyph glyph-name="x" unicode="x" horiz-adv-x="400" 
d="M476 266.5q7 -9.5 5 -20.5q-5 -24 -27.5 -81.5t-66 -110.5t-103.5 -53q-77 0 -131 171l-108 -161q-7 -10 -21 -10q-8 0 -13 4q-11 6 -11 20q0 9 4 14l132 196l-2 9q-23 94 -30.5 159.5t-8.5 68.5q-1 11 5.5 18.5t16.5 8.5t17.5 -5t9.5 -16q10 -102 29 -188l134 199
q6 11 19 11q7 0 15 -5q11 -6 11 -19q0 -7 -5 -15l-158 -236q22 -83 47.5 -129.5t47.5 -46.5q36 0 67.5 37t52 85t30.5 87q2 8 8.5 13t14.5 5q12 0 19 -9.5z" />
    <glyph glyph-name="y" unicode="y" horiz-adv-x="530" 
d="M596.5 263.5q4.5 -8.5 2.5 -18.5q-43 -159 -124.5 -237.5t-191.5 -110.5l-21 -72q-10 -37 -11 -38q-5 -24 -31.5 -80.5t-83.5 -108t-143 -51.5q-43 0 -75.5 21t-48.5 59q-12 28 -12 62q0 40 18 81t51 75q33 32 80.5 46t127.5 26q62 9 110 19l43 154q-71 -82 -150 -82
q-53 0 -83 39q-27 38 -27 105q0 62 23 146l49 182q3 9 11.5 14t17.5 3q10 -3 15 -11.5t2 -18.5l-49 -182q-8 -27 -14.5 -63.5t-6.5 -69.5q0 -52 18 -77q15 -19 44 -19q44 0 84.5 36.5t69.5 84.5t43 86l1 2q37 135 55 214q1 8 7.5 13.5t14.5 5.5q12 0 19 -9t5 -21
q-28 -126 -138 -516q89 30 154 100.5t101 204.5q2 10 10.5 15t18.5 2q10 -2 14.5 -10.5zM229 -116q-25 -5 -88 -14q-75 -12 -115.5 -23t-65.5 -36q-28 -29 -41.5 -60.5t-13.5 -60.5q0 -26 9 -45q10 -24 30.5 -37t48.5 -13q69 0 116 45t71.5 97t24.5 62z" />
    <glyph glyph-name="z" unicode="z" horiz-adv-x="460" 
d="M272 486q31 -11 55 -11q37 0 85 22q6 2 10 2q11 0 18 -7q7 -9 7 -17q0 -6 -3 -11q-9 -21 -39 -81t-74.5 -141.5t-87.5 -149.5q27 -21 48.5 -32t49.5 -11q37 0 67 37t50 85t28 86q2 8 9 13.5t15 5.5q12 0 19 -9t5 -21q-5 -27 -26 -83.5t-64 -109.5t-104 -53
q-37 0 -65 13.5t-59 37.5q-19 -25 -50 -38t-55 -13q-28 0 -47 18t-19 44q0 31 25 53.5t69 22.5q30 0 64 -18q77 121 171 312q-27 -6 -47 -6q-30 0 -70 14q-13 5 -26.5 8t-26.5 3q-32 0 -49 -13q-12 -10 -12 -21q0 -10 9.5 -16t24.5 -6q11 0 18 -7t7 -17t-7.5 -17t-17.5 -7
q-38 0 -60 21t-22 49q0 35 30 59t79 24q30 0 68 -14zM102 78q-8 -6 -8 -16q0 -13 17 -13q12 0 32.5 7.5t32.5 22.5q-20 10 -37 10q-24 0 -37 -11z" />
    <glyph glyph-name="zero" unicode="0" horiz-adv-x="475" 
d="M273.5 46.5q61.5 46.5 109 125.5t69.5 172q8 35 8 70q0 69 -33 111q-14 18 -33 28t-39 10q-36 0 -63.5 -16t-42 -41t-14.5 -53q0 -10 7.5 -17.5t17.5 -7.5t17 7.5t7 17.5q0 24 19.5 42.5t51.5 18.5q19 0 34 -20q22 -28 22 -78q0 -31 -7 -60q-17 -74 -57 -145t-92 -116.5
t-103 -45.5q-39 0 -65 34q-38 49 -38 140q0 58 16 121q21 82 62.5 152.5t92 112.5t97.5 42q58 0 87 -73q3 -7 9.5 -11.5t14.5 -4.5q5 0 8 1q7 3 11.5 9.5t4.5 13.5q0 3 -2 9q-19 50 -54 77.5t-79 27.5q-59 0 -119 -45.5t-108 -124.5t-72 -174q-18 -70 -18 -135
q0 -108 48 -168q41 -53 104 -53q60 0 121.5 46.5z" />
    <glyph glyph-name="one" unicode="1" horiz-adv-x="325" 
d="M146.5 5q6.5 5 8.5 13l175 651q2 10 -3 19t-15 11q-2 1 -7 1q-8 0 -14.5 -5t-8.5 -13q-9 -33 -41 -67t-76.5 -56t-89.5 -22q-10 0 -17.5 -7t-7.5 -18q0 -10 7.5 -17t17.5 -7q46 0 91 18t82 48l-140 -523q-1 -2 -1 -7q0 -8 5 -15t13 -8q2 -1 7 -1q8 0 14.5 5z" />
    <glyph glyph-name="two" unicode="2" horiz-adv-x="450" 
d="M328 7q8 8 8 18q0 9 -8 17q-23 23 -67 35.5t-95 12.5q-27 0 -40 -2q140 137 231 241t111 177q9 35 9 61q0 49 -26 83q-19 24 -49 37t-67 13q-67 0 -111.5 -39t-65.5 -80.5t-26 -61.5q-1 -2 -1 -7q0 -8 5 -15t13 -8q2 -1 7 -1q18 0 23 17q0 7 18 44.5t53 69.5t85 32
q53 0 77 -31q15 -21 15 -53q0 -24 -7 -48q-18 -68 -115.5 -176t-234.5 -239l-63 -62q-7 -9 -7 -17q0 -9 7 -18q9 -7 18 -7q8 0 17 7q17 17 49 25.5t71 8.5q42 0 79 -9.5t52 -24.5q7 -7 18 -7q10 0 17 7z" />
    <glyph glyph-name="three" unicode="3" horiz-adv-x="450" 
d="M273.5 42q53.5 42 78.5 139q8 32 8 57q0 50 -28 90q-17 23 -43 40q54 15 95.5 48t56.5 90q8 28 8 56q0 52 -28 88q-18 23 -45 36.5t-56 13.5q-63 0 -108.5 -30t-71 -72t-33.5 -80q-2 -12 5 -21.5t19 -9.5q8 0 15 6t9 14q0 8 16.5 44t53 68t95.5 32q18 0 34.5 -8.5
t27.5 -22.5q18 -22 18 -56q0 -23 -7 -45q-19 -71 -87.5 -93t-119.5 -22q-11 0 -18.5 -7.5t-7.5 -18.5q0 -9 6.5 -15.5t16.5 -8.5q0 1 22.5 -4t46.5 -17t40 -34q17 -24 17 -61q0 -18 -5 -45q-12 -64 -50 -104t-93 -40q-27 0 -56 19.5t-38 42.5q-9 21 -9 41q0 30 17 47
q8 8 8 17q0 10 -8 18q-6 7 -17 7q-10 0 -17 -7q-32 -32 -32 -83q0 -29 12 -59q17 -41 58 -66.5t81 -25.5q60 0 113.5 42z" />
    <glyph glyph-name="four" unicode="4" horiz-adv-x="475" 
d="M481 381q0 -8 -4.5 -14t-11.5 -9q-35 -13 -90 -13q-22 0 -68 4q-55 -179 -79 -328q-2 -9 -8.5 -15t-15.5 -6h-4q-10 2 -16 10.5t-4 18.5q21 138 77 326q-32 5 -93 16q-7 -22 -23 -40.5t-36 -29.5q-20 -10 -38 -10q-12 0 -25 5q-18 7 -28 22.5t-10 35.5q0 28 25.5 51.5
t74.5 23.5q14 0 25 -2l2 6q53 172 64 246q2 10 9 15.5t16 5.5q11 0 18.5 -9t5.5 -20q-8 -49 -25 -111t-41 -142q55 -10 94 -15q16 52 27 83.5l12 34.5q3 7 9.5 11.5t13.5 4.5q12 0 18.5 -7.5t6.5 -18.5q0 -5 -1 -8q-1 -2 -11 -30t-25 -76q18 -2 54 -2q48 0 71 9q6 2 9 2
q8 0 14 -4.5t9 -11.5q2 -6 2 -9zM114 379l-10 1q-23 0 -35.5 -7t-14.5 -17v-4q0 -8 5 -10q3 -1 8 -1q8 0 16 4q21 12 31 34z" />
    <glyph glyph-name="five" unicode="5" horiz-adv-x="475" 
d="M297 29.5q48 30.5 74 79.5t26 102q0 57 -29 105.5t-78.5 77t-107.5 28.5h-11q18 51 29.5 97.5t11.5 91.5q0 18 -1 27q68 -19 129 -19q80 0 134 34q12 8 12 21q0 5 -4 13q-7 12 -21 12q-5 0 -13 -4q-43 -27 -108 -27q-35 0 -69 6.5t-56.5 13.5t-28.5 10q-3 1 -8 1
q-11 0 -18 -7t-7 -18q0 -6 1 -9q9 -21 9 -54q0 -43 -13 -91t-32 -100q-1 0 -1 -0.5v-0.5q-91 -12 -109 -56q-4 -8 -4 -18q0 -20 17 -37q14 -14 36 -14q6 0 18 2q26 8 48.5 29.5t29.5 46.5q9 1 29 1q45 0 83 -22t60 -59t22 -81q0 -51 -23.5 -87.5t-60.5 -55.5t-78 -19
q-42 0 -67.5 16t-36 37t-10.5 36q0 20 10.5 37t25.5 27t26 10q10 0 17 7t7 17t-7 17.5t-17 7.5q-25 0 -51 -17t-43 -45.5t-17 -60.5q0 -27 16.5 -59.5t53 -56t93.5 -23.5q64 0 112 30.5zM65.5 354q9.5 5 26.5 10q-9 -10 -22 -17q-9 -4 -15 -4l-1 2q2 4 11.5 9z" />
    <glyph glyph-name="six" unicode="6" horiz-adv-x="450" 
d="M304 29.5q45 29.5 70 76.5t25 97q0 56 -20.5 99.5t-58 67.5t-85.5 24q-42 0 -75.5 -17.5t-55.5 -51.5q-14 -21 -21.5 -46.5t-7.5 -50.5q0 -26 10 -51q6 -15 23 -15q4 0 10 2q14 6 14 23q0 7 -2 10q-5 10 -5 31q0 39 20 70q30 47 90 47q52 0 83.5 -39t31.5 -103
q0 -38 -19 -73.5t-52.5 -58t-75.5 -22.5q-33 0 -69 18.5t-60.5 53.5t-24.5 82q0 93 60.5 199t155 177.5t191.5 71.5q10 0 17 7t7 17t-7 17.5t-17 7.5q-111 0 -217 -78.5t-172.5 -195.5t-66.5 -223q0 -58 29.5 -104.5t76.5 -72.5t97 -26q56 0 101 29.5z" />
    <glyph glyph-name="seven" unicode="7" horiz-adv-x="450" 
d="M156 7.5q7 7.5 7 17.5q0 92 77.5 232t185 286t89.5 117q5 6 5 16q0 11 -7 18q-7 6 -17 6t-17 -7q-23 -23 -61.5 -33.5t-85.5 -10.5q-59 0 -116 14t-73 30q-7 7 -17 7q-11 0 -18 -7q-7 -9 -7 -17q0 -9 7 -18q23 -23 87 -40.5t133 -17.5q48 0 84 8q-114 -151 -206 -312
t-92 -271q0 -10 7.5 -17.5t17.5 -7.5t17 7.5z" />
    <glyph glyph-name="eight" unicode="8" horiz-adv-x="450" 
d="M424.5 431.5q-29.5 -33.5 -70.5 -53.5q17 -10 34 -31q31 -43 31 -98q0 -27 -7 -52q-14 -54 -53 -99t-91 -71.5t-106 -26.5q-41 0 -74.5 15.5t-55.5 44.5q-32 41 -32 97q0 28 7 53q15 58 59 105.5t101 71.5q-12 10 -20 21q-27 34 -27 83q0 22 6 44q12 45 44.5 83t76 60
t89.5 22q60 0 86 -27q7 -7 7 -17q0 -11 -7 -18q-9 -7 -17 -7q-10 0 -18 8q-12 12 -51 12q-53 0 -100.5 -38t-61.5 -91q-5 -18 -5 -33q0 -29 17 -51q26 -32 71 -32q53 0 99.5 30t59.5 82q2 10 2 14q0 13 -8 23q-6 9 -18 14t-27 5q-22 0 -34.5 -14t-12.5 -32q0 -10 -7 -17
t-17 -7t-17.5 7t-7.5 17q0 41 27.5 68t68.5 27q26 0 48 -10t36 -27q18 -22 18 -54q0 -11 -3 -26q-10 -41 -39.5 -74.5zM257 357q-43 0 -85.5 -21.5t-73.5 -58.5t-43 -80q-6 -21 -6 -41q0 -40 22 -66q15 -20 38.5 -30.5t52.5 -10.5q43 0 85.5 21.5t74 58.5t42.5 81q6 21 6 41
q0 40 -22 66q-31 40 -91 40z" />
    <glyph glyph-name="nine" unicode="9" horiz-adv-x="450" 
d="M442 538q0 -25 -6 -54l-1 -5q-31 -144 -65.5 -245t-90 -167.5t-135.5 -66.5q-73 0 -108.5 41t-35.5 98q0 10 7 17.5t18 7.5q10 0 17 -7.5t7 -17.5q0 -38 21 -64t74 -26q69 0 118 74.5t86 207.5q-58 -52 -124 -52q-63 0 -103 48q-36 45 -36 114q0 26 6 54q12 57 44.5 104
t77 74t90.5 27q63 0 103 -49q36 -44 36 -113zM292 350q34 22 59.5 60t35.5 82l1 3q5 25 5 43q0 51 -26 82q-25 31 -64 31q-34 0 -68.5 -23t-60.5 -61.5t-35 -82.5q-5 -25 -5 -43q0 -51 26 -83q25 -30 64 -30q34 0 68 22z" />
    <glyph glyph-name="fraction" unicode="&#x2044;" horiz-adv-x="400" 
d="M499 796q0 14 -11 22q-5 3 -11 3q-15 0 -21 -12l-500 -832q-3 -5 -3 -11q0 -14 11 -22q3 -2 10 -2q16 0 22 10l500 833q3 5 3 11z" />
    <glyph glyph-name="asterisk" unicode="*" horiz-adv-x="400" 
d="M343 637q0 -14 -13 -18l-87 -23l48 -75q2 -3 2 -10q0 -10 -8 -15q-5 -5 -11 -3q-9 0 -15 9l-48 75l-56 -69q-9 -7 -16 -7q-6 0 -11 5q-6 5 -6 14q0 7 4 12l57 68l-83 35q-7 1 -10 8.5t0 14.5q2 7 9.5 10t14.5 1l83 -34l6 90q0 7 6 12t14 5q7 -1 12 -6.5t5 -12.5l-6 -91
l87 23h3q6 0 12 -4t7 -10v-4z" />
    <glyph glyph-name="backslash" unicode="\" horiz-adv-x="600" 
d="M464 -115.5q10 -3.5 17 -0.5q14 9 14 23q0 3 -2 9l-395 886q-3 7 -9 11t-13 4q-9 0 -16 -8t-7 -18l2 -8l396 -887q3 -8 13 -11.5z" />
    <glyph glyph-name="periodcentered" unicode="&#xb7;" horiz-adv-x="250" 
d="M81 270q-19 19 -19 44q0 26 18.5 44t44.5 18t44 -18t18 -44t-18 -44.5t-44 -18.5q-25 0 -44 19z" />
    <glyph glyph-name="bullet" unicode="&#x2022;" horiz-adv-x="550" 
d="M181.5 232.5q-36.5 36.5 -36.5 88.5t36.5 88.5t88.5 36.5q53 0 89 -36t36 -89q0 -52 -36.5 -88.5t-88.5 -36.5t-88.5 36.5z" />
    <glyph glyph-name="colon" unicode=":" horiz-adv-x="300" 
d="M208.5 488.5q11.5 -11.5 11.5 -28.5t-11.5 -28.5t-28.5 -11.5q-16 0 -28 12t-12 28q0 17 12 28.5t28 11.5q17 0 28.5 -11.5zM128.5 68.5q11.5 -11.5 11.5 -28.5t-11.5 -28.5t-28.5 -11.5q-16 0 -28 12t-12 28q0 17 12 28.5t28 11.5q17 0 28.5 -11.5z" />
    <glyph glyph-name="comma" unicode="," horiz-adv-x="250" 
d="M144 38q-1 -14 -5 -26.5t-15 -29.5q-6 -8 -15.5 -17t-16.5 -9q-2 -1 -4 1.5t-2 7.5q0 4 3 12t3 13q0 8 -8 15q-9 5 -14.5 14.5t-5.5 20.5q0 17 11.5 28.5t28.5 11.5q16 0 27.5 -11t12.5 -27v-2v-2z" />
    <glyph glyph-name="exclam" unicode="!" horiz-adv-x="400" 
d="M209 216q7 5 9 13l172 639q2 11 -3 20t-15 11q-11 3 -20 -2.5t-11 -15.5l-171 -638q-1 -2 -1 -7q0 -9 5 -16t13 -8q3 -1 7 -1q8 0 15 5zM162.5 7.5q9.5 7.5 13.5 19.5l2 9q2 8 2 10q0 15 -11 25.5t-26 10.5q-12 0 -22 -7.5t-13 -19.5l-3 -9q-1 -3 -1 -9q0 -12 7.5 -22.5
t19.5 -13.5q3 -1 10 -1q12 0 21.5 7.5z" />
    <glyph glyph-name="numbersign" unicode="#" horiz-adv-x="630" 
d="M585 235q-18 -17 -66 -17q-34 0 -120 12q-20 -93 -20 -147q0 -37 10 -50q3 -4 9 -4q11 0 18 -7.5t7 -17.5t-7.5 -17t-17.5 -7q-30 0 -48 23q-20 26 -20 81q0 54 21 153q-76 10 -101 13q-18 -74 -28 -124.5t-10 -78.5q0 -15 2 -19q8 -2 14 -8.5t6 -15.5q0 -10 -7.5 -17
t-17.5 -7q-19 0 -33 16q-13 16 -13 52q0 31 9.5 79t28.5 128q-11 1 -30 1q-43 0 -53 -10q-1 0 -1 -3q1 -10 -5 -17.5t-16 -9.5h-3q-9 0 -16 6t-8 16q-3 26 15 43q24 24 88 24q11 0 41 -2v2l21 84q-60 6 -82 6q-40 0 -50 -10l-0.5 -0.5t0.5 -2.5q1 -10 -5.5 -17.5t-16.5 -9.5
h-3q-9 0 -16 6t-8 16q-3 26 15 44q24 24 89 24q29 0 88 -7q23 106 23 155q0 27 -7 37q-1 1 -3 1q-10 0 -17 7.5t-7 17.5t7 17t17 7q25 0 42 -20q17 -21 17 -68q0 -53 -24 -160l55 -8q58 -8 47 -7q43 167 43 207l-1 9q-6 3 -10 9.5t-4 13.5q0 10 7 17t17 7q18 0 29 -14
q10 -13 10 -41t-10 -76.5t-33 -137.5q40 -5 63 -5q18 0 27 3q1 8 7 13.5t14 6.5q10 1 17.5 -5t9.5 -16q2 -20 -12 -34q-17 -17 -66 -17q-25 0 -72 5l-21 -85q84 -10 115 -10q18 0 23 2q2 9 7.5 14.5t14.5 6.5q10 1 17.5 -5t9.5 -16q2 -20 -12 -34zM361 284l21 85l-42 6
l-58 8q-9 -32 -21 -85q36 -4 100 -14z" />
    <glyph glyph-name="period" unicode="." horiz-adv-x="250" 
d="M72 12q-12 12 -12 28q0 17 12 28.5t28 11.5q17 0 28.5 -11.5t11.5 -28.5t-11.5 -28.5t-28.5 -11.5q-16 0 -28 12z" />
    <glyph glyph-name="question" unicode="?" horiz-adv-x="500" 
d="M462 215q7 5 9 13q17 62 54.5 108t102.5 107t101.5 106.5t52.5 105.5q11 40 11 77q0 63 -32 105q-23 31 -61 47t-85 16q-85 0 -142.5 -50t-85 -105t-31.5 -77q-1 -2 -1 -7q0 -10 7 -17.5t18 -7.5q8 0 15 5t9 13q50 109 96.5 152t114.5 43q72 0 106 -43q21 -29 21 -74
q0 -29 -9 -64q-14 -51 -47 -91.5t-93 -96.5q-47 -44 -76 -75t-54.5 -72.5t-39.5 -90.5q-1 -2 -1 -7q0 -9 5 -16t13 -8q2 -1 7 -1q8 0 15 5zM427.5 7.5q9.5 7.5 13.5 19.5l2 9q2 8 2 10q0 15 -11 25.5t-26 10.5q-12 0 -22 -7.5t-13 -19.5l-3 -9q-1 -3 -1 -9q0 -12 7.5 -22.5
t19.5 -13.5q3 -1 10 -1q12 0 21.5 7.5z" />
    <glyph glyph-name="quotedbl" unicode="&#x22;" horiz-adv-x="320" 
d="M113 803q-6 14 -9 19q-15 22 -15 38q0 17 12 28.5t28 11.5q17 0 28.5 -11.5t11.5 -28.5q0 -16 -14 -38q-3 -4 -10 -20q-4 -8 -8 -15t-8 -7q-8 0 -16 23zM244 803q-6 14 -9 19q-15 22 -15 38q0 17 12 28.5t28 11.5q17 0 28.5 -11.5t11.5 -28.5q0 -16 -14 -38
q-3 -4 -10 -20q-4 -8 -8 -15t-8 -7q-8 0 -16 23z" />
    <glyph glyph-name="quotesingle" unicode="'" horiz-adv-x="250" 
d="M109 803q-6 14 -9 19q-15 22 -15 38q0 17 12 28.5t28 11.5q17 0 28.5 -11.5t11.5 -28.5q0 -16 -14 -38q-3 -4 -10 -20q-4 -8 -8 -15t-8 -7q-8 0 -16 23z" />
    <glyph glyph-name="semicolon" unicode=";" horiz-adv-x="300" 
d="M208.5 488.5q11.5 -11.5 11.5 -28.5t-11.5 -28.5t-28.5 -11.5q-16 0 -28 12t-12 28q0 17 12 28.5t28 11.5q17 0 28.5 -11.5zM140 41v-1v-2q-1 -14 -5 -26.5t-15 -29.5q-6 -8 -15.5 -17t-16.5 -9q-2 -1 -4 1.5t-2 7.5q0 4 3 12t3 13q0 8 -8 15q-9 5 -14.5 14.5t-5.5 20.5
q0 17 11.5 28.5t28.5 11.5q16 0 27.5 -11t12.5 -27v-1z" />
    <glyph glyph-name="slash" unicode="/" horiz-adv-x="500" 
d="M495 792q0 7 -4 13.5t-10 9.5q-6 2 -9 2q-7 0 -13 -4t-9 -11l-395 -886q-2 -6 -2 -9q0 -14 14 -23q2 -1 7 -1q7 0 14 3.5t9 9.5l396 887q2 6 2 9z" />
    <glyph glyph-name="underscore" unicode="_" horiz-adv-x="600" 
d="M527 -91q7 7 7 17t-7 16.5t-16 6.5h-419q-10 0 -16.5 -6.5t-6.5 -16.5q0 -11 6.5 -17.5t16.5 -6.5h419q9 0 16 7z" />
    <glyph glyph-name="braceleft" unicode="{" horiz-adv-x="400" 
d="M288.5 -107q7.5 7 7.5 17t-7 17.5t-18 7.5q-39 0 -55 19q-15 19 -15 60q0 40 16 122q6 32 11 64.5t5 56.5q0 50 -21 75l-2 1q32 26 43.5 72t18.5 124q7 75 17 117.5t33.5 66.5t68.5 24q10 0 17 7t7 17t-7 17.5t-17 7.5q-67 0 -102 -37t-47 -87.5t-19 -128.5
q-6 -66 -13.5 -101.5t-23 -53.5t-44.5 -18q-10 0 -17 -7t-7 -17q0 -11 7 -18t17 -7q22 0 32 -10q10 -13 10 -43q0 -21 -4.5 -52t-10.5 -61q-17 -85 -17 -131q0 -61 26 -91q30 -37 93 -37q10 0 17.5 7z" />
    <glyph glyph-name="braceright" unicode="}" horiz-adv-x="400" 
d="M267 749q27 -32 27 -93q0 -26 -5.5 -61t-11.5 -68q-6 -30 -10.5 -61t-4.5 -51q0 -33 10 -44q10 -10 31 -10q11 0 18 -7t7 -18q0 -10 -7 -17.5t-18 -7.5q-29 0 -44.5 -18t-23 -53.5t-13.5 -101.5q-8 -79 -19.5 -129t-46 -86.5t-101.5 -36.5q-10 0 -17.5 7t-7.5 18
q0 10 7.5 17t17.5 7q44 0 67.5 24t33.5 66.5t17 117.5q7 78 18.5 124t43.5 72q-1 0 -1 0.5v0.5q-22 26 -22 76q0 24 5 56t11 64t11.5 65.5t5.5 57.5q0 41 -15 59q-16 19 -56 19q-10 0 -17 7t-7 17t7 17.5t17 7.5q63 0 93 -37z" />
    <glyph glyph-name="bracketleft" unicode="[" horiz-adv-x="450" 
d="M260 -107.5q7 7.5 7 17.5t-7 17t-17 7h-98l145 802h109q11 0 18 7.5t7 17.5t-7.5 17t-17.5 7h-129q-9 0 -16 -5.5t-8 -14.5l-155 -851v-4q0 -9 5 -16q8 -9 19 -9h128q10 0 17 7.5z" />
    <glyph glyph-name="bracketright" unicode="]" horiz-adv-x="500" 
d="M254 -98.5q7 5.5 8 14.5l155 851v4q0 10 -6 16q-6 9 -18 9h-142q-10 0 -17.5 -7t-7.5 -18q0 -10 7.5 -17t17.5 -7h112l-145 -802h-114q-10 0 -17.5 -7t-7.5 -17q0 -11 7.5 -18t17.5 -7h134q9 0 16 5.5z" />
    <glyph glyph-name="parenleft" unicode="(" horiz-adv-x="350" 
d="M172 -137q15 7 15 22q0 3 -2 9q-13 39 -28.5 111t-15.5 176q0 139 45.5 282t156.5 272q6 8 6 16q0 12 -9 19q-6 6 -16 6q-12 0 -18 -8q-118 -137 -166 -288t-48 -299q0 -111 16.5 -186.5t30.5 -118.5q4 -8 11 -12t15 -3q5 0 7 2z" />
    <glyph glyph-name="parenright" unicode=")" horiz-adv-x="400" 
d="M99 -131q18 20 55 84.5t71 178t34 255.5q0 191 -69 383q-4 9 -13 13.5t-19 1.5q-7 -3 -11.5 -9t-4.5 -14q0 -3 2 -9q65 -184 65 -361q0 -136 -32.5 -244.5t-68 -171.5t-47.5 -75q-6 -8 -6 -16q0 -11 9 -20q7 -4 15 -4q13 0 20 8z" />
    <glyph glyph-name="emdash" unicode="&#x2014;" horiz-adv-x="650" 
d="M575 240q7 7 7 17t-7 16.5t-16 6.5h-419q-10 0 -16.5 -6t-6.5 -17t6.5 -17.5t16.5 -6.5h419q9 0 16 7z" />
    <glyph glyph-name="endash" unicode="&#x2013;" horiz-adv-x="600" 
d="M537 240q7 7 7 17t-7 16.5t-16 6.5h-393q-10 0 -16.5 -6t-6.5 -17t6.5 -17.5t16.5 -6.5h393q9 0 16 7z" />
    <glyph glyph-name="hyphen" unicode="-" horiz-adv-x="500" 
d="M438 240q7 7 7 17t-7 16.5t-16 6.5h-294q-10 0 -16.5 -6t-6.5 -17t6.5 -17.5t16.5 -6.5h294q9 0 16 7z" />
    <glyph glyph-name="guillemotleft" unicode="&#xab;" horiz-adv-x="700" 
d="M275.5 -5q6.5 5 8.5 11q6 24 6 49q0 39 -14.5 79.5t-41.5 76.5q-34 43 -77 70q88 25 162 77.5t91 121.5q1 2 1 6q0 7 -4.5 13.5t-11.5 8.5l-5 1q-8 0 -15 -5.5t-8 -12.5q-13 -50 -69 -91.5t-124 -65t-115 -23.5q-8 0 -15.5 -7.5t-7.5 -15.5t7.5 -15.5t15.5 -7.5
q35 0 72 -22t66 -60q48 -60 48 -125q0 -19 -5 -39q-2 -9 4 -18.5t16 -10.5h2q7 0 13.5 5zM554.5 -5q6.5 5 8.5 11q6 24 6 49q0 39 -14.5 79.5t-41.5 76.5q-34 43 -77 70q88 25 162 77.5t91 121.5q1 2 1 6q0 7 -4.5 13.5t-11.5 8.5l-5 1q-8 0 -15 -5.5t-8 -12.5
q-13 -50 -69 -91.5t-124 -65t-115 -23.5q-8 0 -15.5 -7.5t-7.5 -15.5t7.5 -15.5t15.5 -7.5q35 0 72 -22t66 -60q48 -60 48 -125q0 -19 -5 -39q-2 -9 4 -18.5t16 -10.5h2q7 0 13.5 5z" />
    <glyph glyph-name="guillemotright" unicode="&#xbb;" horiz-adv-x="700" 
d="M101 -5q7 5 8 12q15 69 70.5 127.5t125.5 93t125 34.5q8 0 15.5 7.5t7.5 15.5t-7.5 15.5t-15.5 7.5q-44 0 -90 19t-74 55q-23 31 -23 66q0 16 4 31l1 5q0 7 -5 14.5t-12 9.5l-5 1q-7 0 -14 -5t-9 -13q-6 -21 -6 -42q0 -50 34 -95q33 -44 91 -69q-90 -34 -164 -105.5
t-94 -162.5q-2 -8 4.5 -17t15.5 -10h3q7 0 14 5zM346 -5q7 5 8 12q15 69 70.5 127.5t125.5 93t125 34.5q8 0 15.5 7.5t7.5 15.5t-7.5 15.5t-15.5 7.5q-44 0 -90 19t-74 55q-23 31 -23 66q0 16 4 31l1 5q0 7 -5 14.5t-12 9.5l-5 1q-7 0 -14 -5t-9 -13q-6 -21 -6 -42
q0 -50 34 -95q33 -44 91 -69q-90 -34 -164 -105.5t-94 -162.5q-2 -8 4.5 -17t15.5 -10h3q7 0 14 5z" />
    <glyph glyph-name="guilsinglleft" unicode="&#x2039;" horiz-adv-x="500" 
d="M304.5 -5q6.5 5 8.5 11q6 24 6 49q0 39 -14.5 79.5t-41.5 76.5q-34 43 -77 70q88 25 162 77.5t91 121.5q1 2 1 6q0 7 -4.5 13.5t-11.5 8.5l-5 1q-8 0 -15 -5.5t-8 -12.5q-13 -50 -69 -91.5t-124 -65t-115 -23.5q-8 0 -15.5 -7.5t-7.5 -15.5t7.5 -15.5t15.5 -7.5
q35 0 72 -22t66 -60q48 -60 48 -125q0 -19 -5 -39q-2 -9 4 -18.5t16 -10.5h2q7 0 13.5 5z" />
    <glyph glyph-name="guilsinglright" unicode="&#x203a;" horiz-adv-x="500" 
d="M101 -5q7 5 8 12q15 69 70.5 127.5t125.5 93t125 34.5q8 0 15.5 7.5t7.5 15.5t-7.5 15.5t-15.5 7.5q-44 0 -90 19t-74 55q-23 31 -23 66q0 16 4 31l1 5q0 7 -5 14.5t-12 9.5l-5 1q-7 0 -14 -5t-9 -13q-6 -21 -6 -42q0 -50 34 -95q33 -44 91 -69q-90 -34 -164 -105.5
t-94 -162.5q-2 -8 4.5 -17t15.5 -10h3q7 0 14 5z" />
    <glyph glyph-name="quotedblleft" unicode="&#x201c;" horiz-adv-x="300" 
d="M257.5 839.5q-5.5 -9.5 -14.5 -14.5q-7 -6 -7 -15q0 -5 3.5 -16t-0.5 -17q-4 -5 -17 5t-19 20q-11 17 -15 29.5t-5 26.5v2v1v1v0q1 16 12.5 27t27.5 11t28 -11.5t12 -28.5q0 -11 -5.5 -20.5zM111 887.5q12 -11.5 12 -28.5q0 -11 -5.5 -20.5t-14.5 -14.5q-7 -6 -7 -15
q0 -5 3.5 -16t-0.5 -17q-4 -5 -17 5t-19 20q-11 17 -15 29.5t-5 26.5v2v1v1v0q1 16 12.5 27t27.5 11t28 -11.5z" />
    <glyph glyph-name="quotedblright" unicode="&#x201d;" horiz-adv-x="300" 
d="M123 861v-1v-2q-1 -14 -5 -26.5t-15 -29.5q-6 -8 -15.5 -17t-16.5 -9q-2 -1 -4 1.5t-2 7.5q0 4 3 12t3 13q0 8 -8 15q-9 5 -14.5 14.5t-5.5 20.5q0 17 11.5 28.5t28.5 11.5q16 0 27.5 -11t12.5 -27v-1zM263 857q-1 -14 -5 -26.5t-15 -29.5q-6 -8 -15.5 -17t-16.5 -9
q-2 -1 -4 1.5t-2 7.5q0 4 3 12t3 13q0 8 -8 15q-9 5 -14.5 14.5t-5.5 20.5q0 17 11.5 28.5t28.5 11.5q16 0 27.5 -11t12.5 -27v-2v-2z" />
    <glyph glyph-name="quoteleft" unicode="&#x2018;" horiz-adv-x="250" 
d="M163.5 838.5q-5.5 -9.5 -14.5 -14.5q-7 -6 -7 -15q0 -5 3.5 -16t-0.5 -17q-4 -5 -17 5t-19 20q-11 17 -15 29.5t-5 26.5v2v1v1v0q1 16 12.5 27t27.5 11t28 -11.5t12 -28.5q0 -11 -5.5 -20.5z" />
    <glyph glyph-name="quoteright" unicode="&#x2019;" horiz-adv-x="250" 
d="M169 858q-1 -14 -5 -26.5t-15 -29.5q-6 -8 -15.5 -17t-16.5 -9q-2 -1 -4 1.5t-2 7.5q0 4 3 12t3 13q0 8 -8 15q-9 5 -14.5 14.5t-5.5 20.5q0 17 11.5 28.5t28.5 11.5q16 0 27.5 -11t12.5 -27v-2v-2z" />
    <glyph glyph-name="cent" unicode="&#xa2;" horiz-adv-x="600" 
d="M528 304q4 -6 4 -13q0 -3 -2 -9q-38 -97 -103 -175t-159 -81l-30 -111q-2 -8 -8.5 -12.5t-13.5 -4.5q-4 0 -6 1q-10 2 -14.5 10.5t-2.5 17.5l28 104q-50 12 -83 54q-43 57 -43 146q0 50 16 112q21 79 64.5 146t99 109t111.5 49l36 134q2 8 8.5 12.5t13.5 4.5
q12 0 18.5 -9t4.5 -20l-33 -124q38 -8 57.5 -37.5t19.5 -59.5q0 -10 -6.5 -16.5t-16.5 -6.5q-9 0 -16 6.5t-7 16.5q0 15 -10 31.5t-33 21.5l-142 -528q71 10 122.5 77t84.5 150q7 14 21 14q3 0 9 -2q7 -2 11 -8zM233 75l140 522q-44 -12 -88 -51t-78 -95.5t-51 -119.5
q-14 -54 -14 -100q0 -75 33 -118q21 -28 58 -38z" />
    <glyph glyph-name="dollar" unicode="$" horiz-adv-x="500" 
d="M447.5 530q-6.5 -7 -15.5 -7q-10 -1 -17 5.5t-8 15.5q-1 12 -7 24.5t-16 22.5q-5 5 -17 12l-54 -202q37 -51 58 -95t25 -98q3 -47 -16.5 -87.5t-56 -65.5t-81.5 -27q-4 -1 -11 -1q-12 0 -18 1l-30 -113q-2 -8 -8.5 -12.5t-13.5 -4.5q-4 0 -6 1q-10 2 -14.5 10.5
t-2.5 17.5l30 113q-23 11 -42 27q-24 23 -37.5 53.5t-13.5 65.5q0 30 13 59t37 51q7 6 16 6t17 -8q6 -6 6 -16t-7 -17q-17 -16 -26.5 -35.5t-9.5 -39.5q0 -51 36 -85q7 -6 23 -16l83 307q-27 36 -41 62.5t-15 55.5q-4 55 25 99q16 22 39.5 35t51.5 14h11l33 123
q2 8 8.5 12.5t13.5 4.5q12 0 18.5 -9t4.5 -20l-32 -121q20 -9 36 -24q17 -16 26.5 -36.5t10.5 -40.5q1 -10 -5.5 -17zM278 450l44 162q-33 -3 -52 -30q-20 -28 -17 -69q1 -26 25 -63zM298 342l-72 -268h13q47 3 78.5 38t31.5 84q0 70 -51 146z" />
    <glyph glyph-name="Euro" unicode="&#x20ac;" horiz-adv-x="600" 
d="M590 299q0 -4 -2 -10q-45 -112 -120 -200t-183 -88q-43 0 -78 17t-60 50q-48 62 -48 163q0 37 8 82h-53q-11 0 -18.5 7.5t-7.5 17.5q0 11 7.5 18.5t18.5 7.5h65q5 20 19 58h-55q-10 0 -18 8t-8 18q0 11 8 18.5t18 7.5h79q52 102 131 164.5t158 62.5q40 0 66 -18t38 -44
t12 -51q0 -11 -7.5 -18t-18.5 -7t-18.5 7.5t-7.5 17.5q0 20 -15 41t-49 21q-58 0 -120.5 -48.5t-108.5 -127.5h174q11 0 18.5 -7.5t7.5 -18.5q0 -10 -7.5 -18t-18.5 -8h-201q-16 -38 -22 -58h194q11 0 18.5 -7.5t7.5 -18.5t-7.5 -18t-18.5 -7h-207q-9 -43 -9 -82
q0 -83 37 -132q37 -46 97 -46q87 0 150.5 78t104.5 178q6 16 24 16q4 0 10 -2q16 -6 16 -24z" />
    <glyph glyph-name="sterling" unicode="&#xa3;" horiz-adv-x="550" 
d="M578 590q0 -37 -20 -66t-52 -29q-9 0 -16 7t-7 17q0 9 7 16.5t16 7.5t17 14t8 33q0 27 -15 42q-18 19 -54 19q-54 0 -92 -41q-40 -51 -40 -134q0 -29 4 -56q5 -35 4 -61l52 -4q36 -4 40 -3q15 2 23 -1.5t13 -13.5q2 -6 2 -8q0 -8 -9 -13.5t-24 -5.5q-22 0 -100 6
q-7 -59 -30 -118.5t-54 -106.5h1q13 -5 22.5 -10t16.5 -8q28 -13 47.5 -20t38.5 -7q32 0 59 23q5 5 15 5q11 0 18 -8q5 -5 5 -15q0 -13 -8 -18q-39 -32 -87 -32q-28 0 -55.5 9t-62.5 25q-12 7 -26 12l-14 5q-50 -51 -107 -51q-26 0 -42 14q-15 15 -15 37q0 27 21 49t53 22
t74 -15q31 43 53.5 98t29.5 112q-58 0 -74 -16q-6 -6 -16 -6q-11 0 -17 6q-7 6 -7 17q0 10 7 17q25 25 111 25q0 29 -4 52q-5 37 -5 64q0 104 51 162q25 28 58 43.5t70 15.5q56 0 88 -34q28 -30 28 -74zM170 70q-21 6 -39 6q-12 0 -19.5 -8t-7.5 -16q0 -2 1 -3q1 0 2.5 -0.5
t6.5 -0.5q29 0 56 22z" />
    <glyph glyph-name="yen" unicode="&#xa5;" horiz-adv-x="550" 
d="M501.5 693q7.5 -7 7.5 -17t-7 -17t-17 -7q-15 -4 -48.5 -43.5t-73 -111t-72.5 -165.5h108q10 0 17 -7t7 -17t-7 -17t-17 -7h-123l-12 -41l-1 -3l-3 -10h112q10 0 17 -7t7 -17t-7 -17t-17 -7h-124l-44 -164q-2 -8 -9 -13t-15 -5q-4 0 -6 1q-10 2 -14.5 11t-2.5 18l41 152
h-116q-10 0 -17 7t-7 17t6.5 17t17.5 7h129l6 21v2l8 31h-116q-10 0 -17.5 7t-7.5 17t7.5 17t17.5 7h126q16 77 16 145q0 101 -37 151q-9 12 -18.5 18t-16.5 6q-10 0 -17 7t-7 17t7 17t17 7q20 0 39 -11t34 -31q47 -63 47 -180q49 101 101 161.5t84 60.5q10 0 17.5 -7z" />
    <glyph glyph-name="divide" unicode="&#xf7;" horiz-adv-x="500" 
d="M244 423.5q-13 12.5 -13 30.5q0 17 13 29.5t30 12.5q18 0 30 -12.5t12 -29.5q0 -18 -12 -30.5t-30 -12.5q-17 0 -30 12.5zM446 305q7 7 7 17t-7 16.5t-16 6.5h-354q-10 0 -16.5 -6t-6.5 -17t6.5 -17.5t16.5 -6.5h354q9 0 16 7zM204 160.5q-13 12.5 -13 30.5q0 17 13 29.5
t30 12.5q18 0 30 -12.5t12 -29.5q0 -18 -12 -30.5t-30 -12.5q-17 0 -30 12.5z" />
    <glyph glyph-name="equal" unicode="=" horiz-adv-x="500" 
d="M463 358q7 7 7 17t-7 16.5t-16 6.5h-354q-10 0 -16.5 -6t-6.5 -17t6.5 -17.5t16.5 -6.5h354q9 0 16 7zM443 240q7 7 7 17t-7 16.5t-16 6.5h-354q-10 0 -16.5 -6t-6.5 -17t6.5 -17.5t16.5 -6.5h354q9 0 16 7z" />
    <glyph glyph-name="greater" unicode="&#x3e;" horiz-adv-x="500" 
d="M101 -5q7 5 8 12q15 69 70.5 127.5t125.5 93t125 34.5q8 0 15.5 7.5t7.5 15.5t-7.5 15.5t-15.5 7.5q-44 0 -90 19t-74 55q-23 31 -23 66q0 16 4 31l1 5q0 7 -5 14.5t-12 9.5l-5 1q-7 0 -14 -5t-9 -13q-6 -21 -6 -42q0 -50 34 -95q33 -44 91 -69q-90 -34 -164 -105.5
t-94 -162.5q-2 -8 4.5 -17t15.5 -10h3q7 0 14 5z" />
    <glyph glyph-name="less" unicode="&#x3c;" horiz-adv-x="500" 
d="M304.5 -5q6.5 5 8.5 11q6 24 6 49q0 39 -14.5 79.5t-41.5 76.5q-34 43 -77 70q88 25 162 77.5t91 121.5q1 2 1 6q0 7 -4.5 13.5t-11.5 8.5l-5 1q-8 0 -15 -5.5t-8 -12.5q-13 -50 -69 -91.5t-124 -65t-115 -23.5q-8 0 -15.5 -7.5t-7.5 -15.5t7.5 -15.5t15.5 -7.5
q35 0 72 -22t66 -60q48 -60 48 -125q0 -19 -5 -39q-2 -9 4 -18.5t16 -10.5h2q7 0 13.5 5z" />
    <glyph glyph-name="minus" unicode="&#x2212;" horiz-adv-x="500" 
d="M443 240q7 7 7 17t-7 16.5t-16 6.5h-354q-10 0 -16.5 -6t-6.5 -17t6.5 -17.5t16.5 -6.5h354q9 0 16 7z" />
    <glyph glyph-name="multiply" unicode="&#xd7;" horiz-adv-x="600" 
d="M471 182q0 -9 -7 -15q-7 -7 -17 -7t-16 6l-119 119l-119 -119q-6 -6 -16 -6t-17 7q-7 6 -7 15q0 10 7 17l119 119l-119 119q-7 7 -7 16t8 17t16 8t16 -8l119 -119l119 119q8 8 16 8q10 0 16 -8q8 -8 8 -17t-7 -16l-119 -119l119 -119q7 -7 7 -17z" />
    <glyph glyph-name="percent" unicode="%" horiz-adv-x="650" 
d="M142 -7q0 -20 9 -31q3 -3 3 -9q0 -8 -5 -15q-5 -4 -13 -4q-9 0 -13 5q-16 19 -16 52q0 29 13 64.5t38 72.5l302 439q18 25 35.5 68.5t17.5 76.5q0 24 -12 39q-4 4 -4 11t6 13q5 5 12 5t13 -6q20 -24 20 -62q0 -43 -20.5 -91.5t-38.5 -73.5l-303 -440q-44 -65 -44 -114z
M119 419q-22 28 -22 80q0 30 7 58q17 64 56.5 109t80.5 45q22 0 40 -13.5t26 -37.5q1 -2 1 -6q0 -5 -3.5 -11t-8.5 -8h-2l2 -2q6 -7 11 -21t5 -32q0 -16 -4 -32q-9 -41 -31 -77t-50.5 -57t-55.5 -21q-31 0 -52 26zM136 495q0 -34 14 -51v-1q8 -11 21 -11q28 0 58 39t41 85
q3 14 3 23q0 17 -8 30q-4 4 -7 4q-21 0 -21 -17q0 -7 -6.5 -13t-13.5 -6t-13.5 6t-6.5 13q0 21 17.5 38.5t43.5 17.5q3 0 11 -2q-5 11 -11.5 16.5t-16.5 5.5q-26 0 -55.5 -37.5t-42.5 -87.5q-7 -27 -7 -52zM593 226q5 -14 5 -32q0 -16 -4 -32q-9 -41 -31 -77t-50.5 -57
t-55.5 -21q-31 0 -52 26q-22 28 -22 80q0 30 7 58q17 64 56.5 109t80.5 45q22 0 40 -13.5t26 -37.5q1 -2 1 -6q0 -5 -3.5 -11t-8.5 -8h-2l2 -2q6 -7 11 -21zM559 193q0 17 -8 30q-4 4 -7 4q-21 0 -21 -17q0 -7 -6.5 -13t-13.5 -6t-13.5 6t-6.5 13q0 21 17.5 38.5t43.5 17.5
q3 0 11 -2q-5 11 -11.5 16.5t-16.5 5.5q-26 0 -55.5 -37.5t-42.5 -87.5q-7 -27 -7 -52q0 -34 14 -51v-1q8 -11 21 -11q28 0 58 39t41 85q3 13 3 23z" />
    <glyph glyph-name="plus" unicode="+" horiz-adv-x="600" 
d="M500 363.5q7 -6.5 6 -16.5q0 -10 -7 -17t-16 -7h-162l-28 -159q-1 -10 -9 -16t-19 -6h-2q-10 0 -14.5 6t-2.5 16l28 159h-155q-10 0 -16 6.5t-6 17.5q-1 10 5 16.5t17 6.5h163l28 158q2 10 9.5 17t17.5 6q10 0 16 -7t4 -16l-28 -158h154q10 0 17 -6.5z" />
    <glyph glyph-name="at" unicode="@" horiz-adv-x="700" 
d="M628 379.5q14 -36.5 14 -75.5q0 -14 -1 -21q-4 -39 -24.5 -77.5t-52 -63.5t-65.5 -25q-38 0 -59 26q-9 11 -15 33q-24 -27 -53 -43t-58 -16q-20 0 -38.5 8.5t-30.5 24.5q-23 31 -23 73q0 25 7 47q16 60 60 102t93 42q20 0 39 -9.5t31 -25.5l3 -4q8 10 23 8q7 -3 12 -11
t4 -16l-22 -82q-8 -32 -8 -60q0 -30 10 -43q4 -6 10 -8t15 -2q24 0 47 23t37.5 57.5t14.5 65.5q0 61 -44 110q-28 31 -67.5 47t-85.5 16q-63 0 -121 -31.5t-96.5 -85t-47.5 -116.5q-3 -18 -3 -36q0 -73 47 -126q56 -65 151 -65q47 0 91.5 17t82.5 50q4 5 14 5q13 0 17 -7
q5 -5 5 -14q0 -11 -6 -17q-44 -38 -97 -58.5t-107 -20.5q-55 0 -103 21t-82 60q-28 32 -42.5 72.5t-14.5 84.5q0 20 3 41q10 73 55.5 135t113 99t140.5 37q55 0 104 -21t83 -59q26 -29 40 -65.5zM429 305q0 31 -13 48q-12 17 -34 17q-33 0 -66 -32.5t-44 -77.5
q-5 -16 -5 -36q0 -27 13 -47q13 -16 34 -16q33 0 66 32.5t45 76.5q4 16 4 35z" />
    <glyph glyph-name="ampersand" unicode="&#x26;" horiz-adv-x="650" 
d="M582 493q0 -23 -10.5 -47.5t-31.5 -45.5q-12 -12 -23 -18q29 -21 44.5 -54.5t15.5 -76.5q0 -49 -29.5 -108.5t-85.5 -101t-133 -41.5q-69 0 -127.5 34t-92.5 92.5t-34 127.5q0 90 52.5 158.5t141.5 97.5q-37 26 -57 68.5t-20 96.5q0 61 30.5 112.5t81.5 82t112 30.5
q59 0 99.5 -21.5t60.5 -56.5t20 -74q0 -40 -18.5 -69t-47 -44t-57.5 -15t-52 14t-31 38q-1 2 -1 7q0 8 4.5 15t12.5 10q2 1 8 1q8 0 15 -4.5t9 -12.5q3 -8 13 -12.5t23 -4.5q7 0 11 1q25 4 42.5 23t17.5 53q0 42 -31.5 71.5t-97.5 29.5q-47 0 -87 -23.5t-63.5 -63.5
t-23.5 -87q0 -69 37.5 -108t104.5 -39q10 0 17.5 -7.5t7.5 -18.5t-7 -18t-18 -7q-74 0 -133 -29t-92 -79.5t-33 -114.5q0 -55 27.5 -101.5t74 -74t101.5 -27.5q64 0 108.5 35t66.5 82.5t22 82.5q0 43 -17 67.5t-42 34.5q-21 8 -42 8q-20 0 -38 -6.5t-29 -17.5
q-27 -27 -27 -57q0 -13 4 -21q7 -15 14 -15q10 0 17.5 -7.5t7.5 -18.5t-7 -18t-18 -7q-19 0 -35.5 12.5t-24.5 34.5q-8 19 -8 41q0 51 42 92q18 19 45.5 29t57.5 10h5q22 -2 41.5 4.5t31.5 19.5q27 27 27 57q0 13 -4 21q-7 15 -14 15q-10 0 -17.5 7.5t-7.5 18.5t7.5 18
t17.5 7q19 0 35.5 -12.5t25.5 -34.5q8 -18 8 -40z" />
    <glyph glyph-name="copyright" unicode="&#xa9;" horiz-adv-x="900" 
d="M583.5 27q87.5 47 146.5 128t72 176q4 23 4 52q0 57 -19 109t-55 94q-44 50 -106 77t-132 27q-95 0 -182.5 -47.5t-146.5 -128t-73 -175.5q-3 -24 -3 -48q0 -120 75 -207q43 -50 104.5 -77t132.5 -27q95 0 182.5 47zM608 621q52 -22 89 -65q63 -72 63 -174q0 -20 -3 -43
q-12 -85 -64 -157t-129.5 -114t-162.5 -42q-62 0 -114.5 22.5t-89.5 65.5q-62 74 -62 173q0 22 3 44q12 85 64 156.5t129.5 113.5t162.5 42q62 0 114 -22zM530.5 150.5q53.5 62.5 83.5 140.5q2 4 2 7q0 7 -4 13.5t-11 8.5q-3 1 -8 1q-7 0 -13 -3.5t-8 -10.5
q-29 -69 -71.5 -121t-101.5 -52q-39 0 -62 29q-25 33 -25 89q0 36 11 78q15 55 46.5 102.5t70 75.5t74.5 28q22 0 31 -12.5t9 -24.5q0 -23 -22 -34q-10 -4 -16 -4q-12 0 -22 9q-6 5 -16 5t-16 -7q-6 -6 -6 -16q0 -11 7 -16q22 -19 53 -19q20 0 35 7q23 10 36 30t13 45
q0 29 -21.5 56t-64.5 27q-47 0 -95 -32t-85.5 -87.5t-55.5 -122.5q-12 -46 -12 -88q0 -73 34 -116q39 -48 99 -48q78 0 131.5 62.5z" />
    <glyph glyph-name="registered" unicode="&#xae;" horiz-adv-x="900" 
d="M590.5 27.5q87.5 47.5 146.5 128.5t72 176q3 26 3 50q0 58 -18.5 110.5t-54.5 93.5q-44 50 -105.5 77t-132.5 27q-95 0 -183 -47.5t-147 -128.5t-72 -176q-3 -24 -3 -49q0 -58 19 -110.5t55 -94.5q43 -50 105 -77t133 -27q95 0 182.5 47.5zM614 621.5q52 -22.5 90 -65.5
q63 -74 63 -175q0 -20 -3 -43q-12 -85 -64.5 -156.5t-129.5 -113.5t-162 -42q-62 0 -114 22.5t-89 65.5q-63 74 -63 174q0 22 3 44q12 85 64 156.5t129.5 113.5t162.5 42q61 0 113 -22.5zM535 96.5q6 3.5 9 9.5q2 6 2 9q0 7 -3.5 13t-9.5 8q-12 7 -16.5 19t-4.5 32
q0 10 2 38q2 24 2 36q0 36 -13 58q51 18 81 57t30 83q0 30 -16.5 57t-49.5 44t-81 17q-50 0 -88 -11q-9 -2 -14 -10.5t-3 -18.5q3 -8 11.5 -12.5t16.5 -2.5q32 9 77 9q52 0 76.5 -21t24.5 -51q0 -41 -34 -70q-40 -36 -106 -36q-9 0 -16 -7t-7 -16t7 -16t16 -7q24 0 33 -9
q9 -10 9 -35q0 -10 -2 -36q-2 -24 -2 -38q0 -32 10 -55.5t37 -37.5q3 -3 10 -3q6 0 12 3.5zM336 153q13 18 20.5 37.5t15.5 47.5q22 76 50 188l11 43l1 5q0 8 -5 14.5t-12 8.5l-5 1q-8 0 -14.5 -5t-8.5 -13l-12 -43l-9 -34l-40 -153q-14 -49 -29 -70q-4 -5 -4 -13
q0 -13 9 -19q5 -4 14 -4q12 0 18 9z" />
    <glyph glyph-name="trademark" unicode="&#x2122;" horiz-adv-x="1400" 
d="M1341 -37q6 2 10 7.5t4 11.5q0 2 -2 8q-13 35 -13 82q0 44 10 88l56 271q10 44 10 85q0 76 -35 116q-30 36 -82 36q-113 0 -201 -168q7 41 7 80q0 84 -35 125q-28 33 -73 33q-112 0 -201 -165l13 62q6 32 6 59q0 58 -26 99t-75 58q-34 12 -71 12q-68 0 -130 -33t-87 -84
q-3 -4 -3 -10q0 -12 12 -19q5 -3 10 -3q12 0 19 12q21 40 72.5 66.5t106.5 26.5q29 0 56 -9q36 -13 54.5 -43t18.5 -74q0 -26 -5 -49l-75 -351q-26 -96 -36 -155.5t-11 -62.5v-2q0 -8 5.5 -14.5t12.5 -7.5h4q8 0 14 4.5t7 12.5l47 218q47 173 113 291t149 118q25 0 40 -18
q25 -30 25 -96q-2 -49 -13 -105l-57 -277q-15 -60 -22 -105v-4q0 -8 5 -14t13 -7h4q7 0 13 4.5t8 12.5l22 109q42 171 108.5 300.5t154.5 129.5q33 0 50 -21q25 -28 25 -88q0 -34 -9 -76l-56 -271q-11 -53 -11 -97q0 -56 16 -97q5 -14 20 -14q2 0 8 2zM273 62
q75 64 109 151.5t66 223.5q30 127 53 181q62 -14 136 -14q47 0 78.5 24t31.5 60q0 37 -30.5 60.5t-79.5 23.5q-56 0 -95 -27t-66 -77q-36 11 -73.5 26t-70.5 30q-53 24 -87.5 36t-69.5 12q-51 0 -79.5 -23t-28.5 -65q0 -32 25 -58.5t62 -26.5q9 0 15.5 6.5t6.5 15.5
t-6.5 15.5t-15.5 6.5q-21 0 -32 13.5t-11 27.5q0 45 64 45q29 0 60.5 -11t78.5 -33q84 -39 144 -56q-15 -36 -26.5 -78t-25.5 -104q-32 -134 -62.5 -214.5t-95.5 -136t-177 -55.5q-9 0 -15.5 -6.5t-6.5 -15.5t6.5 -15t15.5 -6q127 0 202 64zM570 711.5q28 17.5 67 17.5
q27 0 46.5 -10.5t19.5 -30.5q0 -17 -19 -29t-47 -12q-62 0 -117 11q22 36 50 53.5z" />
    <glyph glyph-name="asciicircum" unicode="^" horiz-adv-x="600" 
d="M193 360.5q71 44.5 118 124.5q10 -33 36 -66q39 -48 101 -73.5t116 -25.5q10 0 17 7.5t7 17.5t-7 17t-17 7q-41 0 -93.5 20.5t-85.5 60.5q-35 43 -35 98q0 22 4 39q2 10 -3.5 18t-15.5 10l-6 1q-8 0 -14.5 -5t-8.5 -13q-32 -106 -104 -169.5t-162 -63.5q-10 0 -17 -7
t-7 -17t7 -17.5t17 -7.5q82 0 153 44.5z" />
    <glyph glyph-name="dcroat" unicode="&#x111;" horiz-adv-x="600" 
d="M656.5 264.5q5.5 -8.5 3.5 -19.5q-19 -78 -60 -161.5t-122 -83.5q-55 0 -85 39q-25 32 -30 86q-41 -57 -95 -91t-109 -34q-34 0 -63 14t-49 40q-37 49 -37 123q0 37 11 79q18 67 58.5 123t93.5 88t107 32q34 0 63 -14t49 -40q9 -12 20 -33l59 225q26 107 71 210t104 103
q35 0 50 -26q10 -16 10 -41q0 -54 -42.5 -150t-143.5 -291l-102 -199q-8 -46 -8 -85q0 -61 21 -89q17 -21 47 -21q34 0 62 36.5t46 84.5t26 86q2 11 10.5 16t18.5 3q10 -1 15.5 -9.5zM581.5 815q-38.5 -86 -63.5 -190l-43 -163l1 2q86 166 134 270t48 148q0 10 -3 16
q-3 3 -9 3q-26 0 -64.5 -86zM244.5 77.5q43.5 28.5 77.5 76t49 102.5q9 35 9 66q0 59 -27 93q-28 36 -73 36q-42 0 -85.5 -28.5t-77.5 -76t-49 -103.5q-9 -34 -9 -66q0 -58 27 -93t73 -35q42 0 85.5 28.5zM683 623h-294q-10 0 -16.5 6.5t-6.5 17.5t6.5 17t16.5 6h294
q9 0 16 -6.5t7 -16.5t-7 -17t-16 -7z" />
    <glyph glyph-name="Dcroat" unicode="&#x110;" horiz-adv-x="1000" 
d="M834 814q48 -58 73 -138t25 -176q0 -157 -65 -321t-172 -271.5t-227 -107.5q-54 0 -102.5 22.5t-80.5 62.5q-46 54 -46 133q0 26 6 56q-15 3 -37 12q-97 40 -152.5 132.5t-55.5 211.5q0 170 72.5 287t188 175t243.5 58q218 0 330 -136zM375 343l-61 -224q51 -2 99.5 17
t86.5 57q9 9 20 9q12 0 19 -9q8 -7 8 -19t-8 -20q-45 -44 -101 -67.5t-115 -23.5q-16 0 -24 1v-2q-4 -19 -4 -42q0 -59 33 -101q25 -30 62 -47t78 -17q104 0 198.5 100t152 251.5t57.5 293.5q0 87 -21.5 158t-63.5 121q-95 116 -287 116q-146 0 -247.5 -67t-151.5 -173.5
t-50 -224.5q0 -101 47 -180t128 -112q16 -7 29 -11l59 216h-109q-10 0 -16.5 6.5t-6.5 17.5t6.5 17t16.5 6h122l81 296q2 8 9.5 13.5t15.5 5.5q5 0 8 -1q11 -3 17 -12.5t3 -20.5l-77 -281h115q9 0 16 -6.5t7 -16.5t-7 -17t-16 -7h-128zM331 390h57l-13 -47h-57z" />
    <glyph glyph-name="Itilde" unicode="&#x128;" horiz-adv-x="550" 
d="M594 933q2 -6 2 -9q0 -7 -3 -13l-181 -673q-33 -122 -70 -210.5t-115 -157.5t-201 -69q-11 0 -18 7t-7 18q0 10 7.5 17.5t17.5 7.5q106 0 173 61.5t100.5 142.5t63.5 196l7 24l156 580l-2 1q-46 -27 -94 -27q-32 0 -60 9.5t-66 28.5q-34 16 -55 24t-43 8q-36 0 -61 -29
q-11 -13 -17 -30.5t-6 -34.5q0 -26 17.5 -51t69.5 -25q11 0 18 -7t7 -18t-7 -18t-18 -7q-66 0 -101.5 37t-35.5 89q0 36 17 69t47.5 54t69.5 21q30 0 57.5 -10t63.5 -28q37 -17 58.5 -25t44.5 -8q28 0 56.5 13.5t63.5 45.5q9 12 21 12q17 -2 23 -16zM629 976q-7 0 -9 1
q-15 2 -30.5 8.5t-30.5 14.5q-16 9 -29.5 14t-25 5.5t-22 -4.5t-22.5 -20q-7 -7 -17.5 -9t-18.5 6q-19 16 -2 36q37 46 88 43q21 -2 38.5 -10l34.5 -16q30 -16 43 -17.5t26 14.5q6 8 17 10t19 -6q7 -6 9.5 -16t-4.5 -19q-26 -35 -64 -35z" />
    <glyph glyph-name="Utilde" unicode="&#x168;" horiz-adv-x="1150" 
d="M1261 704q8 -8 8 -18q0 -11 -7.5 -19t-18.5 -8q-38 0 -67 -42t-49.5 -102t-48.5 -160l-18 -66l-3 -10q-67 -235 -67 -340q0 -51 17 -70q8 -8 8 -18q0 -11 -8 -19q-7 -7 -18 -7t-19 7q-32 33 -32 111q0 62 19 149q-61 -99 -132 -154.5t-157 -55.5q-100 0 -154 71
q-53 68 -53 186q-51 -16 -107 -16q-81 0 -149 31.5t-114 91.5q-36 46 -54.5 104t-18.5 123q0 57 15 117q32 122 115.5 213.5t192.5 121.5q40 12 79 12q87 0 144 -55q67 -65 67 -188q0 -69 -23 -157l-73 -238q-9 -34 -16 -79q74 39 132 103.5t83 144.5q2 8 9 13t15 5
q14 0 22 -11t4 -23q-30 -95 -103 -173.5t-167 -120.5q-5 -114 41 -173q40 -51 113 -51q83 0 152.5 69.5t113.5 153t86 183.5q35 126 60 196.5t65.5 123t97.5 52.5q10 0 18 -8zM484 313l74 238q20 80 20 141q0 103 -51 152q-40 40 -107 40q-31 0 -65 -9q-55 -15 -109.5 -55
t-98 -102t-63.5 -141q-14 -54 -14 -104q0 -55 16 -105t47 -90q38 -50 95 -76.5t126 -26.5q53 0 110 21q4 51 20 117zM979 761q-7 0 -9 1q-15 2 -30.5 8.5t-30.5 14.5q-16 9 -29.5 14t-25 5.5t-22 -4.5t-22.5 -20q-7 -7 -17.5 -9t-18.5 6q-19 16 -2 36q37 46 88 43
q21 -2 38.5 -10l34.5 -16q30 -16 43 -17.5t26 14.5q6 8 17 10t19 -6q7 -6 9.5 -16t-4.5 -19q-26 -35 -64 -35z" />
    <glyph glyph-name="utilde" unicode="&#x169;" horiz-adv-x="498" 
d="M552 266.5q7 -9.5 5 -20.5q-13 -44 -32 -92t-62 -100.5t-103 -52.5q-55 0 -85 39q-17 24 -24 64q-61 -103 -139 -103q-55 0 -84 39q-28 37 -28 108q0 44 9 87t15 61l49 185q3 10 11.5 15t18.5 3q10 -3 15 -11.5t2 -18.5l-49 -186q-8 -26 -15 -64t-7 -73q0 -52 18 -77
q15 -20 45 -20q51 0 90.5 67t58.5 137q5 28 11 43l49 185q3 10 11.5 15t18.5 3q10 -3 15 -11.5t2 -18.5l-49 -186q-8 -26 -15 -64t-7 -73q0 -52 18 -77q15 -20 45 -20q36 0 67.5 37t52 85t30.5 87q2 8 8.5 13t14.5 5q12 0 19 -9.5zM314 548q-7 0 -9 1q-15 2 -30.5 8.5
t-30.5 14.5q-16 9 -29.5 14t-25 5.5t-22 -4.5t-22.5 -20q-7 -7 -17.5 -9t-18.5 6q-19 16 -2 36q37 46 88 43q21 -2 38.5 -10l34.5 -16q30 -16 43 -17.5t26 14.5q6 8 17 10t19 -6q7 -6 9.5 -16t-4.5 -19q-26 -35 -64 -35z" />
    <glyph glyph-name="Ohorn" unicode="&#x1a0;" horiz-adv-x="800" 
d="M792 738q1 -11 1 -22q0 -14 -1 -21q-1 -10 -0.5 -25t-5 -92.5t-11.5 -132.5q-9 -91 -37.5 -190.5t-79.5 -185.5q-68 -113 -155 -174t-182 -61q-61 0 -113 23.5t-92 69.5q-46 55 -70.5 133.5t-24.5 170.5q0 74 14 143q33 160 110 288.5t183 205t223 83.5q49 4 95.5 -14.5
t82.5 -56.5q27 -28 42 -64q24 -28 44 -35q18 -7 40 8q29 20 33 57.5t-11 75.5q-4 9 0.5 18.5t14.5 13.5q10 3 19 -1t12 -14q10 -23 9.5 -89.5t-49.5 -100.5q-20 -14 -41.5 -17.5t-41.5 3.5q-4 1 -8 3zM743 701q1 5 1 16q0 34 -13.5 67.5t-37.5 61.5q-28 29 -64.5 44
t-74.5 12q-107 -7 -203 -77.5t-166.5 -190.5t-101.5 -270q-13 -66 -13 -134q0 -84 21 -153.5t61 -116.5q34 -37 77 -56.5t92 -19.5q99 0 173.5 64.5t121.5 145.5q48 81 74.5 174t33.5 174q15 138 16.5 193.5t2.5 65.5z" />
    <glyph glyph-name="ohorn" unicode="&#x1a1;" horiz-adv-x="510" 
d="M265 360q-13 -37 -13 -75q0 -42 13.5 -83t30.5 -51q33 46 53.5 108t20.5 116q0 36 -10 56q-7 13 -19 13q-21 0 -42 -23.5t-34 -60.5zM406 453q16 -31 16 -78q0 -56 -22.5 -126t-54.5 -119q15 -5 34 -5q48 0 84.5 40.5t51.5 112.5q6 23 26 23q21 0 21 -28q0 -9 -1 -14
q-17 -88 -71 -135.5t-120 -47.5q-29 0 -56 9q-29 -42 -71.5 -63.5t-83.5 -21.5q-35 0 -66 17.5t-53 46.5q-39 51 -39 129q0 45 11 85q23 82 78 149t123 94q6 2 9 2q17 0 25 -17q2 -6 2 -9q0 -8 -5 -14.5t-12 -9.5q-57 -23 -104 -80.5t-66 -128.5q-10 -34 -10 -71
q0 -60 29 -98q35 -44 78 -44q30 0 61.5 15t46.5 42q-28 23 -47.5 70t-19.5 107q0 50 19 99t51.5 80.5t70.5 31.5q13 0 25 -4q13 1 30 9q40 18 18 77q-4 9 0.5 18.5t14.5 13.5q10 3 19 -1t12 -14q26 -101 -35 -134q-10 -5 -19 -8z" />
    <glyph glyph-name="Uhorn" unicode="&#x1af;" horiz-adv-x="1150" 
d="M484 313l74 238q20 80 20 141q0 103 -51 152q-40 40 -107 40q-31 0 -65 -9q-55 -15 -109.5 -55t-98 -102t-63.5 -141q-14 -54 -14 -104q0 -55 16 -105t47 -90q38 -50 95 -76.5t126 -26.5q53 0 110 21q4 51 20 117zM1218 654q-23 -9 -42 -37q-29 -42 -49.5 -102
t-48.5 -160l-18 -66l-3 -10q-67 -235 -67 -340q0 -51 17 -70q8 -8 8 -18q0 -11 -8 -19q-7 -7 -18 -7t-19 7q-32 33 -32 111q0 62 19 149q-61 -99 -132 -154.5t-157 -55.5q-100 0 -154 71q-53 68 -53 186q-51 -16 -107 -16q-81 0 -149 31.5t-114 91.5q-36 46 -54.5 104
t-18.5 123q0 57 15 117q32 122 115.5 213.5t192.5 121.5q40 12 79 12q87 0 144 -55q67 -65 67 -188q0 -69 -23 -157l-73 -238q-9 -34 -16 -79q74 39 132 103.5t83 144.5q2 8 9 13t15 5q14 0 22 -11t4 -23q-30 -95 -103 -173.5t-167 -120.5q-5 -114 41 -173q40 -51 113 -51
q83 0 152.5 69.5t113.5 153t86 183.5q35 126 60 196.5t65.5 123t97.5 52.5q10 0 18 -8t8 -18q10 -21 21 -25q18 -7 40 8q29 20 33 57.5t-11 75.5q-4 9 0.5 18.5t14.5 13.5q10 3 19 -1t12 -14q10 -23 9.5 -89.5t-49.5 -100.5q-20 -14 -41.5 -17.5t-41.5 3.5q-29 8 -57 39z
" />
    <glyph glyph-name="uhorn" unicode="&#x1b0;" horiz-adv-x="498" 
d="M362 447l-43 -164q-8 -26 -15 -64t-7 -73q0 -52 18 -77q15 -20 45 -20q36 0 67.5 37t52 85t30.5 87q2 8 8.5 13t14.5 5q12 0 19 -9.5t5 -20.5q-13 -44 -32 -92t-62 -100.5t-103 -52.5q-55 0 -85 39q-17 24 -24 64q-61 -103 -139 -103q-55 0 -84 39q-28 37 -28 108
q0 44 9 87t15 61l49 185q3 10 11.5 15t18.5 3q10 -3 15 -11.5t2 -18.5l-49 -186q-8 -26 -15 -64t-7 -73q0 -52 18 -77q15 -20 45 -20q51 0 90.5 67t58.5 137q5 28 11 43l49 185q3 10 11.5 15t18.5 3q4 -1 7 -3q15 -1 34 9q40 18 18 77q-4 9 0.5 18.5t14.5 13.5q10 3 19 -1
t12 -14q26 -101 -35 -134q-27 -13 -48 -16q-6 -1 -11 -2z" />
    <glyph glyph-name="uni1EA0" unicode="&#x1ea0;" horiz-adv-x="1650" 
d="M1650 913q27 -35 27 -105q0 -37 -6.5 -71.5t-11.5 -52.5l-48 -179q18 1 29 -5t11 -16q0 -12 -14.5 -21.5t-39.5 -9.5l-113 -422l-1 -3q-1 -9 -8 -14t-16 -5q-13 0 -21 10.5t-4 21.5v1q8 29 18.5 94.5t10.5 141.5q0 84 -16 148q-11 -3 -31 -7q-98 -22 -164.5 -34
t-124.5 -12l-31 1q-103 -159 -194.5 -270t-206 -183t-247.5 -72q-105 0 -191 33.5t-147 98.5q-53 57 -81.5 132t-28.5 158q0 81 26.5 154.5t75.5 131.5q56 64 132 97t167 33q55 0 105 -25t80.5 -66t30.5 -87q0 -11 -7 -18.5t-18 -7.5t-18.5 7.5t-7.5 18.5q0 32 -23.5 61.5
t-61.5 47.5t-80 18q-110 0 -189.5 -52t-120 -135.5t-40.5 -177.5q0 -73 24.5 -139t71.5 -116q53 -57 129.5 -86.5t171.5 -29.5q118 0 221.5 65.5t189.5 168.5t180 248q-78 15 -123.5 57.5t-45.5 102.5q0 51 32 89t90.5 59t136.5 21q59 0 114 -13q87 122 165 186.5t165 64.5
q49 0 77 -36zM1437 842q-67 -56 -142 -160q83 -32 136 -101q30 -39 51 -95q60 11 75 13l53 199q16 58 16 112q0 49 -17 72q-11 16 -36 16q-69 0 -136 -56zM983 630.5q-62 -28.5 -62 -88.5q0 -47 41.5 -75.5t106.5 -37.5l42 65q60 98 101 158q-36 7 -83 7q-84 0 -146 -28.5z
M1154 467l-27 -42q54 0 119 11.5t159 32.5l26 6q-14 39 -41 75q-49 63 -125 89q-37 -54 -111 -172zM1497 436q11 -47 16 -100l29 109q-24 -3 -45 -9zM1088 -187q-19 19 -19 44q0 26 18.5 44t44.5 18t44 -18t18 -44t-18 -44.5t-44 -18.5q-25 0 -44 19z" />
    <glyph glyph-name="uni1EA1" unicode="&#x1ea1;" horiz-adv-x="575" 
d="M642 263.5q5 -8.5 2 -18.5q-5 -24 -27.5 -81.5t-66 -110.5t-103.5 -53q-24 0 -43.5 9.5t-32.5 26.5q-22 28 -25 80q-41 -54 -93 -85t-104 -31q-34 0 -63 14t-49 40q-37 47 -37 122q0 36 11 80q18 68 58.5 123.5t93.5 88t107 32.5q34 0 63 -14t49 -40q14 -19 20 -35l5 17
q2 10 11 15t19 3q10 -3 15 -11.5t2 -18.5l-39 -147q-9 -28 -15 -64.5t-6 -68.5q0 -50 16 -71q11 -16 37 -16q36 0 67.5 37t52 84.5t30.5 86.5q2 10 11 15t19 3q10 -3 15 -11.5zM234.5 77.5q43.5 28.5 77.5 75.5t49 102l2 9q7 28 7 59q0 58 -27 93q-26 35 -73 35
q-42 0 -85.5 -28.5t-77.5 -76t-49 -102.5q-9 -34 -9 -67q0 -57 27 -93q27 -35 73 -35q42 0 85.5 28.5zM163 -187q-19 19 -19 44q0 26 18.5 44t44.5 18t44 -18t18 -44t-18 -44.5t-44 -18.5q-25 0 -44 19z" />
    <glyph glyph-name="uni1EA2" unicode="&#x1ea2;" horiz-adv-x="1650" 
d="M1650 913q27 -35 27 -105q0 -37 -6.5 -71.5t-11.5 -52.5l-48 -179q18 1 29 -5t11 -16q0 -12 -14.5 -21.5t-39.5 -9.5l-113 -422l-1 -3q-1 -9 -8 -14t-16 -5q-13 0 -21 10.5t-4 21.5v1q8 29 18.5 94.5t10.5 141.5q0 84 -16 148q-11 -3 -31 -7q-98 -22 -164.5 -34
t-124.5 -12l-31 1q-103 -159 -194.5 -270t-206 -183t-247.5 -72q-105 0 -191 33.5t-147 98.5q-53 57 -81.5 132t-28.5 158q0 81 26.5 154.5t75.5 131.5q56 64 132 97t167 33q55 0 105 -25t80.5 -66t30.5 -87q0 -11 -7 -18.5t-18 -7.5t-18.5 7.5t-7.5 18.5q0 32 -23.5 61.5
t-61.5 47.5t-80 18q-110 0 -189.5 -52t-120 -135.5t-40.5 -177.5q0 -73 24.5 -139t71.5 -116q53 -57 129.5 -86.5t171.5 -29.5q118 0 221.5 65.5t189.5 168.5t180 248q-78 15 -123.5 57.5t-45.5 102.5q0 51 32 89t90.5 59t136.5 21q59 0 114 -13q87 122 165 186.5t165 64.5
q49 0 77 -36zM1437 842q-67 -56 -142 -160q83 -32 136 -101q30 -39 51 -95q60 11 75 13l53 199q16 58 16 112q0 49 -17 72q-11 16 -36 16q-69 0 -136 -56zM983 630.5q-62 -28.5 -62 -88.5q0 -47 41.5 -75.5t106.5 -37.5l42 65q60 98 101 158q-36 7 -83 7q-84 0 -146 -28.5z
M1154 467l-27 -42q54 0 119 11.5t159 32.5l26 6q-14 39 -41 75q-49 63 -125 89q-37 -54 -111 -172zM1497 436q11 -47 16 -100l29 109q-24 -3 -45 -9zM2443 976q-5 0 -6 1q-6 0 -11 5.5t-5 12.5q0 4 1 7q4 10 16.5 24t20 21t9.5 14q2 5 2 8q0 4 -2 6q-3 3 -14 3
q-12 0 -20 -5.5t-19 -23.5q-1 -5 -7.5 -8.5t-13.5 -3.5q-9 0 -15.5 5.5t-6.5 12.5q0 5 1 7q1 4 9.5 17t26.5 25t45 12q15 0 27.5 -4t21.5 -13q12 -12 12 -30q0 -9 -4 -19q-5 -14 -15.5 -24.5l-19 -19t-12.5 -17.5q-2 -6 -8 -9.5t-13 -3.5z" />
    <glyph glyph-name="uni1EA3" unicode="&#x1ea3;" horiz-adv-x="575" 
d="M642 263.5q5 -8.5 2 -18.5q-5 -24 -27.5 -81.5t-66 -110.5t-103.5 -53q-24 0 -43.5 9.5t-32.5 26.5q-22 28 -25 80q-41 -54 -93 -85t-104 -31q-34 0 -63 14t-49 40q-37 47 -37 122q0 36 11 80q18 68 58.5 123.5t93.5 88t107 32.5q34 0 63 -14t49 -40q14 -19 20 -35l5 17
q2 10 11 15t19 3q10 -3 15 -11.5t2 -18.5l-39 -147q-9 -28 -15 -64.5t-6 -68.5q0 -50 16 -71q11 -16 37 -16q36 0 67.5 37t52 84.5t30.5 86.5q2 10 11 15t19 3q10 -3 15 -11.5zM234.5 77.5q43.5 28.5 77.5 75.5t49 102l2 9q7 28 7 59q0 58 -27 93q-26 35 -73 35
q-42 0 -85.5 -28.5t-77.5 -76t-49 -102.5q-9 -34 -9 -67q0 -57 27 -93q27 -35 73 -35q42 0 85.5 28.5zM886 537q-5 0 -6 1q-6 0 -11 5.5t-5 12.5q0 4 1 7q4 10 16.5 24t20 21t9.5 14q2 5 2 8q0 4 -2 6q-3 3 -14 3q-12 0 -20 -5.5t-19 -23.5q-1 -5 -7.5 -8.5t-13.5 -3.5
q-9 0 -15.5 5.5t-6.5 12.5q0 5 1 7q1 4 9.5 17t26.5 25t45 12q15 0 27.5 -4t21.5 -13q12 -12 12 -30q0 -9 -4 -19q-5 -14 -15.5 -24.5l-19 -19t-12.5 -17.5q-2 -6 -8 -9.5t-13 -3.5z" />
    <glyph glyph-name="uni1EA4" unicode="&#x1ea4;" horiz-adv-x="1650" 
d="M1650 913q27 -35 27 -105q0 -37 -6.5 -71.5t-11.5 -52.5l-48 -179q18 1 29 -5t11 -16q0 -12 -14.5 -21.5t-39.5 -9.5l-113 -422l-1 -3q-1 -9 -8 -14t-16 -5q-13 0 -21 10.5t-4 21.5v1q8 29 18.5 94.5t10.5 141.5q0 84 -16 148q-11 -3 -31 -7q-98 -22 -164.5 -34
t-124.5 -12l-31 1q-103 -159 -194.5 -270t-206 -183t-247.5 -72q-105 0 -191 33.5t-147 98.5q-53 57 -81.5 132t-28.5 158q0 81 26.5 154.5t75.5 131.5q56 64 132 97t167 33q55 0 105 -25t80.5 -66t30.5 -87q0 -11 -7 -18.5t-18 -7.5t-18.5 7.5t-7.5 18.5q0 32 -23.5 61.5
t-61.5 47.5t-80 18q-110 0 -189.5 -52t-120 -135.5t-40.5 -177.5q0 -73 24.5 -139t71.5 -116q53 -57 129.5 -86.5t171.5 -29.5q118 0 221.5 65.5t189.5 168.5t180 248q-78 15 -123.5 57.5t-45.5 102.5q0 51 32 89t90.5 59t136.5 21q59 0 114 -13q87 122 165 186.5t165 64.5
q49 0 77 -36zM1437 842q-67 -56 -142 -160q83 -32 136 -101q30 -39 51 -95q60 11 75 13l53 199q16 58 16 112q0 49 -17 72q-11 16 -36 16q-69 0 -136 -56zM983 630.5q-62 -28.5 -62 -88.5q0 -47 41.5 -75.5t106.5 -37.5l42 65q60 98 101 158q-36 7 -83 7q-84 0 -146 -28.5z
M1154 467l-27 -42q54 0 119 11.5t159 32.5l26 6q-14 39 -41 75q-49 63 -125 89q-37 -54 -111 -172zM1497 436q11 -47 16 -100l29 109q-24 -3 -45 -9zM1454 976q-8 0 -14 6t-6 15q0 8 6 14t14 6q38 0 68.5 27t44.5 73q2 6 7.5 10.5t13.5 4.5l3 -1q9 -1 13.5 -8t3.5 -16
q-2 -7 -2 -16q0 -21 14 -39q13 -16 35.5 -24.5t39.5 -8.5q8 0 14 -6t6 -15q0 -8 -6 -14t-14 -6q-27 0 -57.5 12t-49.5 36q-13 17 -12 13q-12 -20 -46.5 -41.5t-75.5 -21.5zM1681 1068q-3 1 -4 2q-7 5 -9 12t1 13q2 4 5 6l88 87q5 6 14.5 6t17.5 -6q7 -6 8.5 -14t-4.5 -15
l-90 -89q-5 -5 -12.5 -5.5t-14.5 3.5z" />
    <glyph glyph-name="uni1EA5" unicode="&#x1ea5;" horiz-adv-x="575" 
d="M642 263.5q5 -8.5 2 -18.5q-5 -24 -27.5 -81.5t-66 -110.5t-103.5 -53q-24 0 -43.5 9.5t-32.5 26.5q-22 28 -25 80q-41 -54 -93 -85t-104 -31q-34 0 -63 14t-49 40q-37 47 -37 122q0 36 11 80q18 68 58.5 123.5t93.5 88t107 32.5q34 0 63 -14t49 -40q14 -19 20 -35l5 17
q2 10 11 15t19 3q10 -3 15 -11.5t2 -18.5l-39 -147q-9 -28 -15 -64.5t-6 -68.5q0 -50 16 -71q11 -16 37 -16q36 0 67.5 37t52 84.5t30.5 86.5q2 10 11 15t19 3q10 -3 15 -11.5zM234.5 77.5q43.5 28.5 77.5 75.5t49 102l2 9q7 28 7 59q0 58 -27 93q-26 35 -73 35
q-42 0 -85.5 -28.5t-77.5 -76t-49 -102.5q-9 -34 -9 -67q0 -57 27 -93q27 -35 73 -35q42 0 85.5 28.5zM202 533q-8 0 -14 6t-6 15q0 8 6 14t14 6q38 0 68.5 27t44.5 73q2 6 7.5 10.5t13.5 4.5l3 -1q9 -1 13.5 -8t3.5 -16q-2 -7 -2 -16q0 -21 14 -39q13 -16 35.5 -24.5
t39.5 -8.5q8 0 14 -6t6 -15q0 -8 -6 -14t-14 -6q-27 0 -57.5 12t-49.5 36q-13 17 -12 13q-12 -20 -46.5 -41.5t-75.5 -21.5zM411 629q-3 1 -4 2q-7 5 -9 12t1 13q2 4 5 6l88 87q5 6 14.5 6t17.5 -6q7 -6 8.5 -14t-4.5 -15l-90 -89q-5 -5 -12.5 -5.5t-14.5 3.5z" />
    <glyph glyph-name="uni1EA6" unicode="&#x1ea6;" horiz-adv-x="1650" 
d="M1650 913q27 -35 27 -105q0 -37 -6.5 -71.5t-11.5 -52.5l-48 -179q18 1 29 -5t11 -16q0 -12 -14.5 -21.5t-39.5 -9.5l-113 -422l-1 -3q-1 -9 -8 -14t-16 -5q-13 0 -21 10.5t-4 21.5v1q8 29 18.5 94.5t10.5 141.5q0 84 -16 148q-11 -3 -31 -7q-98 -22 -164.5 -34
t-124.5 -12l-31 1q-103 -159 -194.5 -270t-206 -183t-247.5 -72q-105 0 -191 33.5t-147 98.5q-53 57 -81.5 132t-28.5 158q0 81 26.5 154.5t75.5 131.5q56 64 132 97t167 33q55 0 105 -25t80.5 -66t30.5 -87q0 -11 -7 -18.5t-18 -7.5t-18.5 7.5t-7.5 18.5q0 32 -23.5 61.5
t-61.5 47.5t-80 18q-110 0 -189.5 -52t-120 -135.5t-40.5 -177.5q0 -73 24.5 -139t71.5 -116q53 -57 129.5 -86.5t171.5 -29.5q118 0 221.5 65.5t189.5 168.5t180 248q-78 15 -123.5 57.5t-45.5 102.5q0 51 32 89t90.5 59t136.5 21q59 0 114 -13q87 122 165 186.5t165 64.5
q49 0 77 -36zM1437 842q-67 -56 -142 -160q83 -32 136 -101q30 -39 51 -95q60 11 75 13l53 199q16 58 16 112q0 49 -17 72q-11 16 -36 16q-69 0 -136 -56zM983 630.5q-62 -28.5 -62 -88.5q0 -47 41.5 -75.5t106.5 -37.5l42 65q60 98 101 158q-36 7 -83 7q-84 0 -146 -28.5z
M1154 467l-27 -42q54 0 119 11.5t159 32.5l26 6q-14 39 -41 75q-49 63 -125 89q-37 -54 -111 -172zM1497 436q11 -47 16 -100l29 109q-24 -3 -45 -9zM1458 977q-8 0 -14 6t-6 15q0 8 6 14t14 6q38 0 68.5 27t44.5 73q2 6 7.5 10.5t13.5 4.5l3 -1q9 -1 13.5 -8t3.5 -16
q-2 -7 -2 -16q0 -21 14 -39q13 -16 35.5 -24.5t39.5 -8.5q8 0 14 -6t6 -15q0 -8 -6 -14t-14 -6q-27 0 -57.5 12t-49.5 36q-13 17 -12 13q-12 -20 -46.5 -41.5t-75.5 -21.5zM1472.5 1062.5q-7.5 0.5 -11.5 5.5l-91 89q-5 7 -4 15t9 14q7 6 16.5 6t14.5 -6l89 -87q2 -2 4 -6
q3 -6 1 -13t-8 -12q-2 -1 -5 -2q-7 -4 -14.5 -3.5z" />
    <glyph glyph-name="uni1EA7" unicode="&#x1ea7;" horiz-adv-x="575" 
d="M642 263.5q5 -8.5 2 -18.5q-5 -24 -27.5 -81.5t-66 -110.5t-103.5 -53q-24 0 -43.5 9.5t-32.5 26.5q-22 28 -25 80q-41 -54 -93 -85t-104 -31q-34 0 -63 14t-49 40q-37 47 -37 122q0 36 11 80q18 68 58.5 123.5t93.5 88t107 32.5q34 0 63 -14t49 -40q14 -19 20 -35l5 17
q2 10 11 15t19 3q10 -3 15 -11.5t2 -18.5l-39 -147q-9 -28 -15 -64.5t-6 -68.5q0 -50 16 -71q11 -16 37 -16q36 0 67.5 37t52 84.5t30.5 86.5q2 10 11 15t19 3q10 -3 15 -11.5zM234.5 77.5q43.5 28.5 77.5 75.5t49 102l2 9q7 28 7 59q0 58 -27 93q-26 35 -73 35
q-42 0 -85.5 -28.5t-77.5 -76t-49 -102.5q-9 -34 -9 -67q0 -57 27 -93q27 -35 73 -35q42 0 85.5 28.5zM202 533q-8 0 -14 6t-6 15q0 8 6 14t14 6q38 0 68.5 27t44.5 73q2 6 7.5 10.5t13.5 4.5l3 -1q9 -1 13.5 -8t3.5 -16q-2 -7 -2 -16q0 -21 14 -39q13 -16 35.5 -24.5
t39.5 -8.5q8 0 14 -6t6 -15q0 -8 -6 -14t-14 -6q-27 0 -57.5 12t-49.5 36q-13 17 -12 13q-12 -20 -46.5 -41.5t-75.5 -21.5zM232.5 640.5q-7.5 0.5 -11.5 5.5l-91 89q-5 7 -4 15t9 14q7 6 16.5 6t14.5 -6l89 -87q2 -2 4 -6q3 -6 1 -13t-8 -12q-2 -1 -5 -2q-7 -4 -14.5 -3.5z
" />
    <glyph glyph-name="uni1EA8" unicode="&#x1ea8;" horiz-adv-x="1650" 
d="M1650 913q27 -35 27 -105q0 -37 -6.5 -71.5t-11.5 -52.5l-48 -179q18 1 29 -5t11 -16q0 -12 -14.5 -21.5t-39.5 -9.5l-113 -422l-1 -3q-1 -9 -8 -14t-16 -5q-13 0 -21 10.5t-4 21.5v1q8 29 18.5 94.5t10.5 141.5q0 84 -16 148q-11 -3 -31 -7q-98 -22 -164.5 -34
t-124.5 -12l-31 1q-103 -159 -194.5 -270t-206 -183t-247.5 -72q-105 0 -191 33.5t-147 98.5q-53 57 -81.5 132t-28.5 158q0 81 26.5 154.5t75.5 131.5q56 64 132 97t167 33q55 0 105 -25t80.5 -66t30.5 -87q0 -11 -7 -18.5t-18 -7.5t-18.5 7.5t-7.5 18.5q0 32 -23.5 61.5
t-61.5 47.5t-80 18q-110 0 -189.5 -52t-120 -135.5t-40.5 -177.5q0 -73 24.5 -139t71.5 -116q53 -57 129.5 -86.5t171.5 -29.5q118 0 221.5 65.5t189.5 168.5t180 248q-78 15 -123.5 57.5t-45.5 102.5q0 51 32 89t90.5 59t136.5 21q59 0 114 -13q87 122 165 186.5t165 64.5
q49 0 77 -36zM1437 842q-67 -56 -142 -160q83 -32 136 -101q30 -39 51 -95q60 11 75 13l53 199q16 58 16 112q0 49 -17 72q-11 16 -36 16q-69 0 -136 -56zM983 630.5q-62 -28.5 -62 -88.5q0 -47 41.5 -75.5t106.5 -37.5l42 65q60 98 101 158q-36 7 -83 7q-84 0 -146 -28.5z
M1154 467l-27 -42q54 0 119 11.5t159 32.5l26 6q-14 39 -41 75q-49 63 -125 89q-37 -54 -111 -172zM1497 436q11 -47 16 -100l29 109q-24 -3 -45 -9zM1454 976q-8 0 -14 6t-6 15q0 8 6 14t14 6q38 0 68.5 27t44.5 73q2 6 7.5 10.5t13.5 4.5l3 -1q9 -1 13.5 -8t3.5 -16
q-2 -7 -2 -16q0 -21 14 -39q13 -16 35.5 -24.5t39.5 -8.5q8 0 14 -6t6 -15q0 -8 -6 -14t-14 -6q-27 0 -57.5 12t-49.5 36q-13 17 -12 13q-12 -20 -46.5 -41.5t-75.5 -21.5zM2534 1076q-5 0 -6 1q-6 0 -11 5.5t-5 12.5q0 4 1 7q4 10 16.5 24t20 21t9.5 14q2 5 2 8q0 4 -2 6
q-3 3 -14 3q-12 0 -20 -5.5t-19 -23.5q-1 -5 -7.5 -8.5t-13.5 -3.5q-9 0 -15.5 5.5t-6.5 12.5q0 5 1 7q1 4 9.5 17t26.5 25t45 12q15 0 27.5 -4t21.5 -13q12 -12 12 -30q0 -9 -4 -19q-5 -14 -15.5 -24.5l-19 -19t-12.5 -17.5q-2 -6 -8 -9.5t-13 -3.5z" />
    <glyph glyph-name="uni1EA9" unicode="&#x1ea9;" horiz-adv-x="575" 
d="M642 263.5q5 -8.5 2 -18.5q-5 -24 -27.5 -81.5t-66 -110.5t-103.5 -53q-24 0 -43.5 9.5t-32.5 26.5q-22 28 -25 80q-41 -54 -93 -85t-104 -31q-34 0 -63 14t-49 40q-37 47 -37 122q0 36 11 80q18 68 58.5 123.5t93.5 88t107 32.5q34 0 63 -14t49 -40q14 -19 20 -35l5 17
q2 10 11 15t19 3q10 -3 15 -11.5t2 -18.5l-39 -147q-9 -28 -15 -64.5t-6 -68.5q0 -50 16 -71q11 -16 37 -16q36 0 67.5 37t52 84.5t30.5 86.5q2 10 11 15t19 3q10 -3 15 -11.5zM234.5 77.5q43.5 28.5 77.5 75.5t49 102l2 9q7 28 7 59q0 58 -27 93q-26 35 -73 35
q-42 0 -85.5 -28.5t-77.5 -76t-49 -102.5q-9 -34 -9 -67q0 -57 27 -93q27 -35 73 -35q42 0 85.5 28.5zM202 533q-8 0 -14 6t-6 15q0 8 6 14t14 6q38 0 68.5 27t44.5 73q2 6 7.5 10.5t13.5 4.5l3 -1q9 -1 13.5 -8t3.5 -16q-2 -7 -2 -16q0 -21 14 -39q13 -16 35.5 -24.5
t39.5 -8.5q8 0 14 -6t6 -15q0 -8 -6 -14t-14 -6q-27 0 -57.5 12t-49.5 36q-13 17 -12 13q-12 -20 -46.5 -41.5t-75.5 -21.5zM1019 608q-5 0 -6 1q-6 0 -11 5.5t-5 12.5q0 4 1 7q4 10 16.5 24t20 21t9.5 14q2 5 2 8q0 4 -2 6q-3 3 -14 3q-12 0 -20 -5.5t-19 -23.5
q-1 -5 -7.5 -8.5t-13.5 -3.5q-9 0 -15.5 5.5t-6.5 12.5q0 5 1 7q1 4 9.5 17t26.5 25t45 12q15 0 27.5 -4t21.5 -13q12 -12 12 -30q0 -9 -4 -19q-5 -14 -15.5 -24.5l-19 -19t-12.5 -17.5q-2 -6 -8 -9.5t-13 -3.5z" />
    <glyph glyph-name="uni1EAA" unicode="&#x1eaa;" horiz-adv-x="1650" 
d="M1650 913q27 -35 27 -105q0 -37 -6.5 -71.5t-11.5 -52.5l-48 -179q18 1 29 -5t11 -16q0 -12 -14.5 -21.5t-39.5 -9.5l-113 -422l-1 -3q-1 -9 -8 -14t-16 -5q-13 0 -21 10.5t-4 21.5v1q8 29 18.5 94.5t10.5 141.5q0 84 -16 148q-11 -3 -31 -7q-98 -22 -164.5 -34
t-124.5 -12l-31 1q-103 -159 -194.5 -270t-206 -183t-247.5 -72q-105 0 -191 33.5t-147 98.5q-53 57 -81.5 132t-28.5 158q0 81 26.5 154.5t75.5 131.5q56 64 132 97t167 33q55 0 105 -25t80.5 -66t30.5 -87q0 -11 -7 -18.5t-18 -7.5t-18.5 7.5t-7.5 18.5q0 32 -23.5 61.5
t-61.5 47.5t-80 18q-110 0 -189.5 -52t-120 -135.5t-40.5 -177.5q0 -73 24.5 -139t71.5 -116q53 -57 129.5 -86.5t171.5 -29.5q118 0 221.5 65.5t189.5 168.5t180 248q-78 15 -123.5 57.5t-45.5 102.5q0 51 32 89t90.5 59t136.5 21q59 0 114 -13q87 122 165 186.5t165 64.5
q49 0 77 -36zM1437 842q-67 -56 -142 -160q83 -32 136 -101q30 -39 51 -95q60 11 75 13l53 199q16 58 16 112q0 49 -17 72q-11 16 -36 16q-69 0 -136 -56zM983 630.5q-62 -28.5 -62 -88.5q0 -47 41.5 -75.5t106.5 -37.5l42 65q60 98 101 158q-36 7 -83 7q-84 0 -146 -28.5z
M1154 467l-27 -42q54 0 119 11.5t159 32.5l26 6q-14 39 -41 75q-49 63 -125 89q-37 -54 -111 -172zM1497 436q11 -47 16 -100l29 109q-24 -3 -45 -9zM1454 976q-8 0 -14 6t-6 15q0 8 6 14t14 6q38 0 68.5 27t44.5 73q2 6 7.5 10.5t13.5 4.5l3 -1q9 -1 13.5 -8t3.5 -16
q-2 -7 -2 -16q0 -21 14 -39q13 -16 35.5 -24.5t39.5 -8.5q8 0 14 -6t6 -15q0 -8 -6 -14t-14 -6q-27 0 -57.5 12t-49.5 36q-13 17 -12 13q-12 -20 -46.5 -41.5t-75.5 -21.5zM1844 1065q-7 0 -9 1q-15 2 -30.5 8.5t-30.5 14.5q-16 9 -29.5 14t-25 5.5t-22 -4.5t-22.5 -20
q-7 -7 -17.5 -9t-18.5 6q-19 16 -2 36q37 46 88 43q21 -2 38.5 -10l34.5 -16q30 -16 43 -17.5t26 14.5q6 8 17 10t19 -6q7 -6 9.5 -16t-4.5 -19q-26 -35 -64 -35z" />
    <glyph glyph-name="uni1EAB" unicode="&#x1eab;" horiz-adv-x="575" 
d="M642 263.5q5 -8.5 2 -18.5q-5 -24 -27.5 -81.5t-66 -110.5t-103.5 -53q-24 0 -43.5 9.5t-32.5 26.5q-22 28 -25 80q-41 -54 -93 -85t-104 -31q-34 0 -63 14t-49 40q-37 47 -37 122q0 36 11 80q18 68 58.5 123.5t93.5 88t107 32.5q34 0 63 -14t49 -40q14 -19 20 -35l5 17
q2 10 11 15t19 3q10 -3 15 -11.5t2 -18.5l-39 -147q-9 -28 -15 -64.5t-6 -68.5q0 -50 16 -71q11 -16 37 -16q36 0 67.5 37t52 84.5t30.5 86.5q2 10 11 15t19 3q10 -3 15 -11.5zM234.5 77.5q43.5 28.5 77.5 75.5t49 102l2 9q7 28 7 59q0 58 -27 93q-26 35 -73 35
q-42 0 -85.5 -28.5t-77.5 -76t-49 -102.5q-9 -34 -9 -67q0 -57 27 -93q27 -35 73 -35q42 0 85.5 28.5zM202 533q-8 0 -14 6t-6 15q0 8 6 14t14 6q38 0 68.5 27t44.5 73q2 6 7.5 10.5t13.5 4.5l3 -1q9 -1 13.5 -8t3.5 -16q-2 -7 -2 -16q0 -21 14 -39q13 -16 35.5 -24.5
t39.5 -8.5q8 0 14 -6t6 -15q0 -8 -6 -14t-14 -6q-27 0 -57.5 12t-49.5 36q-13 17 -12 13q-12 -20 -46.5 -41.5t-75.5 -21.5zM615 621q-7 0 -9 1q-15 2 -30.5 8.5t-30.5 14.5q-16 9 -29.5 14t-25 5.5t-22 -4.5t-22.5 -20q-7 -7 -17.5 -9t-18.5 6q-19 16 -2 36q37 46 88 43
q21 -2 38.5 -10l34.5 -16q30 -16 43 -17.5t26 14.5q6 8 17 10t19 -6q7 -6 9.5 -16t-4.5 -19q-26 -35 -64 -35z" />
    <glyph glyph-name="uni1EAC" unicode="&#x1eac;" horiz-adv-x="1650" 
d="M1650 913q27 -35 27 -105q0 -37 -6.5 -71.5t-11.5 -52.5l-48 -179q18 1 29 -5t11 -16q0 -12 -14.5 -21.5t-39.5 -9.5l-113 -422l-1 -3q-1 -9 -8 -14t-16 -5q-13 0 -21 10.5t-4 21.5v1q8 29 18.5 94.5t10.5 141.5q0 84 -16 148q-11 -3 -31 -7q-98 -22 -164.5 -34
t-124.5 -12l-31 1q-103 -159 -194.5 -270t-206 -183t-247.5 -72q-105 0 -191 33.5t-147 98.5q-53 57 -81.5 132t-28.5 158q0 81 26.5 154.5t75.5 131.5q56 64 132 97t167 33q55 0 105 -25t80.5 -66t30.5 -87q0 -11 -7 -18.5t-18 -7.5t-18.5 7.5t-7.5 18.5q0 32 -23.5 61.5
t-61.5 47.5t-80 18q-110 0 -189.5 -52t-120 -135.5t-40.5 -177.5q0 -73 24.5 -139t71.5 -116q53 -57 129.5 -86.5t171.5 -29.5q118 0 221.5 65.5t189.5 168.5t180 248q-78 15 -123.5 57.5t-45.5 102.5q0 51 32 89t90.5 59t136.5 21q59 0 114 -13q87 122 165 186.5t165 64.5
q49 0 77 -36zM1437 842q-67 -56 -142 -160q83 -32 136 -101q30 -39 51 -95q60 11 75 13l53 199q16 58 16 112q0 49 -17 72q-11 16 -36 16q-69 0 -136 -56zM983 630.5q-62 -28.5 -62 -88.5q0 -47 41.5 -75.5t106.5 -37.5l42 65q60 98 101 158q-36 7 -83 7q-84 0 -146 -28.5z
M1154 467l-27 -42q54 0 119 11.5t159 32.5l26 6q-14 39 -41 75q-49 63 -125 89q-37 -54 -111 -172zM1497 436q11 -47 16 -100l29 109q-24 -3 -45 -9zM1454 976q-8 0 -14 6t-6 15q0 8 6 14t14 6q38 0 68.5 27t44.5 73q2 6 7.5 10.5t13.5 4.5l3 -1q9 -1 13.5 -8t3.5 -16
q-2 -7 -2 -16q0 -21 14 -39q13 -16 35.5 -24.5t39.5 -8.5q8 0 14 -6t6 -15q0 -8 -6 -14t-14 -6q-27 0 -57.5 12t-49.5 36q-13 17 -12 13q-12 -20 -46.5 -41.5t-75.5 -21.5zM1074 -187q-19 19 -19 44q0 26 18.5 44t44.5 18t44 -18t18 -44t-18 -44.5t-44 -18.5q-25 0 -44 19z
" />
    <glyph glyph-name="uni1EAD" unicode="&#x1ead;" horiz-adv-x="575" 
d="M642 263.5q5 -8.5 2 -18.5q-5 -24 -27.5 -81.5t-66 -110.5t-103.5 -53q-24 0 -43.5 9.5t-32.5 26.5q-22 28 -25 80q-41 -54 -93 -85t-104 -31q-34 0 -63 14t-49 40q-37 47 -37 122q0 36 11 80q18 68 58.5 123.5t93.5 88t107 32.5q34 0 63 -14t49 -40q14 -19 20 -35l5 17
q2 10 11 15t19 3q10 -3 15 -11.5t2 -18.5l-39 -147q-9 -28 -15 -64.5t-6 -68.5q0 -50 16 -71q11 -16 37 -16q36 0 67.5 37t52 84.5t30.5 86.5q2 10 11 15t19 3q10 -3 15 -11.5zM234.5 77.5q43.5 28.5 77.5 75.5t49 102l2 9q7 28 7 59q0 58 -27 93q-26 35 -73 35
q-42 0 -85.5 -28.5t-77.5 -76t-49 -102.5q-9 -34 -9 -67q0 -57 27 -93q27 -35 73 -35q42 0 85.5 28.5zM202 533q-8 0 -14 6t-6 15q0 8 6 14t14 6q38 0 68.5 27t44.5 73q2 6 7.5 10.5t13.5 4.5l3 -1q9 -1 13.5 -8t3.5 -16q-2 -7 -2 -16q0 -21 14 -39q13 -16 35.5 -24.5
t39.5 -8.5q8 0 14 -6t6 -15q0 -8 -6 -14t-14 -6q-27 0 -57.5 12t-49.5 36q-13 17 -12 13q-12 -20 -46.5 -41.5t-75.5 -21.5zM163 -187q-19 19 -19 44q0 26 18.5 44t44.5 18t44 -18t18 -44t-18 -44.5t-44 -18.5q-25 0 -44 19z" />
    <glyph glyph-name="uni1EAE" unicode="&#x1eae;" horiz-adv-x="1650" 
d="M1650 913q27 -35 27 -105q0 -37 -6.5 -71.5t-11.5 -52.5l-48 -179q18 1 29 -5t11 -16q0 -12 -14.5 -21.5t-39.5 -9.5l-113 -422l-1 -3q-1 -9 -8 -14t-16 -5q-13 0 -21 10.5t-4 21.5v1q8 29 18.5 94.5t10.5 141.5q0 84 -16 148q-11 -3 -31 -7q-98 -22 -164.5 -34
t-124.5 -12l-31 1q-103 -159 -194.5 -270t-206 -183t-247.5 -72q-105 0 -191 33.5t-147 98.5q-53 57 -81.5 132t-28.5 158q0 81 26.5 154.5t75.5 131.5q56 64 132 97t167 33q55 0 105 -25t80.5 -66t30.5 -87q0 -11 -7 -18.5t-18 -7.5t-18.5 7.5t-7.5 18.5q0 32 -23.5 61.5
t-61.5 47.5t-80 18q-110 0 -189.5 -52t-120 -135.5t-40.5 -177.5q0 -73 24.5 -139t71.5 -116q53 -57 129.5 -86.5t171.5 -29.5q118 0 221.5 65.5t189.5 168.5t180 248q-78 15 -123.5 57.5t-45.5 102.5q0 51 32 89t90.5 59t136.5 21q59 0 114 -13q87 122 165 186.5t165 64.5
q49 0 77 -36zM1437 842q-67 -56 -142 -160q83 -32 136 -101q30 -39 51 -95q60 11 75 13l53 199q16 58 16 112q0 49 -17 72q-11 16 -36 16q-69 0 -136 -56zM983 630.5q-62 -28.5 -62 -88.5q0 -47 41.5 -75.5t106.5 -37.5l42 65q60 98 101 158q-36 7 -83 7q-84 0 -146 -28.5z
M1154 467l-27 -42q54 0 119 11.5t159 32.5l26 6q-14 39 -41 75q-49 63 -125 89q-37 -54 -111 -172zM1497 436q11 -47 16 -100l29 109q-24 -3 -45 -9zM1643 1032q13 10 18.5 20t5.5 11q2 10 9 15t15 5q12 0 19.5 -8.5t4.5 -20.5q-4 -17 -16.5 -34.5t-34.5 -30.5
q-23 -12 -53 -12h-1q-30 0 -52 12q-22 13 -35 30.5t-17 34.5q-2 12 5.5 20.5t18.5 8.5q8 0 15 -5t10 -15q0 -1 5.5 -11t18.5 -20q12 -9 32 -9t32 9zM1601 1091q-3 1 -4 2q-7 5 -9 12t1 13q2 4 5 6l88 87q5 6 14.5 6t17.5 -6q7 -6 8.5 -14t-4.5 -15l-90 -89q-5 -5 -12.5 -5.5
t-14.5 3.5z" />
    <glyph glyph-name="uni1EAF" unicode="&#x1eaf;" horiz-adv-x="575" 
d="M642 263.5q5 -8.5 2 -18.5q-5 -24 -27.5 -81.5t-66 -110.5t-103.5 -53q-24 0 -43.5 9.5t-32.5 26.5q-22 28 -25 80q-41 -54 -93 -85t-104 -31q-34 0 -63 14t-49 40q-37 47 -37 122q0 36 11 80q18 68 58.5 123.5t93.5 88t107 32.5q34 0 63 -14t49 -40q14 -19 20 -35l5 17
q2 10 11 15t19 3q10 -3 15 -11.5t2 -18.5l-39 -147q-9 -28 -15 -64.5t-6 -68.5q0 -50 16 -71q11 -16 37 -16q36 0 67.5 37t52 84.5t30.5 86.5q2 10 11 15t19 3q10 -3 15 -11.5zM234.5 77.5q43.5 28.5 77.5 75.5t49 102l2 9q7 28 7 59q0 58 -27 93q-26 35 -73 35
q-42 0 -85.5 -28.5t-77.5 -76t-49 -102.5q-9 -34 -9 -67q0 -57 27 -93q27 -35 73 -35q42 0 85.5 28.5zM355 608q13 10 18.5 20t5.5 11q2 10 9 15t15 5q12 0 19.5 -8.5t4.5 -20.5q-4 -17 -16.5 -34.5t-34.5 -30.5q-23 -12 -53 -12h-1q-30 0 -52 12q-22 13 -35 30.5t-17 34.5
q-2 12 5.5 20.5t18.5 8.5q8 0 15 -5t10 -15q0 -1 5.5 -11t18.5 -20q12 -9 32 -9t32 9zM329 678q-3 1 -4 2q-7 5 -9 12t1 13q2 4 5 6l88 87q5 6 14.5 6t17.5 -6q7 -6 8.5 -14t-4.5 -15l-90 -89q-5 -5 -12.5 -5.5t-14.5 3.5z" />
    <glyph glyph-name="uni1EB0" unicode="&#x1eb0;" horiz-adv-x="1650" 
d="M1650 913q27 -35 27 -105q0 -37 -6.5 -71.5t-11.5 -52.5l-48 -179q18 1 29 -5t11 -16q0 -12 -14.5 -21.5t-39.5 -9.5l-113 -422l-1 -3q-1 -9 -8 -14t-16 -5q-13 0 -21 10.5t-4 21.5v1q8 29 18.5 94.5t10.5 141.5q0 84 -16 148q-11 -3 -31 -7q-98 -22 -164.5 -34
t-124.5 -12l-31 1q-103 -159 -194.5 -270t-206 -183t-247.5 -72q-105 0 -191 33.5t-147 98.5q-53 57 -81.5 132t-28.5 158q0 81 26.5 154.5t75.5 131.5q56 64 132 97t167 33q55 0 105 -25t80.5 -66t30.5 -87q0 -11 -7 -18.5t-18 -7.5t-18.5 7.5t-7.5 18.5q0 32 -23.5 61.5
t-61.5 47.5t-80 18q-110 0 -189.5 -52t-120 -135.5t-40.5 -177.5q0 -73 24.5 -139t71.5 -116q53 -57 129.5 -86.5t171.5 -29.5q118 0 221.5 65.5t189.5 168.5t180 248q-78 15 -123.5 57.5t-45.5 102.5q0 51 32 89t90.5 59t136.5 21q59 0 114 -13q87 122 165 186.5t165 64.5
q49 0 77 -36zM1437 842q-67 -56 -142 -160q83 -32 136 -101q30 -39 51 -95q60 11 75 13l53 199q16 58 16 112q0 49 -17 72q-11 16 -36 16q-69 0 -136 -56zM983 630.5q-62 -28.5 -62 -88.5q0 -47 41.5 -75.5t106.5 -37.5l42 65q60 98 101 158q-36 7 -83 7q-84 0 -146 -28.5z
M1154 467l-27 -42q54 0 119 11.5t159 32.5l26 6q-14 39 -41 75q-49 63 -125 89q-37 -54 -111 -172zM1497 436q11 -47 16 -100l29 109q-24 -3 -45 -9zM1650 1031q13 10 18.5 20t5.5 11q2 10 9 15t15 5q12 0 19.5 -8.5t4.5 -20.5q-4 -17 -16.5 -34.5t-34.5 -30.5
q-23 -12 -53 -12h-1q-30 0 -52 12q-22 13 -35 30.5t-17 34.5q-2 12 5.5 20.5t18.5 8.5q8 0 15 -5t10 -15q0 -1 5.5 -11t18.5 -20q12 -9 32 -9t32 9zM1608.5 1086.5q-7.5 0.5 -11.5 5.5l-91 89q-5 7 -4 15t9 14q7 6 16.5 6t14.5 -6l89 -87q2 -2 4 -6q3 -6 1 -13t-8 -12
q-2 -1 -5 -2q-7 -4 -14.5 -3.5z" />
    <glyph glyph-name="uni1EB1" unicode="&#x1eb1;" horiz-adv-x="575" 
d="M642 263.5q5 -8.5 2 -18.5q-5 -24 -27.5 -81.5t-66 -110.5t-103.5 -53q-24 0 -43.5 9.5t-32.5 26.5q-22 28 -25 80q-41 -54 -93 -85t-104 -31q-34 0 -63 14t-49 40q-37 47 -37 122q0 36 11 80q18 68 58.5 123.5t93.5 88t107 32.5q34 0 63 -14t49 -40q14 -19 20 -35l5 17
q2 10 11 15t19 3q10 -3 15 -11.5t2 -18.5l-39 -147q-9 -28 -15 -64.5t-6 -68.5q0 -50 16 -71q11 -16 37 -16q36 0 67.5 37t52 84.5t30.5 86.5q2 10 11 15t19 3q10 -3 15 -11.5zM234.5 77.5q43.5 28.5 77.5 75.5t49 102l2 9q7 28 7 59q0 58 -27 93q-26 35 -73 35
q-42 0 -85.5 -28.5t-77.5 -76t-49 -102.5q-9 -34 -9 -67q0 -57 27 -93q27 -35 73 -35q42 0 85.5 28.5zM355 608q13 10 18.5 20t5.5 11q2 10 9 15t15 5q12 0 19.5 -8.5t4.5 -20.5q-4 -17 -16.5 -34.5t-34.5 -30.5q-23 -12 -53 -12h-1q-30 0 -52 12q-22 13 -35 30.5t-17 34.5
q-2 12 5.5 20.5t18.5 8.5q8 0 15 -5t10 -15q0 -1 5.5 -11t18.5 -20q12 -9 32 -9t32 9zM313.5 679.5q-7.5 0.5 -11.5 5.5l-91 89q-5 7 -4 15t9 14q7 6 16.5 6t14.5 -6l89 -87q2 -2 4 -6q3 -6 1 -13t-8 -12q-2 -1 -5 -2q-7 -4 -14.5 -3.5z" />
    <glyph glyph-name="uni1EB2" unicode="&#x1eb2;" horiz-adv-x="1650" 
d="M1650 913q27 -35 27 -105q0 -37 -6.5 -71.5t-11.5 -52.5l-48 -179q18 1 29 -5t11 -16q0 -12 -14.5 -21.5t-39.5 -9.5l-113 -422l-1 -3q-1 -9 -8 -14t-16 -5q-13 0 -21 10.5t-4 21.5v1q8 29 18.5 94.5t10.5 141.5q0 84 -16 148q-11 -3 -31 -7q-98 -22 -164.5 -34
t-124.5 -12l-31 1q-103 -159 -194.5 -270t-206 -183t-247.5 -72q-105 0 -191 33.5t-147 98.5q-53 57 -81.5 132t-28.5 158q0 81 26.5 154.5t75.5 131.5q56 64 132 97t167 33q55 0 105 -25t80.5 -66t30.5 -87q0 -11 -7 -18.5t-18 -7.5t-18.5 7.5t-7.5 18.5q0 32 -23.5 61.5
t-61.5 47.5t-80 18q-110 0 -189.5 -52t-120 -135.5t-40.5 -177.5q0 -73 24.5 -139t71.5 -116q53 -57 129.5 -86.5t171.5 -29.5q118 0 221.5 65.5t189.5 168.5t180 248q-78 15 -123.5 57.5t-45.5 102.5q0 51 32 89t90.5 59t136.5 21q59 0 114 -13q87 122 165 186.5t165 64.5
q49 0 77 -36zM1437 842q-67 -56 -142 -160q83 -32 136 -101q30 -39 51 -95q60 11 75 13l53 199q16 58 16 112q0 49 -17 72q-11 16 -36 16q-69 0 -136 -56zM983 630.5q-62 -28.5 -62 -88.5q0 -47 41.5 -75.5t106.5 -37.5l42 65q60 98 101 158q-36 7 -83 7q-84 0 -146 -28.5z
M1154 467l-27 -42q54 0 119 11.5t159 32.5l26 6q-14 39 -41 75q-49 63 -125 89q-37 -54 -111 -172zM1497 436q11 -47 16 -100l29 109q-24 -3 -45 -9zM1641 1032q13 10 18.5 20t5.5 11q2 10 9 15t15 5q12 0 19.5 -8.5t4.5 -20.5q-4 -17 -16.5 -34.5t-34.5 -30.5
q-23 -12 -53 -12h-1q-30 0 -52 12q-22 13 -35 30.5t-17 34.5q-2 12 5.5 20.5t18.5 8.5q8 0 15 -5t10 -15q0 -1 5.5 -11t18.5 -20q12 -9 32 -9t32 9zM2452 1084.75q-5 0 -6 0.75q-6 0 -11 4.125t-5 9.375q0 3 1 5.25q4 7.5 16.5 18t20 15.75t9.5 10.5q2 3.75 2 6q0 3 -2 4.5
q-3 2.25 -14 2.25q-12 0 -20 -4.125t-19 -17.625q-1 -3.75 -7.5 -6.375t-13.5 -2.625q-9 0 -15.5 4.125t-6.5 9.375q0 3.75 1 5.25q1 3 9.5 12.75t26.5 18.75t45 9q15 0 27.5 -3t21.5 -9.75q12 -9 12 -22.5q0 -6.75 -4 -14.25q-5 -10.5 -15.5 -18.375l-19 -14.25
t-12.5 -13.125q-2 -4.5 -8 -7.125t-13 -2.625z" />
    <glyph glyph-name="uni1EB3" unicode="&#x1eb3;" horiz-adv-x="575" 
d="M642 263.5q5 -8.5 2 -18.5q-5 -24 -27.5 -81.5t-66 -110.5t-103.5 -53q-24 0 -43.5 9.5t-32.5 26.5q-22 28 -25 80q-41 -54 -93 -85t-104 -31q-34 0 -63 14t-49 40q-37 47 -37 122q0 36 11 80q18 68 58.5 123.5t93.5 88t107 32.5q34 0 63 -14t49 -40q14 -19 20 -35l5 17
q2 10 11 15t19 3q10 -3 15 -11.5t2 -18.5l-39 -147q-9 -28 -15 -64.5t-6 -68.5q0 -50 16 -71q11 -16 37 -16q36 0 67.5 37t52 84.5t30.5 86.5q2 10 11 15t19 3q10 -3 15 -11.5zM234.5 77.5q43.5 28.5 77.5 75.5t49 102l2 9q7 28 7 59q0 58 -27 93q-26 35 -73 35
q-42 0 -85.5 -28.5t-77.5 -76t-49 -102.5q-9 -34 -9 -67q0 -57 27 -93q27 -35 73 -35q42 0 85.5 28.5zM355 608q13 10 18.5 20t5.5 11q2 10 9 15t15 5q12 0 19.5 -8.5t4.5 -20.5q-4 -17 -16.5 -34.5t-34.5 -30.5q-23 -12 -53 -12h-1q-30 0 -52 12q-22 13 -35 30.5t-17 34.5
q-2 12 5.5 20.5t18.5 8.5q8 0 15 -5t10 -15q0 -1 5.5 -11t18.5 -20q12 -9 32 -9t32 9zM886 689q-5 0 -6 1q-6 0 -11 5.5t-5 12.5q0 4 1 7q4 10 16.5 24t20 21t9.5 14q2 5 2 8q0 4 -2 6q-3 3 -14 3q-12 0 -20 -5.5t-19 -23.5q-1 -5 -7.5 -8.5t-13.5 -3.5q-9 0 -15.5 5.5
t-6.5 12.5q0 5 1 7q1 4 9.5 17t26.5 25t45 12q15 0 27.5 -4t21.5 -13q12 -12 12 -30q0 -9 -4 -19q-5 -14 -15.5 -24.5l-19 -19t-12.5 -17.5q-2 -6 -8 -9.5t-13 -3.5z" />
    <glyph glyph-name="uni1EB4" unicode="&#x1eb4;" horiz-adv-x="1650" 
d="M1650 913q27 -35 27 -105q0 -37 -6.5 -71.5t-11.5 -52.5l-48 -179q18 1 29 -5t11 -16q0 -12 -14.5 -21.5t-39.5 -9.5l-113 -422l-1 -3q-1 -9 -8 -14t-16 -5q-13 0 -21 10.5t-4 21.5v1q8 29 18.5 94.5t10.5 141.5q0 84 -16 148q-11 -3 -31 -7q-98 -22 -164.5 -34
t-124.5 -12l-31 1q-103 -159 -194.5 -270t-206 -183t-247.5 -72q-105 0 -191 33.5t-147 98.5q-53 57 -81.5 132t-28.5 158q0 81 26.5 154.5t75.5 131.5q56 64 132 97t167 33q55 0 105 -25t80.5 -66t30.5 -87q0 -11 -7 -18.5t-18 -7.5t-18.5 7.5t-7.5 18.5q0 32 -23.5 61.5
t-61.5 47.5t-80 18q-110 0 -189.5 -52t-120 -135.5t-40.5 -177.5q0 -73 24.5 -139t71.5 -116q53 -57 129.5 -86.5t171.5 -29.5q118 0 221.5 65.5t189.5 168.5t180 248q-78 15 -123.5 57.5t-45.5 102.5q0 51 32 89t90.5 59t136.5 21q59 0 114 -13q87 122 165 186.5t165 64.5
q49 0 77 -36zM1437 842q-67 -56 -142 -160q83 -32 136 -101q30 -39 51 -95q60 11 75 13l53 199q16 58 16 112q0 49 -17 72q-11 16 -36 16q-69 0 -136 -56zM983 630.5q-62 -28.5 -62 -88.5q0 -47 41.5 -75.5t106.5 -37.5l42 65q60 98 101 158q-36 7 -83 7q-84 0 -146 -28.5z
M1154 467l-27 -42q54 0 119 11.5t159 32.5l26 6q-14 39 -41 75q-49 63 -125 89q-37 -54 -111 -172zM1497 436q11 -47 16 -100l29 109q-24 -3 -45 -9zM1641 1031q13 10 18.5 20t5.5 11q2 10 9 15t15 5q12 0 19.5 -8.5t4.5 -20.5q-4 -17 -16.5 -34.5t-34.5 -30.5
q-23 -12 -53 -12h-1q-30 0 -52 12q-22 13 -35 30.5t-17 34.5q-2 12 5.5 20.5t18.5 8.5q8 0 15 -5t10 -15q0 -1 5.5 -11t18.5 -20q12 -9 32 -9t32 9zM1751 1091q-7 0 -9 1q-15 2 -30.5 8.5t-30.5 14.5q-16 9 -29.5 14t-25 5.5t-22 -4.5t-22.5 -20q-7 -7 -17.5 -9t-18.5 6
q-19 16 -2 36q37 46 88 43q21 -2 38.5 -10l34.5 -16q30 -16 43 -17.5t26 14.5q6 8 17 10t19 -6q7 -6 9.5 -16t-4.5 -19q-26 -35 -64 -35z" />
    <glyph glyph-name="uni1EB5" unicode="&#x1eb5;" horiz-adv-x="575" 
d="M642 263.5q5 -8.5 2 -18.5q-5 -24 -27.5 -81.5t-66 -110.5t-103.5 -53q-24 0 -43.5 9.5t-32.5 26.5q-22 28 -25 80q-41 -54 -93 -85t-104 -31q-34 0 -63 14t-49 40q-37 47 -37 122q0 36 11 80q18 68 58.5 123.5t93.5 88t107 32.5q34 0 63 -14t49 -40q14 -19 20 -35l5 17
q2 10 11 15t19 3q10 -3 15 -11.5t2 -18.5l-39 -147q-9 -28 -15 -64.5t-6 -68.5q0 -50 16 -71q11 -16 37 -16q36 0 67.5 37t52 84.5t30.5 86.5q2 10 11 15t19 3q10 -3 15 -11.5zM234.5 77.5q43.5 28.5 77.5 75.5t49 102l2 9q7 28 7 59q0 58 -27 93q-26 35 -73 35
q-42 0 -85.5 -28.5t-77.5 -76t-49 -102.5q-9 -34 -9 -67q0 -57 27 -93q27 -35 73 -35q42 0 85.5 28.5zM355 608q13 10 18.5 20t5.5 11q2 10 9 15t15 5q12 0 19.5 -8.5t4.5 -20.5q-4 -17 -16.5 -34.5t-34.5 -30.5q-23 -12 -53 -12h-1q-30 0 -52 12q-22 13 -35 30.5t-17 34.5
q-2 12 5.5 20.5t18.5 8.5q8 0 15 -5t10 -15q0 -1 5.5 -11t18.5 -20q12 -9 32 -9t32 9zM396 683q-7 0 -9 1q-15 2 -30.5 8.5t-30.5 14.5q-16 9 -29.5 14t-25 5.5t-22 -4.5t-22.5 -20q-7 -7 -17.5 -9t-18.5 6q-19 16 -2 36q37 46 88 43q21 -2 38.5 -10l34.5 -16
q30 -16 43 -17.5t26 14.5q6 8 17 10t19 -6q7 -6 9.5 -16t-4.5 -19q-26 -35 -64 -35z" />
    <glyph glyph-name="uni1EB6" unicode="&#x1eb6;" horiz-adv-x="1650" 
d="M1650 913q27 -35 27 -105q0 -37 -6.5 -71.5t-11.5 -52.5l-48 -179q18 1 29 -5t11 -16q0 -12 -14.5 -21.5t-39.5 -9.5l-113 -422l-1 -3q-1 -9 -8 -14t-16 -5q-13 0 -21 10.5t-4 21.5v1q8 29 18.5 94.5t10.5 141.5q0 84 -16 148q-11 -3 -31 -7q-98 -22 -164.5 -34
t-124.5 -12l-31 1q-103 -159 -194.5 -270t-206 -183t-247.5 -72q-105 0 -191 33.5t-147 98.5q-53 57 -81.5 132t-28.5 158q0 81 26.5 154.5t75.5 131.5q56 64 132 97t167 33q55 0 105 -25t80.5 -66t30.5 -87q0 -11 -7 -18.5t-18 -7.5t-18.5 7.5t-7.5 18.5q0 32 -23.5 61.5
t-61.5 47.5t-80 18q-110 0 -189.5 -52t-120 -135.5t-40.5 -177.5q0 -73 24.5 -139t71.5 -116q53 -57 129.5 -86.5t171.5 -29.5q118 0 221.5 65.5t189.5 168.5t180 248q-78 15 -123.5 57.5t-45.5 102.5q0 51 32 89t90.5 59t136.5 21q59 0 114 -13q87 122 165 186.5t165 64.5
q49 0 77 -36zM1437 842q-67 -56 -142 -160q83 -32 136 -101q30 -39 51 -95q60 11 75 13l53 199q16 58 16 112q0 49 -17 72q-11 16 -36 16q-69 0 -136 -56zM983 630.5q-62 -28.5 -62 -88.5q0 -47 41.5 -75.5t106.5 -37.5l42 65q60 98 101 158q-36 7 -83 7q-84 0 -146 -28.5z
M1154 467l-27 -42q54 0 119 11.5t159 32.5l26 6q-14 39 -41 75q-49 63 -125 89q-37 -54 -111 -172zM1497 436q11 -47 16 -100l29 109q-24 -3 -45 -9zM1641 1031q13 10 18.5 20t5.5 11q2 10 9 15t15 5q12 0 19.5 -8.5t4.5 -20.5q-4 -17 -16.5 -34.5t-34.5 -30.5
q-23 -12 -53 -12h-1q-30 0 -52 12q-22 13 -35 30.5t-17 34.5q-2 12 5.5 20.5t18.5 8.5q8 0 15 -5t10 -15q0 -1 5.5 -11t18.5 -20q12 -9 32 -9t32 9zM1071 -187q-19 19 -19 44q0 26 18.5 44t44.5 18t44 -18t18 -44t-18 -44.5t-44 -18.5q-25 0 -44 19z" />
    <glyph glyph-name="uni1EB7" unicode="&#x1eb7;" horiz-adv-x="575" 
d="M642 263.5q5 -8.5 2 -18.5q-5 -24 -27.5 -81.5t-66 -110.5t-103.5 -53q-24 0 -43.5 9.5t-32.5 26.5q-22 28 -25 80q-41 -54 -93 -85t-104 -31q-34 0 -63 14t-49 40q-37 47 -37 122q0 36 11 80q18 68 58.5 123.5t93.5 88t107 32.5q34 0 63 -14t49 -40q14 -19 20 -35l5 17
q2 10 11 15t19 3q10 -3 15 -11.5t2 -18.5l-39 -147q-9 -28 -15 -64.5t-6 -68.5q0 -50 16 -71q11 -16 37 -16q36 0 67.5 37t52 84.5t30.5 86.5q2 10 11 15t19 3q10 -3 15 -11.5zM234.5 77.5q43.5 28.5 77.5 75.5t49 102l2 9q7 28 7 59q0 58 -27 93q-26 35 -73 35
q-42 0 -85.5 -28.5t-77.5 -76t-49 -102.5q-9 -34 -9 -67q0 -57 27 -93q27 -35 73 -35q42 0 85.5 28.5zM355 608q13 10 18.5 20t5.5 11q2 10 9 15t15 5q12 0 19.5 -8.5t4.5 -20.5q-4 -17 -16.5 -34.5t-34.5 -30.5q-23 -12 -53 -12h-1q-30 0 -52 12q-22 13 -35 30.5t-17 34.5
q-2 12 5.5 20.5t18.5 8.5q8 0 15 -5t10 -15q0 -1 5.5 -11t18.5 -20q12 -9 32 -9t32 9zM163 -187q-19 19 -19 44q0 26 18.5 44t44.5 18t44 -18t18 -44t-18 -44.5t-44 -18.5q-25 0 -44 19z" />
    <glyph glyph-name="uni1EB8" unicode="&#x1eb8;" horiz-adv-x="670" 
d="M558.5 919.5q58.5 -30.5 89 -79t30.5 -101.5q0 -54 -23.5 -90t-59.5 -52.5t-74 -16.5q-40 0 -71.5 17.5t-41.5 46.5q-1 2 -1 8q0 8 4.5 14.5t11.5 8.5q3 1 8 1q8 0 14.5 -4.5t8.5 -11.5q5 -15 24 -23.5t44 -8.5q13 0 20 1q30 6 59 29.5t29 80.5q0 42 -24.5 79.5
t-72.5 60.5t-114 23q-63 0 -117 -32t-85.5 -86t-31.5 -117q0 -92 51.5 -146t140.5 -54q10 0 17 -7t7 -17t-7 -17.5t-17 -7.5q-98 0 -176.5 -38.5t-123 -106t-44.5 -152.5q0 -74 37 -136.5t99.5 -99.5t136.5 -37q82 0 142 44.5t91 108t31 116.5q0 52 -21 88t-61 52
q-25 11 -59 11q-27 0 -51.5 -8.5t-39.5 -24.5q-38 -38 -38 -81q0 -16 6 -30q5 -12 12 -18.5t14 -6.5q10 0 17 -7t7 -17t-7 -17.5t-17 -7.5q-22 0 -41 14.5t-30 40.5q-9 21 -9 49q0 64 51 115q23 23 56.5 35.5t70.5 12.5q40 0 77 -15q53 -22 82 -70.5t29 -114.5
q0 -62 -37 -137t-107.5 -127.5t-167.5 -52.5q-87 0 -161 43t-117 117t-43 161q0 119 71.5 207.5t191.5 121.5q-53 30 -82.5 86.5t-29.5 130.5q0 77 38 142t103 103t142 38q81 0 139.5 -30.5zM100 -355q-19 19 -19 44q0 26 18.5 44t44.5 18t44 -18t18 -44t-18 -44.5
t-44 -18.5q-25 0 -44 19z" />
    <glyph glyph-name="uni1EB9" unicode="&#x1eb9;" horiz-adv-x="390" 
d="M313.5 474.5q24.5 -25.5 24.5 -69.5q0 -89 -81 -132.5t-203 -46.5q-5 -28 -5 -50q0 -58 27 -92q27 -35 73 -35q45 0 99.5 29t98 77t57.5 101q3 10 11.5 15t18.5 3q10 -3 15 -11.5t2 -18.5q-17 -65 -68 -121t-115.5 -89.5t-118.5 -33.5q-34 0 -63 14t-49 40
q-37 47 -37 122q0 37 11 81q18 67 55.5 123t85 88t96.5 32q41 0 65.5 -25.5zM148.5 400.5q-50.5 -50.5 -79.5 -125.5q116 5 168.5 41.5t52.5 88.5q0 46 -42 46q-49 0 -99.5 -50.5zM67 -187q-19 19 -19 44q0 26 18.5 44t44.5 18t44 -18t18 -44t-18 -44.5t-44 -18.5
q-25 0 -44 19z" />
    <glyph glyph-name="uni1EBA" unicode="&#x1eba;" horiz-adv-x="670" 
d="M558.5 919.5q58.5 -30.5 89 -79t30.5 -101.5q0 -54 -23.5 -90t-59.5 -52.5t-74 -16.5q-40 0 -71.5 17.5t-41.5 46.5q-1 2 -1 8q0 8 4.5 14.5t11.5 8.5q3 1 8 1q8 0 14.5 -4.5t8.5 -11.5q5 -15 24 -23.5t44 -8.5q13 0 20 1q30 6 59 29.5t29 80.5q0 42 -24.5 79.5
t-72.5 60.5t-114 23q-63 0 -117 -32t-85.5 -86t-31.5 -117q0 -92 51.5 -146t140.5 -54q10 0 17 -7t7 -17t-7 -17.5t-17 -7.5q-98 0 -176.5 -38.5t-123 -106t-44.5 -152.5q0 -74 37 -136.5t99.5 -99.5t136.5 -37q82 0 142 44.5t91 108t31 116.5q0 52 -21 88t-61 52
q-25 11 -59 11q-27 0 -51.5 -8.5t-39.5 -24.5q-38 -38 -38 -81q0 -16 6 -30q5 -12 12 -18.5t14 -6.5q10 0 17 -7t7 -17t-7 -17.5t-17 -7.5q-22 0 -41 14.5t-30 40.5q-9 21 -9 49q0 64 51 115q23 23 56.5 35.5t70.5 12.5q40 0 77 -15q53 -22 82 -70.5t29 -114.5
q0 -62 -37 -137t-107.5 -127.5t-167.5 -52.5q-87 0 -161 43t-117 117t-43 161q0 119 71.5 207.5t191.5 121.5q-53 30 -82.5 86.5t-29.5 130.5q0 77 38 142t103 103t142 38q81 0 139.5 -30.5zM1324 995q-5 0 -6 1q-6 0 -11 5.5t-5 12.5q0 4 1 7q4 10 16.5 24t20 21t9.5 14
q2 5 2 8q0 4 -2 6q-3 3 -14 3q-12 0 -20 -5.5t-19 -23.5q-1 -5 -7.5 -8.5t-13.5 -3.5q-9 0 -15.5 5.5t-6.5 12.5q0 5 1 7q1 4 9.5 17t26.5 25t45 12q15 0 27.5 -4t21.5 -13q12 -12 12 -30q0 -9 -4 -19q-5 -14 -15.5 -24.5l-19 -19t-12.5 -17.5q-2 -6 -8 -9.5t-13 -3.5z" />
    <glyph glyph-name="uni1EBB" unicode="&#x1ebb;" horiz-adv-x="390" 
d="M313.5 474.5q24.5 -25.5 24.5 -69.5q0 -89 -81 -132.5t-203 -46.5q-5 -28 -5 -50q0 -58 27 -92q27 -35 73 -35q45 0 99.5 29t98 77t57.5 101q3 10 11.5 15t18.5 3q10 -3 15 -11.5t2 -18.5q-17 -65 -68 -121t-115.5 -89.5t-118.5 -33.5q-34 0 -63 14t-49 40
q-37 47 -37 122q0 37 11 81q18 67 55.5 123t85 88t96.5 32q41 0 65.5 -25.5zM148.5 400.5q-50.5 -50.5 -79.5 -125.5q116 5 168.5 41.5t52.5 88.5q0 46 -42 46q-49 0 -99.5 -50.5zM790 537q-5 0 -6 1q-6 0 -11 5.5t-5 12.5q0 4 1 7q4 10 16.5 24t20 21t9.5 14q2 5 2 8
q0 4 -2 6q-3 3 -14 3q-12 0 -20 -5.5t-19 -23.5q-1 -5 -7.5 -8.5t-13.5 -3.5q-9 0 -15.5 5.5t-6.5 12.5q0 5 1 7q1 4 9.5 17t26.5 25t45 12q15 0 27.5 -4t21.5 -13q12 -12 12 -30q0 -9 -4 -19q-5 -14 -15.5 -24.5l-19 -19t-12.5 -17.5q-2 -6 -8 -9.5t-13 -3.5z" />
    <glyph glyph-name="uni1EBC" unicode="&#x1ebc;" horiz-adv-x="670" 
d="M558.5 919.5q58.5 -30.5 89 -79t30.5 -101.5q0 -54 -23.5 -90t-59.5 -52.5t-74 -16.5q-40 0 -71.5 17.5t-41.5 46.5q-1 2 -1 8q0 8 4.5 14.5t11.5 8.5q3 1 8 1q8 0 14.5 -4.5t8.5 -11.5q5 -15 24 -23.5t44 -8.5q13 0 20 1q30 6 59 29.5t29 80.5q0 42 -24.5 79.5
t-72.5 60.5t-114 23q-63 0 -117 -32t-85.5 -86t-31.5 -117q0 -92 51.5 -146t140.5 -54q10 0 17 -7t7 -17t-7 -17.5t-17 -7.5q-98 0 -176.5 -38.5t-123 -106t-44.5 -152.5q0 -74 37 -136.5t99.5 -99.5t136.5 -37q82 0 142 44.5t91 108t31 116.5q0 52 -21 88t-61 52
q-25 11 -59 11q-27 0 -51.5 -8.5t-39.5 -24.5q-38 -38 -38 -81q0 -16 6 -30q5 -12 12 -18.5t14 -6.5q10 0 17 -7t7 -17t-7 -17.5t-17 -7.5q-22 0 -41 14.5t-30 40.5q-9 21 -9 49q0 64 51 115q23 23 56.5 35.5t70.5 12.5q40 0 77 -15q53 -22 82 -70.5t29 -114.5
q0 -62 -37 -137t-107.5 -127.5t-167.5 -52.5q-87 0 -161 43t-117 117t-43 161q0 119 71.5 207.5t191.5 121.5q-53 30 -82.5 86.5t-29.5 130.5q0 77 38 142t103 103t142 38q81 0 139.5 -30.5zM527 994q-7 0 -9 1q-15 2 -30.5 8.5t-30.5 14.5q-16 9 -29.5 14t-25 5.5t-22 -4.5
t-22.5 -20q-7 -7 -17.5 -9t-18.5 6q-19 16 -2 36q37 46 88 43q21 -2 38.5 -10l34.5 -16q30 -16 43 -17.5t26 14.5q6 8 17 10t19 -6q7 -6 9.5 -16t-4.5 -19q-26 -35 -64 -35z" />
    <glyph glyph-name="uni1EBD" unicode="&#x1ebd;" horiz-adv-x="390" 
d="M313.5 474.5q24.5 -25.5 24.5 -69.5q0 -89 -81 -132.5t-203 -46.5q-5 -28 -5 -50q0 -58 27 -92q27 -35 73 -35q45 0 99.5 29t98 77t57.5 101q3 10 11.5 15t18.5 3q10 -3 15 -11.5t2 -18.5q-17 -65 -68 -121t-115.5 -89.5t-118.5 -33.5q-34 0 -63 14t-49 40
q-37 47 -37 122q0 37 11 81q18 67 55.5 123t85 88t96.5 32q41 0 65.5 -25.5zM148.5 400.5q-50.5 -50.5 -79.5 -125.5q116 5 168.5 41.5t52.5 88.5q0 46 -42 46q-49 0 -99.5 -50.5zM299 533q-7 0 -9 1q-15 2 -30.5 8.5t-30.5 14.5q-16 9 -29.5 14t-25 5.5t-22 -4.5t-22.5 -20
q-7 -7 -17.5 -9t-18.5 6q-19 16 -2 36q37 46 88 43q21 -2 38.5 -10l34.5 -16q30 -16 43 -17.5t26 14.5q6 8 17 10t19 -6q7 -6 9.5 -16t-4.5 -19q-26 -35 -64 -35z" />
    <glyph glyph-name="uni1EBE" unicode="&#x1ebe;" horiz-adv-x="670" 
d="M558.5 919.5q58.5 -30.5 89 -79t30.5 -101.5q0 -54 -23.5 -90t-59.5 -52.5t-74 -16.5q-40 0 -71.5 17.5t-41.5 46.5q-1 2 -1 8q0 8 4.5 14.5t11.5 8.5q3 1 8 1q8 0 14.5 -4.5t8.5 -11.5q5 -15 24 -23.5t44 -8.5q13 0 20 1q30 6 59 29.5t29 80.5q0 42 -24.5 79.5
t-72.5 60.5t-114 23q-63 0 -117 -32t-85.5 -86t-31.5 -117q0 -92 51.5 -146t140.5 -54q10 0 17 -7t7 -17t-7 -17.5t-17 -7.5q-98 0 -176.5 -38.5t-123 -106t-44.5 -152.5q0 -74 37 -136.5t99.5 -99.5t136.5 -37q82 0 142 44.5t91 108t31 116.5q0 52 -21 88t-61 52
q-25 11 -59 11q-27 0 -51.5 -8.5t-39.5 -24.5q-38 -38 -38 -81q0 -16 6 -30q5 -12 12 -18.5t14 -6.5q10 0 17 -7t7 -17t-7 -17.5t-17 -7.5q-22 0 -41 14.5t-30 40.5q-9 21 -9 49q0 64 51 115q23 23 56.5 35.5t70.5 12.5q40 0 77 -15q53 -22 82 -70.5t29 -114.5
q0 -62 -37 -137t-107.5 -127.5t-167.5 -52.5q-87 0 -161 43t-117 117t-43 161q0 119 71.5 207.5t191.5 121.5q-53 30 -82.5 86.5t-29.5 130.5q0 77 38 142t103 103t142 38q81 0 139.5 -30.5zM323 1002q-8 0 -14 6t-6 15q0 8 6 14t14 6q38 0 68.5 27t44.5 73q2 6 7.5 10.5
t13.5 4.5l3 -1q9 -1 13.5 -8t3.5 -16q-2 -7 -2 -16q0 -21 14 -39q13 -16 35.5 -24.5t39.5 -8.5q8 0 14 -6t6 -15q0 -8 -6 -14t-14 -6q-27 0 -57.5 12t-49.5 36q-13 17 -12 13q-12 -20 -46.5 -41.5t-75.5 -21.5zM550 1094q-3 1 -4 2q-7 5 -9 12t1 13q2 4 5 6l88 87
q5 6 14.5 6t17.5 -6q7 -6 8.5 -14t-4.5 -15l-90 -89q-5 -5 -12.5 -5.5t-14.5 3.5z" />
    <glyph glyph-name="uni1EBF" unicode="&#x1ebf;" horiz-adv-x="390" 
d="M313.5 474.5q24.5 -25.5 24.5 -69.5q0 -89 -81 -132.5t-203 -46.5q-5 -28 -5 -50q0 -58 27 -92q27 -35 73 -35q45 0 99.5 29t98 77t57.5 101q3 10 11.5 15t18.5 3q10 -3 15 -11.5t2 -18.5q-17 -65 -68 -121t-115.5 -89.5t-118.5 -33.5q-34 0 -63 14t-49 40
q-37 47 -37 122q0 37 11 81q18 67 55.5 123t85 88t96.5 32q41 0 65.5 -25.5zM148.5 400.5q-50.5 -50.5 -79.5 -125.5q116 5 168.5 41.5t52.5 88.5q0 46 -42 46q-49 0 -99.5 -50.5zM106 533q-8 0 -14 6t-6 15q0 8 6 14t14 6q38 0 68.5 27t44.5 73q2 6 7.5 10.5t13.5 4.5l3 -1
q9 -1 13.5 -8t3.5 -16q-2 -7 -2 -16q0 -21 14 -39q13 -16 35.5 -24.5t39.5 -8.5q8 0 14 -6t6 -15q0 -8 -6 -14t-14 -6q-27 0 -57.5 12t-49.5 36q-13 17 -12 13q-12 -20 -46.5 -41.5t-75.5 -21.5zM317 643q-3 1 -4 2q-7 5 -9 12t1 13q2 4 5 6l88 87q5 6 14.5 6t17.5 -6
q7 -6 8.5 -14t-4.5 -15l-90 -89q-5 -5 -12.5 -5.5t-14.5 3.5z" />
    <glyph glyph-name="uni1EC0" unicode="&#x1ec0;" horiz-adv-x="670" 
d="M558.5 919.5q58.5 -30.5 89 -79t30.5 -101.5q0 -54 -23.5 -90t-59.5 -52.5t-74 -16.5q-40 0 -71.5 17.5t-41.5 46.5q-1 2 -1 8q0 8 4.5 14.5t11.5 8.5q3 1 8 1q8 0 14.5 -4.5t8.5 -11.5q5 -15 24 -23.5t44 -8.5q13 0 20 1q30 6 59 29.5t29 80.5q0 42 -24.5 79.5
t-72.5 60.5t-114 23q-63 0 -117 -32t-85.5 -86t-31.5 -117q0 -92 51.5 -146t140.5 -54q10 0 17 -7t7 -17t-7 -17.5t-17 -7.5q-98 0 -176.5 -38.5t-123 -106t-44.5 -152.5q0 -74 37 -136.5t99.5 -99.5t136.5 -37q82 0 142 44.5t91 108t31 116.5q0 52 -21 88t-61 52
q-25 11 -59 11q-27 0 -51.5 -8.5t-39.5 -24.5q-38 -38 -38 -81q0 -16 6 -30q5 -12 12 -18.5t14 -6.5q10 0 17 -7t7 -17t-7 -17.5t-17 -7.5q-22 0 -41 14.5t-30 40.5q-9 21 -9 49q0 64 51 115q23 23 56.5 35.5t70.5 12.5q40 0 77 -15q53 -22 82 -70.5t29 -114.5
q0 -62 -37 -137t-107.5 -127.5t-167.5 -52.5q-87 0 -161 43t-117 117t-43 161q0 119 71.5 207.5t191.5 121.5q-53 30 -82.5 86.5t-29.5 130.5q0 77 38 142t103 103t142 38q81 0 139.5 -30.5zM322 1002q-8 0 -14 6t-6 15q0 8 6 14t14 6q38 0 68.5 27t44.5 73q2 6 7.5 10.5
t13.5 4.5l3 -1q9 -1 13.5 -8t3.5 -16q-2 -7 -2 -16q0 -21 14 -39q13 -16 35.5 -24.5t39.5 -8.5q8 0 14 -6t6 -15q0 -8 -6 -14t-14 -6q-27 0 -57.5 12t-49.5 36q-13 17 -12 13q-12 -20 -46.5 -41.5t-75.5 -21.5zM336.5 1087.5q-7.5 0.5 -11.5 5.5l-91 89q-5 7 -4 15t9 14
q7 6 16.5 6t14.5 -6l89 -87q2 -2 4 -6q3 -6 1 -13t-8 -12q-2 -1 -5 -2q-7 -4 -14.5 -3.5z" />
    <glyph glyph-name="uni1EC1" unicode="&#x1ec1;" horiz-adv-x="390" 
d="M313.5 474.5q24.5 -25.5 24.5 -69.5q0 -89 -81 -132.5t-203 -46.5q-5 -28 -5 -50q0 -58 27 -92q27 -35 73 -35q45 0 99.5 29t98 77t57.5 101q3 10 11.5 15t18.5 3q10 -3 15 -11.5t2 -18.5q-17 -65 -68 -121t-115.5 -89.5t-118.5 -33.5q-34 0 -63 14t-49 40
q-37 47 -37 122q0 37 11 81q18 67 55.5 123t85 88t96.5 32q41 0 65.5 -25.5zM148.5 400.5q-50.5 -50.5 -79.5 -125.5q116 5 168.5 41.5t52.5 88.5q0 46 -42 46q-49 0 -99.5 -50.5zM106 533q-8 0 -14 6t-6 15q0 8 6 14t14 6q38 0 68.5 27t44.5 73q2 6 7.5 10.5t13.5 4.5l3 -1
q9 -1 13.5 -8t3.5 -16q-2 -7 -2 -16q0 -21 14 -39q13 -16 35.5 -24.5t39.5 -8.5q8 0 14 -6t6 -15q0 -8 -6 -14t-14 -6q-27 0 -57.5 12t-49.5 36q-13 17 -12 13q-12 -20 -46.5 -41.5t-75.5 -21.5zM147.5 665.5q-7.5 0.5 -11.5 5.5l-91 89q-5 7 -4 15t9 14q7 6 16.5 6t14.5 -6
l89 -87q2 -2 4 -6q3 -6 1 -13t-8 -12q-2 -1 -5 -2q-7 -4 -14.5 -3.5z" />
    <glyph glyph-name="uni1EC2" unicode="&#x1ec2;" horiz-adv-x="670" 
d="M558.5 919.5q58.5 -30.5 89 -79t30.5 -101.5q0 -54 -23.5 -90t-59.5 -52.5t-74 -16.5q-40 0 -71.5 17.5t-41.5 46.5q-1 2 -1 8q0 8 4.5 14.5t11.5 8.5q3 1 8 1q8 0 14.5 -4.5t8.5 -11.5q5 -15 24 -23.5t44 -8.5q13 0 20 1q30 6 59 29.5t29 80.5q0 42 -24.5 79.5
t-72.5 60.5t-114 23q-63 0 -117 -32t-85.5 -86t-31.5 -117q0 -92 51.5 -146t140.5 -54q10 0 17 -7t7 -17t-7 -17.5t-17 -7.5q-98 0 -176.5 -38.5t-123 -106t-44.5 -152.5q0 -74 37 -136.5t99.5 -99.5t136.5 -37q82 0 142 44.5t91 108t31 116.5q0 52 -21 88t-61 52
q-25 11 -59 11q-27 0 -51.5 -8.5t-39.5 -24.5q-38 -38 -38 -81q0 -16 6 -30q5 -12 12 -18.5t14 -6.5q10 0 17 -7t7 -17t-7 -17.5t-17 -7.5q-22 0 -41 14.5t-30 40.5q-9 21 -9 49q0 64 51 115q23 23 56.5 35.5t70.5 12.5q40 0 77 -15q53 -22 82 -70.5t29 -114.5
q0 -62 -37 -137t-107.5 -127.5t-167.5 -52.5q-87 0 -161 43t-117 117t-43 161q0 119 71.5 207.5t191.5 121.5q-53 30 -82.5 86.5t-29.5 130.5q0 77 38 142t103 103t142 38q81 0 139.5 -30.5zM324 1001q-8 0 -14 6t-6 15q0 8 6 14t14 6q38 0 68.5 27t44.5 73q2 6 7.5 10.5
t13.5 4.5l3 -1q9 -1 13.5 -8t3.5 -16q-2 -7 -2 -16q0 -21 14 -39q13 -16 35.5 -24.5t39.5 -8.5q8 0 14 -6t6 -15q0 -8 -6 -14t-14 -6q-27 0 -57.5 12t-49.5 36q-13 17 -12 13q-12 -20 -46.5 -41.5t-75.5 -21.5zM1404 1101q-5 0 -6 1q-6 0 -11 5.5t-5 12.5q0 4 1 7
q4 10 16.5 24t20 21t9.5 14q2 5 2 8q0 4 -2 6q-3 3 -14 3q-12 0 -20 -5.5t-19 -23.5q-1 -5 -7.5 -8.5t-13.5 -3.5q-9 0 -15.5 5.5t-6.5 12.5q0 5 1 7q1 4 9.5 17t26.5 25t45 12q15 0 27.5 -4t21.5 -13q12 -12 12 -30q0 -9 -4 -19q-5 -14 -15.5 -24.5l-19 -19t-12.5 -17.5
q-2 -6 -8 -9.5t-13 -3.5z" />
    <glyph glyph-name="uni1EC3" unicode="&#x1ec3;" horiz-adv-x="390" 
d="M313.5 474.5q24.5 -25.5 24.5 -69.5q0 -89 -81 -132.5t-203 -46.5q-5 -28 -5 -50q0 -58 27 -92q27 -35 73 -35q45 0 99.5 29t98 77t57.5 101q3 10 11.5 15t18.5 3q10 -3 15 -11.5t2 -18.5q-17 -65 -68 -121t-115.5 -89.5t-118.5 -33.5q-34 0 -63 14t-49 40
q-37 47 -37 122q0 37 11 81q18 67 55.5 123t85 88t96.5 32q41 0 65.5 -25.5zM148.5 400.5q-50.5 -50.5 -79.5 -125.5q116 5 168.5 41.5t52.5 88.5q0 46 -42 46q-49 0 -99.5 -50.5zM106 533q-8 0 -14 6t-6 15q0 8 6 14t14 6q38 0 68.5 27t44.5 73q2 6 7.5 10.5t13.5 4.5l3 -1
q9 -1 13.5 -8t3.5 -16q-2 -7 -2 -16q0 -21 14 -39q13 -16 35.5 -24.5t39.5 -8.5q8 0 14 -6t6 -15q0 -8 -6 -14t-14 -6q-27 0 -57.5 12t-49.5 36q-13 17 -12 13q-12 -20 -46.5 -41.5t-75.5 -21.5zM893 665q-5 0 -6 1q-6 0 -11 5.5t-5 12.5q0 4 1 7q4 10 16.5 24t20 21t9.5 14
q2 5 2 8q0 4 -2 6q-3 3 -14 3q-12 0 -20 -5.5t-19 -23.5q-1 -5 -7.5 -8.5t-13.5 -3.5q-9 0 -15.5 5.5t-6.5 12.5q0 5 1 7q1 4 9.5 17t26.5 25t45 12q15 0 27.5 -4t21.5 -13q12 -12 12 -30q0 -9 -4 -19q-5 -14 -15.5 -24.5l-19 -19t-12.5 -17.5q-2 -6 -8 -9.5t-13 -3.5z" />
    <glyph glyph-name="uni1EC4" unicode="&#x1ec4;" horiz-adv-x="670" 
d="M558.5 919.5q58.5 -30.5 89 -79t30.5 -101.5q0 -54 -23.5 -90t-59.5 -52.5t-74 -16.5q-40 0 -71.5 17.5t-41.5 46.5q-1 2 -1 8q0 8 4.5 14.5t11.5 8.5q3 1 8 1q8 0 14.5 -4.5t8.5 -11.5q5 -15 24 -23.5t44 -8.5q13 0 20 1q30 6 59 29.5t29 80.5q0 42 -24.5 79.5
t-72.5 60.5t-114 23q-63 0 -117 -32t-85.5 -86t-31.5 -117q0 -92 51.5 -146t140.5 -54q10 0 17 -7t7 -17t-7 -17.5t-17 -7.5q-98 0 -176.5 -38.5t-123 -106t-44.5 -152.5q0 -74 37 -136.5t99.5 -99.5t136.5 -37q82 0 142 44.5t91 108t31 116.5q0 52 -21 88t-61 52
q-25 11 -59 11q-27 0 -51.5 -8.5t-39.5 -24.5q-38 -38 -38 -81q0 -16 6 -30q5 -12 12 -18.5t14 -6.5q10 0 17 -7t7 -17t-7 -17.5t-17 -7.5q-22 0 -41 14.5t-30 40.5q-9 21 -9 49q0 64 51 115q23 23 56.5 35.5t70.5 12.5q40 0 77 -15q53 -22 82 -70.5t29 -114.5
q0 -62 -37 -137t-107.5 -127.5t-167.5 -52.5q-87 0 -161 43t-117 117t-43 161q0 119 71.5 207.5t191.5 121.5q-53 30 -82.5 86.5t-29.5 130.5q0 77 38 142t103 103t142 38q81 0 139.5 -30.5zM323 1001q-8 0 -14 6t-6 15q0 8 6 14t14 6q38 0 68.5 27t44.5 73q2 6 7.5 10.5
t13.5 4.5l3 -1q9 -1 13.5 -8t3.5 -16q-2 -7 -2 -16q0 -21 14 -39q13 -16 35.5 -24.5t39.5 -8.5q8 0 14 -6t6 -15q0 -8 -6 -14t-14 -6q-27 0 -57.5 12t-49.5 36q-13 17 -12 13q-12 -20 -46.5 -41.5t-75.5 -21.5zM713 1090q-7 0 -9 1q-15 2 -30.5 8.5t-30.5 14.5
q-16 9 -29.5 14t-25 5.5t-22 -4.5t-22.5 -20q-7 -7 -17.5 -9t-18.5 6q-19 16 -2 36q37 46 88 43q21 -2 38.5 -10l34.5 -16q30 -16 43 -17.5t26 14.5q6 8 17 10t19 -6q7 -6 9.5 -16t-4.5 -19q-26 -35 -64 -35z" />
    <glyph glyph-name="uni1EC5" unicode="&#x1ec5;" horiz-adv-x="390" 
d="M313.5 474.5q24.5 -25.5 24.5 -69.5q0 -89 -81 -132.5t-203 -46.5q-5 -28 -5 -50q0 -58 27 -92q27 -35 73 -35q45 0 99.5 29t98 77t57.5 101q3 10 11.5 15t18.5 3q10 -3 15 -11.5t2 -18.5q-17 -65 -68 -121t-115.5 -89.5t-118.5 -33.5q-34 0 -63 14t-49 40
q-37 47 -37 122q0 37 11 81q18 67 55.5 123t85 88t96.5 32q41 0 65.5 -25.5zM148.5 400.5q-50.5 -50.5 -79.5 -125.5q116 5 168.5 41.5t52.5 88.5q0 46 -42 46q-49 0 -99.5 -50.5zM106 533q-8 0 -14 6t-6 15q0 8 6 14t14 6q38 0 68.5 27t44.5 73q2 6 7.5 10.5t13.5 4.5l3 -1
q9 -1 13.5 -8t3.5 -16q-2 -7 -2 -16q0 -21 14 -39q13 -16 35.5 -24.5t39.5 -8.5q8 0 14 -6t6 -15q0 -8 -6 -14t-14 -6q-27 0 -57.5 12t-49.5 36q-13 17 -12 13q-12 -20 -46.5 -41.5t-75.5 -21.5zM519 622q-7 0 -9 1q-15 2 -30.5 8.5t-30.5 14.5q-16 9 -29.5 14t-25 5.5
t-22 -4.5t-22.5 -20q-7 -7 -17.5 -9t-18.5 6q-19 16 -2 36q37 46 88 43q21 -2 38.5 -10l34.5 -16q30 -16 43 -17.5t26 14.5q6 8 17 10t19 -6q7 -6 9.5 -16t-4.5 -19q-26 -35 -64 -35z" />
    <glyph glyph-name="uni1EC6" unicode="&#x1ec6;" horiz-adv-x="670" 
d="M558.5 919.5q58.5 -30.5 89 -79t30.5 -101.5q0 -54 -23.5 -90t-59.5 -52.5t-74 -16.5q-40 0 -71.5 17.5t-41.5 46.5q-1 2 -1 8q0 8 4.5 14.5t11.5 8.5q3 1 8 1q8 0 14.5 -4.5t8.5 -11.5q5 -15 24 -23.5t44 -8.5q13 0 20 1q30 6 59 29.5t29 80.5q0 42 -24.5 79.5
t-72.5 60.5t-114 23q-63 0 -117 -32t-85.5 -86t-31.5 -117q0 -92 51.5 -146t140.5 -54q10 0 17 -7t7 -17t-7 -17.5t-17 -7.5q-98 0 -176.5 -38.5t-123 -106t-44.5 -152.5q0 -74 37 -136.5t99.5 -99.5t136.5 -37q82 0 142 44.5t91 108t31 116.5q0 52 -21 88t-61 52
q-25 11 -59 11q-27 0 -51.5 -8.5t-39.5 -24.5q-38 -38 -38 -81q0 -16 6 -30q5 -12 12 -18.5t14 -6.5q10 0 17 -7t7 -17t-7 -17.5t-17 -7.5q-22 0 -41 14.5t-30 40.5q-9 21 -9 49q0 64 51 115q23 23 56.5 35.5t70.5 12.5q40 0 77 -15q53 -22 82 -70.5t29 -114.5
q0 -62 -37 -137t-107.5 -127.5t-167.5 -52.5q-87 0 -161 43t-117 117t-43 161q0 119 71.5 207.5t191.5 121.5q-53 30 -82.5 86.5t-29.5 130.5q0 77 38 142t103 103t142 38q81 0 139.5 -30.5zM324 1001q-8 0 -14 6t-6 15q0 8 6 14t14 6q38 0 68.5 27t44.5 73q2 6 7.5 10.5
t13.5 4.5l3 -1q9 -1 13.5 -8t3.5 -16q-2 -7 -2 -16q0 -21 14 -39q13 -16 35.5 -24.5t39.5 -8.5q8 0 14 -6t6 -15q0 -8 -6 -14t-14 -6q-27 0 -57.5 12t-49.5 36q-13 17 -12 13q-12 -20 -46.5 -41.5t-75.5 -21.5zM132 -348q-19 19 -19 44q0 26 18.5 44t44.5 18t44 -18t18 -44
t-18 -44.5t-44 -18.5q-25 0 -44 19z" />
    <glyph glyph-name="uni1EC7" unicode="&#x1ec7;" horiz-adv-x="390" 
d="M313.5 474.5q24.5 -25.5 24.5 -69.5q0 -89 -81 -132.5t-203 -46.5q-5 -28 -5 -50q0 -58 27 -92q27 -35 73 -35q45 0 99.5 29t98 77t57.5 101q3 10 11.5 15t18.5 3q10 -3 15 -11.5t2 -18.5q-17 -65 -68 -121t-115.5 -89.5t-118.5 -33.5q-34 0 -63 14t-49 40
q-37 47 -37 122q0 37 11 81q18 67 55.5 123t85 88t96.5 32q41 0 65.5 -25.5zM148.5 400.5q-50.5 -50.5 -79.5 -125.5q116 5 168.5 41.5t52.5 88.5q0 46 -42 46q-49 0 -99.5 -50.5zM106 533q-8 0 -14 6t-6 15q0 8 6 14t14 6q38 0 68.5 27t44.5 73q2 6 7.5 10.5t13.5 4.5l3 -1
q9 -1 13.5 -8t3.5 -16q-2 -7 -2 -16q0 -21 14 -39q13 -16 35.5 -24.5t39.5 -8.5q8 0 14 -6t6 -15q0 -8 -6 -14t-14 -6q-27 0 -57.5 12t-49.5 36q-13 17 -12 13q-12 -20 -46.5 -41.5t-75.5 -21.5zM67 -187q-19 19 -19 44q0 26 18.5 44t44.5 18t44 -18t18 -44t-18 -44.5
t-44 -18.5q-25 0 -44 19z" />
    <glyph glyph-name="uni1EC8" unicode="&#x1ec8;" horiz-adv-x="550" 
d="M594 933q2 -6 2 -9q0 -7 -3 -13l-181 -673q-33 -122 -70 -210.5t-115 -157.5t-201 -69q-11 0 -18 7t-7 18q0 10 7.5 17.5t17.5 7.5q106 0 173 61.5t100.5 142.5t63.5 196l7 24l156 580l-2 1q-46 -27 -94 -27q-32 0 -60 9.5t-66 28.5q-34 16 -55 24t-43 8q-36 0 -61 -29
q-11 -13 -17 -30.5t-6 -34.5q0 -26 17.5 -51t69.5 -25q11 0 18 -7t7 -18t-7 -18t-18 -7q-66 0 -101.5 37t-35.5 89q0 36 17 69t47.5 54t69.5 21q30 0 57.5 -10t63.5 -28q37 -17 58.5 -25t44.5 -8q28 0 56.5 13.5t63.5 45.5q9 12 21 12q17 -2 23 -16zM1431 1001q-5 0 -6 1
q-6 0 -11 5.5t-5 12.5q0 4 1 7q4 10 16.5 24t20 21t9.5 14q2 5 2 8q0 4 -2 6q-3 3 -14 3q-12 0 -20 -5.5t-19 -23.5q-1 -5 -7.5 -8.5t-13.5 -3.5q-9 0 -15.5 5.5t-6.5 12.5q0 5 1 7q1 4 9.5 17t26.5 25t45 12q15 0 27.5 -4t21.5 -13q12 -12 12 -30q0 -9 -4 -19
q-5 -14 -15.5 -24.5l-19 -19t-12.5 -17.5q-2 -6 -8 -9.5t-13 -3.5z" />
    <glyph glyph-name="uni1EC9" unicode="&#x1ec9;" horiz-adv-x="250" 
d="M120 488q5 -9 2 -19l-52 -200q-9 -28 -15 -64t-6 -68q0 -51 16 -72q11 -16 37 -16q37 0 68 37t52 85.5t30 85.5q2 10 11 15t19 3q10 -3 15 -11.5t3 -18.5q-13 -44 -32 -92t-62.5 -100.5t-103.5 -52.5q-24 0 -43.5 9.5t-32.5 26.5q-26 34 -26 102q0 60 23 144l52 200
q3 10 11.5 15t18.5 2q10 -2 15 -11zM109 539q-5 0 -6 1q-6 0 -11 5.5t-5 12.5q0 4 1 7q4 10 16.5 24t20 21t9.5 14q2 5 2 8q0 4 -2 6q-3 3 -14 3q-12 0 -20 -5.5t-19 -23.5q-1 -5 -7.5 -8.5t-13.5 -3.5q-9 0 -15.5 5.5t-6.5 12.5q0 5 1 7q1 4 9.5 17t26.5 25t45 12
q15 0 27.5 -4t21.5 -13q12 -12 12 -30q0 -9 -4 -19q-5 -14 -15.5 -24.5l-19 -19t-12.5 -17.5q-2 -6 -8 -9.5t-13 -3.5z" />
    <glyph glyph-name="uni1ECA" unicode="&#x1eca;" horiz-adv-x="550" 
d="M594 933q2 -6 2 -9q0 -7 -3 -13l-181 -673q-33 -122 -70 -210.5t-115 -157.5t-201 -69q-11 0 -18 7t-7 18q0 10 7.5 17.5t17.5 7.5q106 0 173 61.5t100.5 142.5t63.5 196l7 24l156 580l-2 1q-46 -27 -94 -27q-32 0 -60 9.5t-66 28.5q-34 16 -55 24t-43 8q-36 0 -61 -29
q-11 -13 -17 -30.5t-6 -34.5q0 -26 17.5 -51t69.5 -25q11 0 18 -7t7 -18t-7 -18t-18 -7q-66 0 -101.5 37t-35.5 89q0 36 17 69t47.5 54t69.5 21q30 0 57.5 -10t63.5 -28q37 -17 58.5 -25t44.5 -8q28 0 56.5 13.5t63.5 45.5q9 12 21 12q17 -2 23 -16zM120 -338q-19 19 -19 44
q0 26 18.5 44t44.5 18t44 -18t18 -44t-18 -44.5t-44 -18.5q-25 0 -44 19z" />
    <glyph glyph-name="uni1ECB" unicode="&#x1ecb;" horiz-adv-x="250" 
d="M158.5 633.5q11.5 -11.5 11.5 -28.5t-11.5 -28.5t-28.5 -11.5q-16 0 -28 12t-12 28q0 17 12 28.5t28 11.5q17 0 28.5 -11.5zM120 488q5 -9 2 -19l-52 -200q-9 -28 -15 -64t-6 -68q0 -51 16 -72q11 -16 37 -16q37 0 68 37t52 85.5t30 85.5q2 10 11 15t19 3q10 -3 15 -11.5
t3 -18.5q-13 -44 -32 -92t-62.5 -100.5t-103.5 -52.5q-24 0 -43.5 9.5t-32.5 26.5q-26 34 -26 102q0 60 23 144l52 200q3 10 11.5 15t18.5 2q10 -2 15 -11zM-9 -187q-19 19 -19 44q0 26 18.5 44t44.5 18t44 -18t18 -44t-18 -44.5t-44 -18.5q-25 0 -44 19z" />
    <glyph glyph-name="uni1ECC" unicode="&#x1ecc;" horiz-adv-x="800" 
d="M646.5 936.5q46.5 -18.5 82.5 -56.5q31 -33 47.5 -76t16.5 -88q0 -14 -1 -21q-1 -10 -9 -16t-18 -5q-10 2 -16.5 9.5t-5.5 17.5q1 5 1 16q0 34 -13.5 67.5t-37.5 61.5q-28 29 -64.5 44t-74.5 12q-107 -7 -203 -77.5t-166.5 -190.5t-101.5 -270q-13 -66 -13 -134
q0 -84 21 -153.5t61 -116.5q34 -37 77 -56.5t92 -19.5q99 0 173.5 64.5t121.5 145.5q48 81 74.5 174t26.5 176q0 79 -34.5 147.5t-134.5 62.5q-15 -1 -22.5 5.5t-7.5 16.5t7 18t20 9q102 6 163 -64q28 -35 43 -84.5t15 -110.5q0 -90 -28.5 -189.5t-79.5 -185.5
q-68 -113 -155 -174t-182 -61q-61 0 -113 23.5t-92 69.5q-46 55 -70.5 133.5t-24.5 170.5q0 74 14 143q33 160 110 288.5t183 205t223 83.5q49 4 95.5 -14.5zM198 -332q-19 19 -19 44q0 26 18.5 44t44.5 18t44 -18t18 -44t-18 -44.5t-44 -18.5q-25 0 -44 19z" />
    <glyph glyph-name="uni1ECD" unicode="&#x1ecd;" horiz-adv-x="510" 
d="M222 523q17 0 25 -17q2 -6 2 -9q0 -8 -5 -14.5t-12 -9.5q-57 -23 -104 -80.5t-66 -128.5q-10 -34 -10 -71q0 -60 29 -98q35 -44 78 -44q30 0 61.5 15t46.5 42q-28 23 -47.5 70t-19.5 107q0 50 19 99t51.5 80.5t70.5 31.5q21 0 37.5 -10.5t26.5 -30.5q17 -31 17 -80
q0 -56 -22.5 -126t-54.5 -119q15 -5 34 -5q48 0 84.5 40.5t51.5 112.5q6 23 26 23q21 0 21 -28q0 -9 -1 -14q-17 -88 -71 -135.5t-120 -47.5q-29 0 -56 9q-29 -42 -71.5 -63.5t-83.5 -21.5q-35 0 -66 17.5t-53 46.5q-39 51 -39 129q0 45 11 85q23 82 78 149t123 94q6 2 9 2z
M299 420.5q-21 -23.5 -34 -60.5t-13 -75q0 -42 13.5 -83t30.5 -51q33 46 53.5 108t20.5 116q0 36 -10 56q-7 13 -19 13q-21 0 -42 -23.5zM122 -187q-19 19 -19 44q0 26 18.5 44t44.5 18t44 -18t18 -44t-18 -44.5t-44 -18.5q-25 0 -44 19z" />
    <glyph glyph-name="uni1ECE" unicode="&#x1ece;" horiz-adv-x="800" 
d="M646.5 936.5q46.5 -18.5 82.5 -56.5q31 -33 47.5 -76t16.5 -88q0 -14 -1 -21q-1 -10 -9 -16t-18 -5q-10 2 -16.5 9.5t-5.5 17.5q1 5 1 16q0 34 -13.5 67.5t-37.5 61.5q-28 29 -64.5 44t-74.5 12q-107 -7 -203 -77.5t-166.5 -190.5t-101.5 -270q-13 -66 -13 -134
q0 -84 21 -153.5t61 -116.5q34 -37 77 -56.5t92 -19.5q99 0 173.5 64.5t121.5 145.5q48 81 74.5 174t26.5 176q0 79 -34.5 147.5t-134.5 62.5q-15 -1 -22.5 5.5t-7.5 16.5t7 18t20 9q102 6 163 -64q28 -35 43 -84.5t15 -110.5q0 -90 -28.5 -189.5t-79.5 -185.5
q-68 -113 -155 -174t-182 -61q-61 0 -113 23.5t-92 69.5q-46 55 -70.5 133.5t-24.5 170.5q0 74 14 143q33 160 110 288.5t183 205t223 83.5q49 4 95.5 -14.5zM1430 1001q-5 0 -6 1q-6 0 -11 5.5t-5 12.5q0 4 1 7q4 10 16.5 24t20 21t9.5 14q2 5 2 8q0 4 -2 6q-3 3 -14 3
q-12 0 -20 -5.5t-19 -23.5q-1 -5 -7.5 -8.5t-13.5 -3.5q-9 0 -15.5 5.5t-6.5 12.5q0 5 1 7q1 4 9.5 17t26.5 25t45 12q15 0 27.5 -4t21.5 -13q12 -12 12 -30q0 -9 -4 -19q-5 -14 -15.5 -24.5l-19 -19t-12.5 -17.5q-2 -6 -8 -9.5t-13 -3.5z" />
    <glyph glyph-name="uni1ECF" unicode="&#x1ecf;" horiz-adv-x="510" 
d="M222 523q17 0 25 -17q2 -6 2 -9q0 -8 -5 -14.5t-12 -9.5q-57 -23 -104 -80.5t-66 -128.5q-10 -34 -10 -71q0 -60 29 -98q35 -44 78 -44q30 0 61.5 15t46.5 42q-28 23 -47.5 70t-19.5 107q0 50 19 99t51.5 80.5t70.5 31.5q21 0 37.5 -10.5t26.5 -30.5q17 -31 17 -80
q0 -56 -22.5 -126t-54.5 -119q15 -5 34 -5q48 0 84.5 40.5t51.5 112.5q6 23 26 23q21 0 21 -28q0 -9 -1 -14q-17 -88 -71 -135.5t-120 -47.5q-29 0 -56 9q-29 -42 -71.5 -63.5t-83.5 -21.5q-35 0 -66 17.5t-53 46.5q-39 51 -39 129q0 45 11 85q23 82 78 149t123 94q6 2 9 2z
M299 420.5q-21 -23.5 -34 -60.5t-13 -75q0 -42 13.5 -83t30.5 -51q33 46 53.5 108t20.5 116q0 36 -10 56q-7 13 -19 13q-21 0 -42 -23.5zM845 537q-5 0 -6 1q-6 0 -11 5.5t-5 12.5q0 4 1 7q4 10 16.5 24t20 21t9.5 14q2 5 2 8q0 4 -2 6q-3 3 -14 3q-12 0 -20 -5.5t-19 -23.5
q-1 -5 -7.5 -8.5t-13.5 -3.5q-9 0 -15.5 5.5t-6.5 12.5q0 5 1 7q1 4 9.5 17t26.5 25t45 12q15 0 27.5 -4t21.5 -13q12 -12 12 -30q0 -9 -4 -19q-5 -14 -15.5 -24.5l-19 -19t-12.5 -17.5q-2 -6 -8 -9.5t-13 -3.5z" />
    <glyph glyph-name="uni1ED0" unicode="&#x1ed0;" horiz-adv-x="800" 
d="M646.5 936.5q46.5 -18.5 82.5 -56.5q31 -33 47.5 -76t16.5 -88q0 -14 -1 -21q-1 -10 -9 -16t-18 -5q-10 2 -16.5 9.5t-5.5 17.5q1 5 1 16q0 34 -13.5 67.5t-37.5 61.5q-28 29 -64.5 44t-74.5 12q-107 -7 -203 -77.5t-166.5 -190.5t-101.5 -270q-13 -66 -13 -134
q0 -84 21 -153.5t61 -116.5q34 -37 77 -56.5t92 -19.5q99 0 173.5 64.5t121.5 145.5q48 81 74.5 174t26.5 176q0 79 -34.5 147.5t-134.5 62.5q-15 -1 -22.5 5.5t-7.5 16.5t7 18t20 9q102 6 163 -64q28 -35 43 -84.5t15 -110.5q0 -90 -28.5 -189.5t-79.5 -185.5
q-68 -113 -155 -174t-182 -61q-61 0 -113 23.5t-92 69.5q-46 55 -70.5 133.5t-24.5 170.5q0 74 14 143q33 160 110 288.5t183 205t223 83.5q49 4 95.5 -14.5zM446 1001q-8 0 -14 6t-6 15q0 8 6 14t14 6q38 0 68.5 27t44.5 73q2 6 7.5 10.5t13.5 4.5l3 -1q9 -1 13.5 -8
t3.5 -16q-2 -7 -2 -16q0 -21 14 -39q13 -16 35.5 -24.5t39.5 -8.5q8 0 14 -6t6 -15q0 -8 -6 -14t-14 -6q-27 0 -57.5 12t-49.5 36q-13 17 -12 13q-12 -20 -46.5 -41.5t-75.5 -21.5zM673 1093q-3 1 -4 2q-7 5 -9 12t1 13q2 4 5 6l88 87q5 6 14.5 6t17.5 -6q7 -6 8.5 -14
t-4.5 -15l-90 -89q-5 -5 -12.5 -5.5t-14.5 3.5z" />
    <glyph glyph-name="uni1ED1" unicode="&#x1ed1;" horiz-adv-x="510" 
d="M222 523q17 0 25 -17q2 -6 2 -9q0 -8 -5 -14.5t-12 -9.5q-57 -23 -104 -80.5t-66 -128.5q-10 -34 -10 -71q0 -60 29 -98q35 -44 78 -44q30 0 61.5 15t46.5 42q-28 23 -47.5 70t-19.5 107q0 50 19 99t51.5 80.5t70.5 31.5q21 0 37.5 -10.5t26.5 -30.5q17 -31 17 -80
q0 -56 -22.5 -126t-54.5 -119q15 -5 34 -5q48 0 84.5 40.5t51.5 112.5q6 23 26 23q21 0 21 -28q0 -9 -1 -14q-17 -88 -71 -135.5t-120 -47.5q-29 0 -56 9q-29 -42 -71.5 -63.5t-83.5 -21.5q-35 0 -66 17.5t-53 46.5q-39 51 -39 129q0 45 11 85q23 82 78 149t123 94q6 2 9 2z
M299 420.5q-21 -23.5 -34 -60.5t-13 -75q0 -42 13.5 -83t30.5 -51q33 46 53.5 108t20.5 116q0 36 -10 56q-7 13 -19 13q-21 0 -42 -23.5zM161 533q-8 0 -14 6t-6 15q0 8 6 14t14 6q38 0 68.5 27t44.5 73q2 6 7.5 10.5t13.5 4.5l3 -1q9 -1 13.5 -8t3.5 -16q-2 -7 -2 -16
q0 -21 14 -39q13 -16 35.5 -24.5t39.5 -8.5q8 0 14 -6t6 -15q0 -8 -6 -14t-14 -6q-27 0 -57.5 12t-49.5 36q-13 17 -12 13q-12 -20 -46.5 -41.5t-75.5 -21.5zM382 644q-3 1 -4 2q-7 5 -9 12t1 13q2 4 5 6l88 87q5 6 14.5 6t17.5 -6q7 -6 8.5 -14t-4.5 -15l-90 -89
q-5 -5 -12.5 -5.5t-14.5 3.5z" />
    <glyph glyph-name="uni1ED2" unicode="&#x1ed2;" horiz-adv-x="800" 
d="M646.5 936.5q46.5 -18.5 82.5 -56.5q31 -33 47.5 -76t16.5 -88q0 -14 -1 -21q-1 -10 -9 -16t-18 -5q-10 2 -16.5 9.5t-5.5 17.5q1 5 1 16q0 34 -13.5 67.5t-37.5 61.5q-28 29 -64.5 44t-74.5 12q-107 -7 -203 -77.5t-166.5 -190.5t-101.5 -270q-13 -66 -13 -134
q0 -84 21 -153.5t61 -116.5q34 -37 77 -56.5t92 -19.5q99 0 173.5 64.5t121.5 145.5q48 81 74.5 174t26.5 176q0 79 -34.5 147.5t-134.5 62.5q-15 -1 -22.5 5.5t-7.5 16.5t7 18t20 9q102 6 163 -64q28 -35 43 -84.5t15 -110.5q0 -90 -28.5 -189.5t-79.5 -185.5
q-68 -113 -155 -174t-182 -61q-61 0 -113 23.5t-92 69.5q-46 55 -70.5 133.5t-24.5 170.5q0 74 14 143q33 160 110 288.5t183 205t223 83.5q49 4 95.5 -14.5zM448 1001q-8 0 -14 6t-6 15q0 8 6 14t14 6q38 0 68.5 27t44.5 73q2 6 7.5 10.5t13.5 4.5l3 -1q9 -1 13.5 -8
t3.5 -16q-2 -7 -2 -16q0 -21 14 -39q13 -16 35.5 -24.5t39.5 -8.5q8 0 14 -6t6 -15q0 -8 -6 -14t-14 -6q-27 0 -57.5 12t-49.5 36q-13 17 -12 13q-12 -20 -46.5 -41.5t-75.5 -21.5zM462.5 1086.5q-7.5 0.5 -11.5 5.5l-91 89q-5 7 -4 15t9 14q7 6 16.5 6t14.5 -6l89 -87
q2 -2 4 -6q3 -6 1 -13t-8 -12q-2 -1 -5 -2q-7 -4 -14.5 -3.5z" />
    <glyph glyph-name="uni1ED3" unicode="&#x1ed3;" horiz-adv-x="510" 
d="M222 523q17 0 25 -17q2 -6 2 -9q0 -8 -5 -14.5t-12 -9.5q-57 -23 -104 -80.5t-66 -128.5q-10 -34 -10 -71q0 -60 29 -98q35 -44 78 -44q30 0 61.5 15t46.5 42q-28 23 -47.5 70t-19.5 107q0 50 19 99t51.5 80.5t70.5 31.5q21 0 37.5 -10.5t26.5 -30.5q17 -31 17 -80
q0 -56 -22.5 -126t-54.5 -119q15 -5 34 -5q48 0 84.5 40.5t51.5 112.5q6 23 26 23q21 0 21 -28q0 -9 -1 -14q-17 -88 -71 -135.5t-120 -47.5q-29 0 -56 9q-29 -42 -71.5 -63.5t-83.5 -21.5q-35 0 -66 17.5t-53 46.5q-39 51 -39 129q0 45 11 85q23 82 78 149t123 94q6 2 9 2z
M299 420.5q-21 -23.5 -34 -60.5t-13 -75q0 -42 13.5 -83t30.5 -51q33 46 53.5 108t20.5 116q0 36 -10 56q-7 13 -19 13q-21 0 -42 -23.5zM161 533q-8 0 -14 6t-6 15q0 8 6 14t14 6q38 0 68.5 27t44.5 73q2 6 7.5 10.5t13.5 4.5l3 -1q9 -1 13.5 -8t3.5 -16q-2 -7 -2 -16
q0 -21 14 -39q13 -16 35.5 -24.5t39.5 -8.5q8 0 14 -6t6 -15q0 -8 -6 -14t-14 -6q-27 0 -57.5 12t-49.5 36q-13 17 -12 13q-12 -20 -46.5 -41.5t-75.5 -21.5zM192.5 648.5q-7.5 0.5 -11.5 5.5l-91 89q-5 7 -4 15t9 14q7 6 16.5 6t14.5 -6l89 -87q2 -2 4 -6q3 -6 1 -13
t-8 -12q-2 -1 -5 -2q-7 -4 -14.5 -3.5z" />
    <glyph glyph-name="uni1ED4" unicode="&#x1ed4;" horiz-adv-x="800" 
d="M646.5 936.5q46.5 -18.5 82.5 -56.5q31 -33 47.5 -76t16.5 -88q0 -14 -1 -21q-1 -10 -9 -16t-18 -5q-10 2 -16.5 9.5t-5.5 17.5q1 5 1 16q0 34 -13.5 67.5t-37.5 61.5q-28 29 -64.5 44t-74.5 12q-107 -7 -203 -77.5t-166.5 -190.5t-101.5 -270q-13 -66 -13 -134
q0 -84 21 -153.5t61 -116.5q34 -37 77 -56.5t92 -19.5q99 0 173.5 64.5t121.5 145.5q48 81 74.5 174t26.5 176q0 79 -34.5 147.5t-134.5 62.5q-15 -1 -22.5 5.5t-7.5 16.5t7 18t20 9q102 6 163 -64q28 -35 43 -84.5t15 -110.5q0 -90 -28.5 -189.5t-79.5 -185.5
q-68 -113 -155 -174t-182 -61q-61 0 -113 23.5t-92 69.5q-46 55 -70.5 133.5t-24.5 170.5q0 74 14 143q33 160 110 288.5t183 205t223 83.5q49 4 95.5 -14.5zM445 1001q-8 0 -14 6t-6 15q0 8 6 14t14 6q38 0 68.5 27t44.5 73q2 6 7.5 10.5t13.5 4.5l3 -1q9 -1 13.5 -8
t3.5 -16q-2 -7 -2 -16q0 -21 14 -39q13 -16 35.5 -24.5t39.5 -8.5q8 0 14 -6t6 -15q0 -8 -6 -14t-14 -6q-27 0 -57.5 12t-49.5 36q-13 17 -12 13q-12 -20 -46.5 -41.5t-75.5 -21.5zM1525 1101q-5 0 -6 1q-6 0 -11 5.5t-5 12.5q0 4 1 7q4 10 16.5 24t20 21t9.5 14q2 5 2 8
q0 4 -2 6q-3 3 -14 3q-12 0 -20 -5.5t-19 -23.5q-1 -5 -7.5 -8.5t-13.5 -3.5q-9 0 -15.5 5.5t-6.5 12.5q0 5 1 7q1 4 9.5 17t26.5 25t45 12q15 0 27.5 -4t21.5 -13q12 -12 12 -30q0 -9 -4 -19q-5 -14 -15.5 -24.5l-19 -19t-12.5 -17.5q-2 -6 -8 -9.5t-13 -3.5z" />
    <glyph glyph-name="uni1ED5" unicode="&#x1ed5;" horiz-adv-x="510" 
d="M222 523q17 0 25 -17q2 -6 2 -9q0 -8 -5 -14.5t-12 -9.5q-57 -23 -104 -80.5t-66 -128.5q-10 -34 -10 -71q0 -60 29 -98q35 -44 78 -44q30 0 61.5 15t46.5 42q-28 23 -47.5 70t-19.5 107q0 50 19 99t51.5 80.5t70.5 31.5q21 0 37.5 -10.5t26.5 -30.5q17 -31 17 -80
q0 -56 -22.5 -126t-54.5 -119q15 -5 34 -5q48 0 84.5 40.5t51.5 112.5q6 23 26 23q21 0 21 -28q0 -9 -1 -14q-17 -88 -71 -135.5t-120 -47.5q-29 0 -56 9q-29 -42 -71.5 -63.5t-83.5 -21.5q-35 0 -66 17.5t-53 46.5q-39 51 -39 129q0 45 11 85q23 82 78 149t123 94q6 2 9 2z
M299 420.5q-21 -23.5 -34 -60.5t-13 -75q0 -42 13.5 -83t30.5 -51q33 46 53.5 108t20.5 116q0 36 -10 56q-7 13 -19 13q-21 0 -42 -23.5zM161 533q-8 0 -14 6t-6 15q0 8 6 14t14 6q38 0 68.5 27t44.5 73q2 6 7.5 10.5t13.5 4.5l3 -1q9 -1 13.5 -8t3.5 -16q-2 -7 -2 -16
q0 -21 14 -39q13 -16 35.5 -24.5t39.5 -8.5q8 0 14 -6t6 -15q0 -8 -6 -14t-14 -6q-27 0 -57.5 12t-49.5 36q-13 17 -12 13q-12 -20 -46.5 -41.5t-75.5 -21.5zM951 667q-5 0 -6 1q-6 0 -11 5.5t-5 12.5q0 4 1 7q4 10 16.5 24t20 21t9.5 14q2 5 2 8q0 4 -2 6q-3 3 -14 3
q-12 0 -20 -5.5t-19 -23.5q-1 -5 -7.5 -8.5t-13.5 -3.5q-9 0 -15.5 5.5t-6.5 12.5q0 5 1 7q1 4 9.5 17t26.5 25t45 12q15 0 27.5 -4t21.5 -13q12 -12 12 -30q0 -9 -4 -19q-5 -14 -15.5 -24.5l-19 -19t-12.5 -17.5q-2 -6 -8 -9.5t-13 -3.5z" />
    <glyph glyph-name="uni1ED6" unicode="&#x1ed6;" horiz-adv-x="800" 
d="M646.5 936.5q46.5 -18.5 82.5 -56.5q31 -33 47.5 -76t16.5 -88q0 -14 -1 -21q-1 -10 -9 -16t-18 -5q-10 2 -16.5 9.5t-5.5 17.5q1 5 1 16q0 34 -13.5 67.5t-37.5 61.5q-28 29 -64.5 44t-74.5 12q-107 -7 -203 -77.5t-166.5 -190.5t-101.5 -270q-13 -66 -13 -134
q0 -84 21 -153.5t61 -116.5q34 -37 77 -56.5t92 -19.5q99 0 173.5 64.5t121.5 145.5q48 81 74.5 174t26.5 176q0 79 -34.5 147.5t-134.5 62.5q-15 -1 -22.5 5.5t-7.5 16.5t7 18t20 9q102 6 163 -64q28 -35 43 -84.5t15 -110.5q0 -90 -28.5 -189.5t-79.5 -185.5
q-68 -113 -155 -174t-182 -61q-61 0 -113 23.5t-92 69.5q-46 55 -70.5 133.5t-24.5 170.5q0 74 14 143q33 160 110 288.5t183 205t223 83.5q49 4 95.5 -14.5zM445 1001q-8 0 -14 6t-6 15q0 8 6 14t14 6q38 0 68.5 27t44.5 73q2 6 7.5 10.5t13.5 4.5l3 -1q9 -1 13.5 -8
t3.5 -16q-2 -7 -2 -16q0 -21 14 -39q13 -16 35.5 -24.5t39.5 -8.5q8 0 14 -6t6 -15q0 -8 -6 -14t-14 -6q-27 0 -57.5 12t-49.5 36q-13 17 -12 13q-12 -20 -46.5 -41.5t-75.5 -21.5zM835 1090q-7 0 -9 1q-15 2 -30.5 8.5t-30.5 14.5q-16 9 -29.5 14t-25 5.5t-22 -4.5
t-22.5 -20q-7 -7 -17.5 -9t-18.5 6q-19 16 -2 36q37 46 88 43q21 -2 38.5 -10l34.5 -16q30 -16 43 -17.5t26 14.5q6 8 17 10t19 -6q7 -6 9.5 -16t-4.5 -19q-26 -35 -64 -35z" />
    <glyph glyph-name="uni1ED7" unicode="&#x1ed7;" horiz-adv-x="510" 
d="M222 523q17 0 25 -17q2 -6 2 -9q0 -8 -5 -14.5t-12 -9.5q-57 -23 -104 -80.5t-66 -128.5q-10 -34 -10 -71q0 -60 29 -98q35 -44 78 -44q30 0 61.5 15t46.5 42q-28 23 -47.5 70t-19.5 107q0 50 19 99t51.5 80.5t70.5 31.5q21 0 37.5 -10.5t26.5 -30.5q17 -31 17 -80
q0 -56 -22.5 -126t-54.5 -119q15 -5 34 -5q48 0 84.5 40.5t51.5 112.5q6 23 26 23q21 0 21 -28q0 -9 -1 -14q-17 -88 -71 -135.5t-120 -47.5q-29 0 -56 9q-29 -42 -71.5 -63.5t-83.5 -21.5q-35 0 -66 17.5t-53 46.5q-39 51 -39 129q0 45 11 85q23 82 78 149t123 94q6 2 9 2z
M299 420.5q-21 -23.5 -34 -60.5t-13 -75q0 -42 13.5 -83t30.5 -51q33 46 53.5 108t20.5 116q0 36 -10 56q-7 13 -19 13q-21 0 -42 -23.5zM161 533q-8 0 -14 6t-6 15q0 8 6 14t14 6q38 0 68.5 27t44.5 73q2 6 7.5 10.5t13.5 4.5l3 -1q9 -1 13.5 -8t3.5 -16q-2 -7 -2 -16
q0 -21 14 -39q13 -16 35.5 -24.5t39.5 -8.5q8 0 14 -6t6 -15q0 -8 -6 -14t-14 -6q-27 0 -57.5 12t-49.5 36q-13 17 -12 13q-12 -20 -46.5 -41.5t-75.5 -21.5zM562 627q-7 0 -9 1q-15 2 -30.5 8.5t-30.5 14.5q-16 9 -29.5 14t-25 5.5t-22 -4.5t-22.5 -20q-7 -7 -17.5 -9
t-18.5 6q-19 16 -2 36q37 46 88 43q21 -2 38.5 -10l34.5 -16q30 -16 43 -17.5t26 14.5q6 8 17 10t19 -6q7 -6 9.5 -16t-4.5 -19q-26 -35 -64 -35z" />
    <glyph glyph-name="uni1ED8" unicode="&#x1ed8;" horiz-adv-x="800" 
d="M646.5 936.5q46.5 -18.5 82.5 -56.5q31 -33 47.5 -76t16.5 -88q0 -14 -1 -21q-1 -10 -9 -16t-18 -5q-10 2 -16.5 9.5t-5.5 17.5q1 5 1 16q0 34 -13.5 67.5t-37.5 61.5q-28 29 -64.5 44t-74.5 12q-107 -7 -203 -77.5t-166.5 -190.5t-101.5 -270q-13 -66 -13 -134
q0 -84 21 -153.5t61 -116.5q34 -37 77 -56.5t92 -19.5q99 0 173.5 64.5t121.5 145.5q48 81 74.5 174t26.5 176q0 79 -34.5 147.5t-134.5 62.5q-15 -1 -22.5 5.5t-7.5 16.5t7 18t20 9q102 6 163 -64q28 -35 43 -84.5t15 -110.5q0 -90 -28.5 -189.5t-79.5 -185.5
q-68 -113 -155 -174t-182 -61q-61 0 -113 23.5t-92 69.5q-46 55 -70.5 133.5t-24.5 170.5q0 74 14 143q33 160 110 288.5t183 205t223 83.5q49 4 95.5 -14.5zM445 1002q-8 0 -14 6t-6 15q0 8 6 14t14 6q38 0 68.5 27t44.5 73q2 6 7.5 10.5t13.5 4.5l3 -1q9 -1 13.5 -8
t3.5 -16q-2 -7 -2 -16q0 -21 14 -39q13 -16 35.5 -24.5t39.5 -8.5q8 0 14 -6t6 -15q0 -8 -6 -14t-14 -6q-27 0 -57.5 12t-49.5 36q-13 17 -12 13q-12 -20 -46.5 -41.5t-75.5 -21.5zM231 -326q-19 19 -19 44q0 26 18.5 44t44.5 18t44 -18t18 -44t-18 -44.5t-44 -18.5
q-25 0 -44 19z" />
    <glyph glyph-name="uni1ED9" unicode="&#x1ed9;" horiz-adv-x="510" 
d="M222 523q17 0 25 -17q2 -6 2 -9q0 -8 -5 -14.5t-12 -9.5q-57 -23 -104 -80.5t-66 -128.5q-10 -34 -10 -71q0 -60 29 -98q35 -44 78 -44q30 0 61.5 15t46.5 42q-28 23 -47.5 70t-19.5 107q0 50 19 99t51.5 80.5t70.5 31.5q21 0 37.5 -10.5t26.5 -30.5q17 -31 17 -80
q0 -56 -22.5 -126t-54.5 -119q15 -5 34 -5q48 0 84.5 40.5t51.5 112.5q6 23 26 23q21 0 21 -28q0 -9 -1 -14q-17 -88 -71 -135.5t-120 -47.5q-29 0 -56 9q-29 -42 -71.5 -63.5t-83.5 -21.5q-35 0 -66 17.5t-53 46.5q-39 51 -39 129q0 45 11 85q23 82 78 149t123 94q6 2 9 2z
M299 420.5q-21 -23.5 -34 -60.5t-13 -75q0 -42 13.5 -83t30.5 -51q33 46 53.5 108t20.5 116q0 36 -10 56q-7 13 -19 13q-21 0 -42 -23.5zM161 533q-8 0 -14 6t-6 15q0 8 6 14t14 6q38 0 68.5 27t44.5 73q2 6 7.5 10.5t13.5 4.5l3 -1q9 -1 13.5 -8t3.5 -16q-2 -7 -2 -16
q0 -21 14 -39q13 -16 35.5 -24.5t39.5 -8.5q8 0 14 -6t6 -15q0 -8 -6 -14t-14 -6q-27 0 -57.5 12t-49.5 36q-13 17 -12 13q-12 -20 -46.5 -41.5t-75.5 -21.5zM65 -187q-19 19 -19 44q0 26 18.5 44t44.5 18t44 -18t18 -44t-18 -44.5t-44 -18.5q-25 0 -44 19z" />
    <glyph glyph-name="uni1EDB" unicode="&#x1edb;" horiz-adv-x="510" 
d="M265 360q-13 -37 -13 -75q0 -42 13.5 -83t30.5 -51q33 46 53.5 108t20.5 116q0 36 -10 56q-7 13 -19 13q-21 0 -42 -23.5t-34 -60.5zM406 453q16 -31 16 -78q0 -56 -22.5 -126t-54.5 -119q15 -5 34 -5q48 0 84.5 40.5t51.5 112.5q6 23 26 23q21 0 21 -28q0 -9 -1 -14
q-17 -88 -71 -135.5t-120 -47.5q-29 0 -56 9q-29 -42 -71.5 -63.5t-83.5 -21.5q-35 0 -66 17.5t-53 46.5q-39 51 -39 129q0 45 11 85q23 82 78 149t123 94q6 2 9 2q17 0 25 -17q2 -6 2 -9q0 -8 -5 -14.5t-12 -9.5q-57 -23 -104 -80.5t-66 -128.5q-10 -34 -10 -71
q0 -60 29 -98q35 -44 78 -44q30 0 61.5 15t46.5 42q-28 23 -47.5 70t-19.5 107q0 50 19 99t51.5 80.5t70.5 31.5q13 0 25 -4q13 1 30 9q40 18 18 77q-4 9 0.5 18.5t14.5 13.5q10 3 19 -1t12 -14q26 -101 -35 -134q-10 -5 -19 -8zM303 590q-3 1 -4 2q-7 5 -9 12t1 13q2 4 5 6
l88 87q5 6 14.5 6t17.5 -6q7 -6 8.5 -14t-4.5 -15l-90 -89q-5 -5 -12.5 -5.5t-14.5 3.5z" />
    <glyph glyph-name="uni1EDA" unicode="&#x1eda;" horiz-adv-x="800" 
d="M792 738q1 -11 1 -22q0 -14 -1 -21q-1 -10 -0.5 -25t-5 -92.5t-11.5 -132.5q-9 -91 -37.5 -190.5t-79.5 -185.5q-68 -113 -155 -174t-182 -61q-61 0 -113 23.5t-92 69.5q-46 55 -70.5 133.5t-24.5 170.5q0 74 14 143q33 160 110 288.5t183 205t223 83.5q49 4 95.5 -14.5
t82.5 -56.5q27 -28 42 -64q24 -28 44 -35q18 -7 40 8q29 20 33 57.5t-11 75.5q-4 9 0.5 18.5t14.5 13.5q10 3 19 -1t12 -14q10 -23 9.5 -89.5t-49.5 -100.5q-20 -14 -41.5 -17.5t-41.5 3.5q-4 1 -8 3zM743 701q1 5 1 16q0 34 -13.5 67.5t-37.5 61.5q-28 29 -64.5 44
t-74.5 12q-107 -7 -203 -77.5t-166.5 -190.5t-101.5 -270q-13 -66 -13 -134q0 -84 21 -153.5t61 -116.5q34 -37 77 -56.5t92 -19.5q99 0 173.5 64.5t121.5 145.5q48 81 74.5 174t33.5 174q15 138 16.5 193.5t2.5 65.5zM605 1004q-3 1 -4 2q-7 5 -9 12t1 13q2 4 5 6l88 87
q5 6 14.5 6t17.5 -6q7 -6 8.5 -14t-4.5 -15l-90 -89q-5 -5 -12.5 -5.5t-14.5 3.5z" />
    <glyph glyph-name="uni1EDC" unicode="&#x1edc;" horiz-adv-x="800" 
d="M792 738q1 -11 1 -22q0 -14 -1 -21q-1 -10 -0.5 -25t-5 -92.5t-11.5 -132.5q-9 -91 -37.5 -190.5t-79.5 -185.5q-68 -113 -155 -174t-182 -61q-61 0 -113 23.5t-92 69.5q-46 55 -70.5 133.5t-24.5 170.5q0 74 14 143q33 160 110 288.5t183 205t223 83.5q49 4 95.5 -14.5
t82.5 -56.5q27 -28 42 -64q24 -28 44 -35q18 -7 40 8q29 20 33 57.5t-11 75.5q-4 9 0.5 18.5t14.5 13.5q10 3 19 -1t12 -14q10 -23 9.5 -89.5t-49.5 -100.5q-20 -14 -41.5 -17.5t-41.5 3.5q-4 1 -8 3zM743 701q1 5 1 16q0 34 -13.5 67.5t-37.5 61.5q-28 29 -64.5 44
t-74.5 12q-107 -7 -203 -77.5t-166.5 -190.5t-101.5 -270q-13 -66 -13 -134q0 -84 21 -153.5t61 -116.5q34 -37 77 -56.5t92 -19.5q99 0 173.5 64.5t121.5 145.5q48 81 74.5 174t33.5 174q15 138 16.5 193.5t2.5 65.5zM653.5 1000.5q-7.5 0.5 -11.5 5.5l-91 89q-5 7 -4 15
t9 14q7 6 16.5 6t14.5 -6l89 -87q2 -2 4 -6q3 -6 1 -13t-8 -12q-2 -1 -5 -2q-7 -4 -14.5 -3.5z" />
    <glyph glyph-name="uni1EDE" unicode="&#x1ede;" horiz-adv-x="800" 
d="M792 738q1 -11 1 -22q0 -14 -1 -21q-1 -10 -0.5 -25t-5 -92.5t-11.5 -132.5q-9 -91 -37.5 -190.5t-79.5 -185.5q-68 -113 -155 -174t-182 -61q-61 0 -113 23.5t-92 69.5q-46 55 -70.5 133.5t-24.5 170.5q0 74 14 143q33 160 110 288.5t183 205t223 83.5q49 4 95.5 -14.5
t82.5 -56.5q27 -28 42 -64q24 -28 44 -35q18 -7 40 8q29 20 33 57.5t-11 75.5q-4 9 0.5 18.5t14.5 13.5q10 3 19 -1t12 -14q10 -23 9.5 -89.5t-49.5 -100.5q-20 -14 -41.5 -17.5t-41.5 3.5q-4 1 -8 3zM743 701q1 5 1 16q0 34 -13.5 67.5t-37.5 61.5q-28 29 -64.5 44
t-74.5 12q-107 -7 -203 -77.5t-166.5 -190.5t-101.5 -270q-13 -66 -13 -134q0 -84 21 -153.5t61 -116.5q34 -37 77 -56.5t92 -19.5q99 0 173.5 64.5t121.5 145.5q48 81 74.5 174t33.5 174q15 138 16.5 193.5t2.5 65.5zM1463 1001q-5 0 -6 1q-6 0 -11 5.5t-5 12.5q0 4 1 7
q4 10 16.5 24t20 21t9.5 14q2 5 2 8q0 4 -2 6q-3 3 -14 3q-12 0 -20 -5.5t-19 -23.5q-1 -5 -7.5 -8.5t-13.5 -3.5q-9 0 -15.5 5.5t-6.5 12.5q0 5 1 7q1 4 9.5 17t26.5 25t45 12q15 0 27.5 -4t21.5 -13q12 -12 12 -30q0 -9 -4 -19q-5 -14 -15.5 -24.5l-19 -19t-12.5 -17.5
q-2 -6 -8 -9.5t-13 -3.5z" />
    <glyph glyph-name="uni1EDF" unicode="&#x1edf;" horiz-adv-x="510" 
d="M265 360q-13 -37 -13 -75q0 -42 13.5 -83t30.5 -51q33 46 53.5 108t20.5 116q0 36 -10 56q-7 13 -19 13q-21 0 -42 -23.5t-34 -60.5zM406 453q16 -31 16 -78q0 -56 -22.5 -126t-54.5 -119q15 -5 34 -5q48 0 84.5 40.5t51.5 112.5q6 23 26 23q21 0 21 -28q0 -9 -1 -14
q-17 -88 -71 -135.5t-120 -47.5q-29 0 -56 9q-29 -42 -71.5 -63.5t-83.5 -21.5q-35 0 -66 17.5t-53 46.5q-39 51 -39 129q0 45 11 85q23 82 78 149t123 94q6 2 9 2q17 0 25 -17q2 -6 2 -9q0 -8 -5 -14.5t-12 -9.5q-57 -23 -104 -80.5t-66 -128.5q-10 -34 -10 -71
q0 -60 29 -98q35 -44 78 -44q30 0 61.5 15t46.5 42q-28 23 -47.5 70t-19.5 107q0 50 19 99t51.5 80.5t70.5 31.5q13 0 25 -4q13 1 30 9q40 18 18 77q-4 9 0.5 18.5t14.5 13.5q10 3 19 -1t12 -14q26 -101 -35 -134q-10 -5 -19 -8zM887 590q-5 0 -6 1q-6 0 -11 5.5t-5 12.5
q0 4 1 7q4 10 16.5 24t20 21t9.5 14q2 5 2 8q0 4 -2 6q-3 3 -14 3q-12 0 -20 -5.5t-19 -23.5q-1 -5 -7.5 -8.5t-13.5 -3.5q-9 0 -15.5 5.5t-6.5 12.5q0 5 1 7q1 4 9.5 17t26.5 25t45 12q15 0 27.5 -4t21.5 -13q12 -12 12 -30q0 -9 -4 -19q-5 -14 -15.5 -24.5l-19 -19
t-12.5 -17.5q-2 -6 -8 -9.5t-13 -3.5z" />
    <glyph glyph-name="uni1EE0" unicode="&#x1ee0;" horiz-adv-x="800" 
d="M792 738q1 -11 1 -22q0 -14 -1 -21q-1 -10 -0.5 -25t-5 -92.5t-11.5 -132.5q-9 -91 -37.5 -190.5t-79.5 -185.5q-68 -113 -155 -174t-182 -61q-61 0 -113 23.5t-92 69.5q-46 55 -70.5 133.5t-24.5 170.5q0 74 14 143q33 160 110 288.5t183 205t223 83.5q49 4 95.5 -14.5
t82.5 -56.5q27 -28 42 -64q24 -28 44 -35q18 -7 40 8q29 20 33 57.5t-11 75.5q-4 9 0.5 18.5t14.5 13.5q10 3 19 -1t12 -14q10 -23 9.5 -89.5t-49.5 -100.5q-20 -14 -41.5 -17.5t-41.5 3.5q-4 1 -8 3zM743 701q1 5 1 16q0 34 -13.5 67.5t-37.5 61.5q-28 29 -64.5 44
t-74.5 12q-107 -7 -203 -77.5t-166.5 -190.5t-101.5 -270q-13 -66 -13 -134q0 -84 21 -153.5t61 -116.5q34 -37 77 -56.5t92 -19.5q99 0 173.5 64.5t121.5 145.5q48 81 74.5 174t33.5 174q15 138 16.5 193.5t2.5 65.5zM669 1001q-7 0 -9 1q-15 2 -30.5 8.5t-30.5 14.5
q-16 9 -29.5 14t-25 5.5t-22 -4.5t-22.5 -20q-7 -7 -17.5 -9t-18.5 6q-19 16 -2 36q37 46 88 43q21 -2 38.5 -10l34.5 -16q30 -16 43 -17.5t26 14.5q6 8 17 10t19 -6q7 -6 9.5 -16t-4.5 -19q-26 -35 -64 -35z" />
    <glyph glyph-name="uni1EE1" unicode="&#x1ee1;" horiz-adv-x="510" 
d="M265 360q-13 -37 -13 -75q0 -42 13.5 -83t30.5 -51q33 46 53.5 108t20.5 116q0 36 -10 56q-7 13 -19 13q-21 0 -42 -23.5t-34 -60.5zM406 453q16 -31 16 -78q0 -56 -22.5 -126t-54.5 -119q15 -5 34 -5q48 0 84.5 40.5t51.5 112.5q6 23 26 23q21 0 21 -28q0 -9 -1 -14
q-17 -88 -71 -135.5t-120 -47.5q-29 0 -56 9q-29 -42 -71.5 -63.5t-83.5 -21.5q-35 0 -66 17.5t-53 46.5q-39 51 -39 129q0 45 11 85q23 82 78 149t123 94q6 2 9 2q17 0 25 -17q2 -6 2 -9q0 -8 -5 -14.5t-12 -9.5q-57 -23 -104 -80.5t-66 -128.5q-10 -34 -10 -71
q0 -60 29 -98q35 -44 78 -44q30 0 61.5 15t46.5 42q-28 23 -47.5 70t-19.5 107q0 50 19 99t51.5 80.5t70.5 31.5q13 0 25 -4q13 1 30 9q40 18 18 77q-4 9 0.5 18.5t14.5 13.5q10 3 19 -1t12 -14q26 -101 -35 -134q-10 -5 -19 -8zM318 533q-7 0 -9 1q-15 2 -30.5 8.5
t-30.5 14.5q-16 9 -29.5 14t-25 5.5t-22 -4.5t-22.5 -20q-7 -7 -17.5 -9t-18.5 6q-19 16 -2 36q37 46 88 43q21 -2 38.5 -10l34.5 -16q30 -16 43 -17.5t26 14.5q6 8 17 10t19 -6q7 -6 9.5 -16t-4.5 -19q-26 -35 -64 -35z" />
    <glyph glyph-name="uni1EE2" unicode="&#x1ee2;" horiz-adv-x="800" 
d="M792 738q1 -11 1 -22q0 -14 -1 -21q-1 -10 -0.5 -25t-5 -92.5t-11.5 -132.5q-9 -91 -37.5 -190.5t-79.5 -185.5q-68 -113 -155 -174t-182 -61q-61 0 -113 23.5t-92 69.5q-46 55 -70.5 133.5t-24.5 170.5q0 74 14 143q33 160 110 288.5t183 205t223 83.5q49 4 95.5 -14.5
t82.5 -56.5q27 -28 42 -64q24 -28 44 -35q18 -7 40 8q29 20 33 57.5t-11 75.5q-4 9 0.5 18.5t14.5 13.5q10 3 19 -1t12 -14q10 -23 9.5 -89.5t-49.5 -100.5q-20 -14 -41.5 -17.5t-41.5 3.5q-4 1 -8 3zM743 701q1 5 1 16q0 34 -13.5 67.5t-37.5 61.5q-28 29 -64.5 44
t-74.5 12q-107 -7 -203 -77.5t-166.5 -190.5t-101.5 -270q-13 -66 -13 -134q0 -84 21 -153.5t61 -116.5q34 -37 77 -56.5t92 -19.5q99 0 173.5 64.5t121.5 145.5q48 81 74.5 174t33.5 174q15 138 16.5 193.5t2.5 65.5zM229 -330q-19 19 -19 44q0 26 18.5 44t44.5 18t44 -18
t18 -44t-18 -44.5t-44 -18.5q-25 0 -44 19z" />
    <glyph glyph-name="uni1EE3" unicode="&#x1ee3;" horiz-adv-x="510" 
d="M265 360q-13 -37 -13 -75q0 -42 13.5 -83t30.5 -51q33 46 53.5 108t20.5 116q0 36 -10 56q-7 13 -19 13q-21 0 -42 -23.5t-34 -60.5zM406 453q16 -31 16 -78q0 -56 -22.5 -126t-54.5 -119q15 -5 34 -5q48 0 84.5 40.5t51.5 112.5q6 23 26 23q21 0 21 -28q0 -9 -1 -14
q-17 -88 -71 -135.5t-120 -47.5q-29 0 -56 9q-29 -42 -71.5 -63.5t-83.5 -21.5q-35 0 -66 17.5t-53 46.5q-39 51 -39 129q0 45 11 85q23 82 78 149t123 94q6 2 9 2q17 0 25 -17q2 -6 2 -9q0 -8 -5 -14.5t-12 -9.5q-57 -23 -104 -80.5t-66 -128.5q-10 -34 -10 -71
q0 -60 29 -98q35 -44 78 -44q30 0 61.5 15t46.5 42q-28 23 -47.5 70t-19.5 107q0 50 19 99t51.5 80.5t70.5 31.5q13 0 25 -4q13 1 30 9q40 18 18 77q-4 9 0.5 18.5t14.5 13.5q10 3 19 -1t12 -14q26 -101 -35 -134q-10 -5 -19 -8zM85 -187q-19 19 -19 44q0 26 18.5 44
t44.5 18t44 -18t18 -44t-18 -44.5t-44 -18.5q-25 0 -44 19z" />
    <glyph glyph-name="uni1EE4" unicode="&#x1ee4;" horiz-adv-x="1150" 
d="M1261 704q8 -8 8 -18q0 -11 -7.5 -19t-18.5 -8q-38 0 -67 -42t-49.5 -102t-48.5 -160l-18 -66l-3 -10q-67 -235 -67 -340q0 -51 17 -70q8 -8 8 -18q0 -11 -8 -19q-7 -7 -18 -7t-19 7q-32 33 -32 111q0 62 19 149q-61 -99 -132 -154.5t-157 -55.5q-100 0 -154 71
q-53 68 -53 186q-51 -16 -107 -16q-81 0 -149 31.5t-114 91.5q-36 46 -54.5 104t-18.5 123q0 57 15 117q32 122 115.5 213.5t192.5 121.5q40 12 79 12q87 0 144 -55q67 -65 67 -188q0 -69 -23 -157l-73 -238q-9 -34 -16 -79q74 39 132 103.5t83 144.5q2 8 9 13t15 5
q14 0 22 -11t4 -23q-30 -95 -103 -173.5t-167 -120.5q-5 -114 41 -173q40 -51 113 -51q83 0 152.5 69.5t113.5 153t86 183.5q35 126 60 196.5t65.5 123t97.5 52.5q10 0 18 -8zM484 313l74 238q20 80 20 141q0 103 -51 152q-40 40 -107 40q-31 0 -65 -9q-55 -15 -109.5 -55
t-98 -102t-63.5 -141q-14 -54 -14 -104q0 -55 16 -105t47 -90q38 -50 95 -76.5t126 -26.5q53 0 110 21q4 51 20 117zM596 -317q-19 19 -19 44q0 26 18.5 44t44.5 18t44 -18t18 -44t-18 -44.5t-44 -18.5q-25 0 -44 19z" />
    <glyph glyph-name="uni1EE5" unicode="&#x1ee5;" horiz-adv-x="498" 
d="M552 266.5q7 -9.5 5 -20.5q-13 -44 -32 -92t-62 -100.5t-103 -52.5q-55 0 -85 39q-17 24 -24 64q-61 -103 -139 -103q-55 0 -84 39q-28 37 -28 108q0 44 9 87t15 61l49 185q3 10 11.5 15t18.5 3q10 -3 15 -11.5t2 -18.5l-49 -186q-8 -26 -15 -64t-7 -73q0 -52 18 -77
q15 -20 45 -20q51 0 90.5 67t58.5 137q5 28 11 43l49 185q3 10 11.5 15t18.5 3q10 -3 15 -11.5t2 -18.5l-49 -186q-8 -26 -15 -64t-7 -73q0 -52 18 -77q15 -20 45 -20q36 0 67.5 37t52 85t30.5 87q2 8 8.5 13t14.5 5q12 0 19 -9.5zM119 -187q-19 19 -19 44q0 26 18.5 44
t44.5 18t44 -18t18 -44t-18 -44.5t-44 -18.5q-25 0 -44 19z" />
    <glyph glyph-name="uni1EE6" unicode="&#x1ee6;" horiz-adv-x="1150" 
d="M1261 704q8 -8 8 -18q0 -11 -7.5 -19t-18.5 -8q-38 0 -67 -42t-49.5 -102t-48.5 -160l-18 -66l-3 -10q-67 -235 -67 -340q0 -51 17 -70q8 -8 8 -18q0 -11 -8 -19q-7 -7 -18 -7t-19 7q-32 33 -32 111q0 62 19 149q-61 -99 -132 -154.5t-157 -55.5q-100 0 -154 71
q-53 68 -53 186q-51 -16 -107 -16q-81 0 -149 31.5t-114 91.5q-36 46 -54.5 104t-18.5 123q0 57 15 117q32 122 115.5 213.5t192.5 121.5q40 12 79 12q87 0 144 -55q67 -65 67 -188q0 -69 -23 -157l-73 -238q-9 -34 -16 -79q74 39 132 103.5t83 144.5q2 8 9 13t15 5
q14 0 22 -11t4 -23q-30 -95 -103 -173.5t-167 -120.5q-5 -114 41 -173q40 -51 113 -51q83 0 152.5 69.5t113.5 153t86 183.5q35 126 60 196.5t65.5 123t97.5 52.5q10 0 18 -8zM484 313l74 238q20 80 20 141q0 103 -51 152q-40 40 -107 40q-31 0 -65 -9q-55 -15 -109.5 -55
t-98 -102t-63.5 -141q-14 -54 -14 -104q0 -55 16 -105t47 -90q38 -50 95 -76.5t126 -26.5q53 0 110 21q4 51 20 117zM1773 790q-5 0 -6 1q-6 0 -11 5.5t-5 12.5q0 4 1 7q4 10 16.5 24t20 21t9.5 14q2 5 2 8q0 4 -2 6q-3 3 -14 3q-12 0 -20 -5.5t-19 -23.5q-1 -5 -7.5 -8.5
t-13.5 -3.5q-9 0 -15.5 5.5t-6.5 12.5q0 5 1 7q1 4 9.5 17t26.5 25t45 12q15 0 27.5 -4t21.5 -13q12 -12 12 -30q0 -9 -4 -19q-5 -14 -15.5 -24.5l-19 -19t-12.5 -17.5q-2 -6 -8 -9.5t-13 -3.5z" />
    <glyph glyph-name="uni1EE7" unicode="&#x1ee7;" horiz-adv-x="498" 
d="M552 266.5q7 -9.5 5 -20.5q-13 -44 -32 -92t-62 -100.5t-103 -52.5q-55 0 -85 39q-17 24 -24 64q-61 -103 -139 -103q-55 0 -84 39q-28 37 -28 108q0 44 9 87t15 61l49 185q3 10 11.5 15t18.5 3q10 -3 15 -11.5t2 -18.5l-49 -186q-8 -26 -15 -64t-7 -73q0 -52 18 -77
q15 -20 45 -20q51 0 90.5 67t58.5 137q5 28 11 43l49 185q3 10 11.5 15t18.5 3q10 -3 15 -11.5t2 -18.5l-49 -186q-8 -26 -15 -64t-7 -73q0 -52 18 -77q15 -20 45 -20q36 0 67.5 37t52 85t30.5 87q2 8 8.5 13t14.5 5q12 0 19 -9.5zM792 537q-5 0 -6 1q-6 0 -11 5.5t-5 12.5
q0 4 1 7q4 10 16.5 24t20 21t9.5 14q2 5 2 8q0 4 -2 6q-3 3 -14 3q-12 0 -20 -5.5t-19 -23.5q-1 -5 -7.5 -8.5t-13.5 -3.5q-9 0 -15.5 5.5t-6.5 12.5q0 5 1 7q1 4 9.5 17t26.5 25t45 12q15 0 27.5 -4t21.5 -13q12 -12 12 -30q0 -9 -4 -19q-5 -14 -15.5 -24.5l-19 -19
t-12.5 -17.5q-2 -6 -8 -9.5t-13 -3.5z" />
    <glyph glyph-name="uni1EE8" unicode="&#x1ee8;" horiz-adv-x="1150" 
d="M484 313l74 238q20 80 20 141q0 103 -51 152q-40 40 -107 40q-31 0 -65 -9q-55 -15 -109.5 -55t-98 -102t-63.5 -141q-14 -54 -14 -104q0 -55 16 -105t47 -90q38 -50 95 -76.5t126 -26.5q53 0 110 21q4 51 20 117zM1218 654q-23 -9 -42 -37q-29 -42 -49.5 -102
t-48.5 -160l-18 -66l-3 -10q-67 -235 -67 -340q0 -51 17 -70q8 -8 8 -18q0 -11 -8 -19q-7 -7 -18 -7t-19 7q-32 33 -32 111q0 62 19 149q-61 -99 -132 -154.5t-157 -55.5q-100 0 -154 71q-53 68 -53 186q-51 -16 -107 -16q-81 0 -149 31.5t-114 91.5q-36 46 -54.5 104
t-18.5 123q0 57 15 117q32 122 115.5 213.5t192.5 121.5q40 12 79 12q87 0 144 -55q67 -65 67 -188q0 -69 -23 -157l-73 -238q-9 -34 -16 -79q74 39 132 103.5t83 144.5q2 8 9 13t15 5q14 0 22 -11t4 -23q-30 -95 -103 -173.5t-167 -120.5q-5 -114 41 -173q40 -51 113 -51
q83 0 152.5 69.5t113.5 153t86 183.5q35 126 60 196.5t65.5 123t97.5 52.5q10 0 18 -8t8 -18q10 -21 21 -25q18 -7 40 8q29 20 33 57.5t-11 75.5q-4 9 0.5 18.5t14.5 13.5q10 3 19 -1t12 -14q10 -23 9.5 -89.5t-49.5 -100.5q-20 -14 -41.5 -17.5t-41.5 3.5q-29 8 -57 39z
M951 836q-3 1 -4 2q-7 5 -9 12t1 13q2 4 5 6l88 87q5 6 14.5 6t17.5 -6q7 -6 8.5 -14t-4.5 -15l-90 -89q-5 -5 -12.5 -5.5t-14.5 3.5z" />
    <glyph glyph-name="uni1EE9" unicode="&#x1ee9;" horiz-adv-x="498" 
d="M362 447l-43 -164q-8 -26 -15 -64t-7 -73q0 -52 18 -77q15 -20 45 -20q36 0 67.5 37t52 85t30.5 87q2 8 8.5 13t14.5 5q12 0 19 -9.5t5 -20.5q-13 -44 -32 -92t-62 -100.5t-103 -52.5q-55 0 -85 39q-17 24 -24 64q-61 -103 -139 -103q-55 0 -84 39q-28 37 -28 108
q0 44 9 87t15 61l49 185q3 10 11.5 15t18.5 3q10 -3 15 -11.5t2 -18.5l-49 -186q-8 -26 -15 -64t-7 -73q0 -52 18 -77q15 -20 45 -20q51 0 90.5 67t58.5 137q5 28 11 43l49 185q3 10 11.5 15t18.5 3q4 -1 7 -3q15 -1 34 9q40 18 18 77q-4 9 0.5 18.5t14.5 13.5q10 3 19 -1
t12 -14q26 -101 -35 -134q-27 -13 -48 -16q-6 -1 -11 -2zM200 558q-3 1 -4 2q-7 5 -9 12t1 13q2 4 5 6l88 87q5 6 14.5 6t17.5 -6q7 -6 8.5 -14t-4.5 -15l-90 -89q-5 -5 -12.5 -5.5t-14.5 3.5z" />
    <glyph glyph-name="uni1EEA" unicode="&#x1eea;" horiz-adv-x="1150" 
d="M484 313l74 238q20 80 20 141q0 103 -51 152q-40 40 -107 40q-31 0 -65 -9q-55 -15 -109.5 -55t-98 -102t-63.5 -141q-14 -54 -14 -104q0 -55 16 -105t47 -90q38 -50 95 -76.5t126 -26.5q53 0 110 21q4 51 20 117zM1218 654q-23 -9 -42 -37q-29 -42 -49.5 -102
t-48.5 -160l-18 -66l-3 -10q-67 -235 -67 -340q0 -51 17 -70q8 -8 8 -18q0 -11 -8 -19q-7 -7 -18 -7t-19 7q-32 33 -32 111q0 62 19 149q-61 -99 -132 -154.5t-157 -55.5q-100 0 -154 71q-53 68 -53 186q-51 -16 -107 -16q-81 0 -149 31.5t-114 91.5q-36 46 -54.5 104
t-18.5 123q0 57 15 117q32 122 115.5 213.5t192.5 121.5q40 12 79 12q87 0 144 -55q67 -65 67 -188q0 -69 -23 -157l-73 -238q-9 -34 -16 -79q74 39 132 103.5t83 144.5q2 8 9 13t15 5q14 0 22 -11t4 -23q-30 -95 -103 -173.5t-167 -120.5q-5 -114 41 -173q40 -51 113 -51
q83 0 152.5 69.5t113.5 153t86 183.5q35 126 60 196.5t65.5 123t97.5 52.5q10 0 18 -8t8 -18q10 -21 21 -25q18 -7 40 8q29 20 33 57.5t-11 75.5q-4 9 0.5 18.5t14.5 13.5q10 3 19 -1t12 -14q10 -23 9.5 -89.5t-49.5 -100.5q-20 -14 -41.5 -17.5t-41.5 3.5q-29 8 -57 39z
M930.5 808.5q-7.5 0.5 -11.5 5.5l-91 89q-5 7 -4 15t9 14q7 6 16.5 6t14.5 -6l89 -87q2 -2 4 -6q3 -6 1 -13t-8 -12q-2 -1 -5 -2q-7 -4 -14.5 -3.5z" />
    <glyph glyph-name="uni1EEB" unicode="&#x1eeb;" horiz-adv-x="498" 
d="M362 447l-43 -164q-8 -26 -15 -64t-7 -73q0 -52 18 -77q15 -20 45 -20q36 0 67.5 37t52 85t30.5 87q2 8 8.5 13t14.5 5q12 0 19 -9.5t5 -20.5q-13 -44 -32 -92t-62 -100.5t-103 -52.5q-55 0 -85 39q-17 24 -24 64q-61 -103 -139 -103q-55 0 -84 39q-28 37 -28 108
q0 44 9 87t15 61l49 185q3 10 11.5 15t18.5 3q10 -3 15 -11.5t2 -18.5l-49 -186q-8 -26 -15 -64t-7 -73q0 -52 18 -77q15 -20 45 -20q51 0 90.5 67t58.5 137q5 28 11 43l49 185q3 10 11.5 15t18.5 3q4 -1 7 -3q15 -1 34 9q40 18 18 77q-4 9 0.5 18.5t14.5 13.5q10 3 19 -1
t12 -14q26 -101 -35 -134q-27 -13 -48 -16q-6 -1 -11 -2zM260.5 539.5q-7.5 0.5 -11.5 5.5l-91 89q-5 7 -4 15t9 14q7 6 16.5 6t14.5 -6l89 -87q2 -2 4 -6q3 -6 1 -13t-8 -12q-2 -1 -5 -2q-7 -4 -14.5 -3.5z" />
    <glyph glyph-name="uni1EEC" unicode="&#x1eec;" horiz-adv-x="1150" 
d="M484 313l74 238q20 80 20 141q0 103 -51 152q-40 40 -107 40q-31 0 -65 -9q-55 -15 -109.5 -55t-98 -102t-63.5 -141q-14 -54 -14 -104q0 -55 16 -105t47 -90q38 -50 95 -76.5t126 -26.5q53 0 110 21q4 51 20 117zM1218 654q-23 -9 -42 -37q-29 -42 -49.5 -102
t-48.5 -160l-18 -66l-3 -10q-67 -235 -67 -340q0 -51 17 -70q8 -8 8 -18q0 -11 -8 -19q-7 -7 -18 -7t-19 7q-32 33 -32 111q0 62 19 149q-61 -99 -132 -154.5t-157 -55.5q-100 0 -154 71q-53 68 -53 186q-51 -16 -107 -16q-81 0 -149 31.5t-114 91.5q-36 46 -54.5 104
t-18.5 123q0 57 15 117q32 122 115.5 213.5t192.5 121.5q40 12 79 12q87 0 144 -55q67 -65 67 -188q0 -69 -23 -157l-73 -238q-9 -34 -16 -79q74 39 132 103.5t83 144.5q2 8 9 13t15 5q14 0 22 -11t4 -23q-30 -95 -103 -173.5t-167 -120.5q-5 -114 41 -173q40 -51 113 -51
q83 0 152.5 69.5t113.5 153t86 183.5q35 126 60 196.5t65.5 123t97.5 52.5q10 0 18 -8t8 -18q10 -21 21 -25q18 -7 40 8q29 20 33 57.5t-11 75.5q-4 9 0.5 18.5t14.5 13.5q10 3 19 -1t12 -14q10 -23 9.5 -89.5t-49.5 -100.5q-20 -14 -41.5 -17.5t-41.5 3.5q-29 8 -57 39z
M1807 807q-5 0 -6 1q-6 0 -11 5.5t-5 12.5q0 4 1 7q4 10 16.5 24t20 21t9.5 14q2 5 2 8q0 4 -2 6q-3 3 -14 3q-12 0 -20 -5.5t-19 -23.5q-1 -5 -7.5 -8.5t-13.5 -3.5q-9 0 -15.5 5.5t-6.5 12.5q0 5 1 7q1 4 9.5 17t26.5 25t45 12q15 0 27.5 -4t21.5 -13q12 -12 12 -30
q0 -9 -4 -19q-5 -14 -15.5 -24.5l-19 -19t-12.5 -17.5q-2 -6 -8 -9.5t-13 -3.5z" />
    <glyph glyph-name="uni1EED" unicode="&#x1eed;" horiz-adv-x="498" 
d="M362 447l-43 -164q-8 -26 -15 -64t-7 -73q0 -52 18 -77q15 -20 45 -20q36 0 67.5 37t52 85t30.5 87q2 8 8.5 13t14.5 5q12 0 19 -9.5t5 -20.5q-13 -44 -32 -92t-62 -100.5t-103 -52.5q-55 0 -85 39q-17 24 -24 64q-61 -103 -139 -103q-55 0 -84 39q-28 37 -28 108
q0 44 9 87t15 61l49 185q3 10 11.5 15t18.5 3q10 -3 15 -11.5t2 -18.5l-49 -186q-8 -26 -15 -64t-7 -73q0 -52 18 -77q15 -20 45 -20q51 0 90.5 67t58.5 137q5 28 11 43l49 185q3 10 11.5 15t18.5 3q4 -1 7 -3q15 -1 34 9q40 18 18 77q-4 9 0.5 18.5t14.5 13.5q10 3 19 -1
t12 -14q26 -101 -35 -134q-27 -13 -48 -16q-6 -1 -11 -2zM782 563q-5 0 -6 1q-6 0 -11 5.5t-5 12.5q0 4 1 7q4 10 16.5 24t20 21t9.5 14q2 5 2 8q0 4 -2 6q-3 3 -14 3q-12 0 -20 -5.5t-19 -23.5q-1 -5 -7.5 -8.5t-13.5 -3.5q-9 0 -15.5 5.5t-6.5 12.5q0 5 1 7q1 4 9.5 17
t26.5 25t45 12q15 0 27.5 -4t21.5 -13q12 -12 12 -30q0 -9 -4 -19q-5 -14 -15.5 -24.5l-19 -19t-12.5 -17.5q-2 -6 -8 -9.5t-13 -3.5z" />
    <glyph glyph-name="uni1EEE" unicode="&#x1eee;" horiz-adv-x="1150" 
d="M484 313l74 238q20 80 20 141q0 103 -51 152q-40 40 -107 40q-31 0 -65 -9q-55 -15 -109.5 -55t-98 -102t-63.5 -141q-14 -54 -14 -104q0 -55 16 -105t47 -90q38 -50 95 -76.5t126 -26.5q53 0 110 21q4 51 20 117zM1218 654q-23 -9 -42 -37q-29 -42 -49.5 -102
t-48.5 -160l-18 -66l-3 -10q-67 -235 -67 -340q0 -51 17 -70q8 -8 8 -18q0 -11 -8 -19q-7 -7 -18 -7t-19 7q-32 33 -32 111q0 62 19 149q-61 -99 -132 -154.5t-157 -55.5q-100 0 -154 71q-53 68 -53 186q-51 -16 -107 -16q-81 0 -149 31.5t-114 91.5q-36 46 -54.5 104
t-18.5 123q0 57 15 117q32 122 115.5 213.5t192.5 121.5q40 12 79 12q87 0 144 -55q67 -65 67 -188q0 -69 -23 -157l-73 -238q-9 -34 -16 -79q74 39 132 103.5t83 144.5q2 8 9 13t15 5q14 0 22 -11t4 -23q-30 -95 -103 -173.5t-167 -120.5q-5 -114 41 -173q40 -51 113 -51
q83 0 152.5 69.5t113.5 153t86 183.5q35 126 60 196.5t65.5 123t97.5 52.5q10 0 18 -8t8 -18q10 -21 21 -25q18 -7 40 8q29 20 33 57.5t-11 75.5q-4 9 0.5 18.5t14.5 13.5q10 3 19 -1t12 -14q10 -23 9.5 -89.5t-49.5 -100.5q-20 -14 -41.5 -17.5t-41.5 3.5q-29 8 -57 39z
M1018 841q-7 0 -9 1q-15 2 -30.5 8.5t-30.5 14.5q-16 9 -29.5 14t-25 5.5t-22 -4.5t-22.5 -20q-7 -7 -17.5 -9t-18.5 6q-19 16 -2 36q37 46 88 43q21 -2 38.5 -10l34.5 -16q30 -16 43 -17.5t26 14.5q6 8 17 10t19 -6q7 -6 9.5 -16t-4.5 -19q-26 -35 -64 -35z" />
    <glyph glyph-name="uni1EEF" unicode="&#x1eef;" horiz-adv-x="498" 
d="M362 447l-43 -164q-8 -26 -15 -64t-7 -73q0 -52 18 -77q15 -20 45 -20q36 0 67.5 37t52 85t30.5 87q2 8 8.5 13t14.5 5q12 0 19 -9.5t5 -20.5q-13 -44 -32 -92t-62 -100.5t-103 -52.5q-55 0 -85 39q-17 24 -24 64q-61 -103 -139 -103q-55 0 -84 39q-28 37 -28 108
q0 44 9 87t15 61l49 185q3 10 11.5 15t18.5 3q10 -3 15 -11.5t2 -18.5l-49 -186q-8 -26 -15 -64t-7 -73q0 -52 18 -77q15 -20 45 -20q51 0 90.5 67t58.5 137q5 28 11 43l49 185q3 10 11.5 15t18.5 3q4 -1 7 -3q15 -1 34 9q40 18 18 77q-4 9 0.5 18.5t14.5 13.5q10 3 19 -1
t12 -14q26 -101 -35 -134q-27 -13 -48 -16q-6 -1 -11 -2zM310 598q-7 0 -9 1q-15 2 -30.5 8.5t-30.5 14.5q-16 9 -29.5 14t-25 5.5t-22 -4.5t-22.5 -20q-7 -7 -17.5 -9t-18.5 6q-19 16 -2 36q37 46 88 43q21 -2 38.5 -10l34.5 -16q30 -16 43 -17.5t26 14.5q6 8 17 10t19 -6
q7 -6 9.5 -16t-4.5 -19q-26 -35 -64 -35z" />
    <glyph glyph-name="uni1EF0" unicode="&#x1ef0;" horiz-adv-x="1150" 
d="M484 313l74 238q20 80 20 141q0 103 -51 152q-40 40 -107 40q-31 0 -65 -9q-55 -15 -109.5 -55t-98 -102t-63.5 -141q-14 -54 -14 -104q0 -55 16 -105t47 -90q38 -50 95 -76.5t126 -26.5q53 0 110 21q4 51 20 117zM1218 654q-23 -9 -42 -37q-29 -42 -49.5 -102
t-48.5 -160l-18 -66l-3 -10q-67 -235 -67 -340q0 -51 17 -70q8 -8 8 -18q0 -11 -8 -19q-7 -7 -18 -7t-19 7q-32 33 -32 111q0 62 19 149q-61 -99 -132 -154.5t-157 -55.5q-100 0 -154 71q-53 68 -53 186q-51 -16 -107 -16q-81 0 -149 31.5t-114 91.5q-36 46 -54.5 104
t-18.5 123q0 57 15 117q32 122 115.5 213.5t192.5 121.5q40 12 79 12q87 0 144 -55q67 -65 67 -188q0 -69 -23 -157l-73 -238q-9 -34 -16 -79q74 39 132 103.5t83 144.5q2 8 9 13t15 5q14 0 22 -11t4 -23q-30 -95 -103 -173.5t-167 -120.5q-5 -114 41 -173q40 -51 113 -51
q83 0 152.5 69.5t113.5 153t86 183.5q35 126 60 196.5t65.5 123t97.5 52.5q10 0 18 -8t8 -18q10 -21 21 -25q18 -7 40 8q29 20 33 57.5t-11 75.5q-4 9 0.5 18.5t14.5 13.5q10 3 19 -1t12 -14q10 -23 9.5 -89.5t-49.5 -100.5q-20 -14 -41.5 -17.5t-41.5 3.5q-29 8 -57 39z
M576 -324q-19 19 -19 44q0 26 18.5 44t44.5 18t44 -18t18 -44t-18 -44.5t-44 -18.5q-25 0 -44 19z" />
    <glyph glyph-name="uni1EF1" unicode="&#x1ef1;" horiz-adv-x="498" 
d="M362 447l-43 -164q-8 -26 -15 -64t-7 -73q0 -52 18 -77q15 -20 45 -20q36 0 67.5 37t52 85t30.5 87q2 8 8.5 13t14.5 5q12 0 19 -9.5t5 -20.5q-13 -44 -32 -92t-62 -100.5t-103 -52.5q-55 0 -85 39q-17 24 -24 64q-61 -103 -139 -103q-55 0 -84 39q-28 37 -28 108
q0 44 9 87t15 61l49 185q3 10 11.5 15t18.5 3q10 -3 15 -11.5t2 -18.5l-49 -186q-8 -26 -15 -64t-7 -73q0 -52 18 -77q15 -20 45 -20q51 0 90.5 67t58.5 137q5 28 11 43l49 185q3 10 11.5 15t18.5 3q4 -1 7 -3q15 -1 34 9q40 18 18 77q-4 9 0.5 18.5t14.5 13.5q10 3 19 -1
t12 -14q26 -101 -35 -134q-27 -13 -48 -16q-6 -1 -11 -2zM102 -187q-19 19 -19 44q0 26 18.5 44t44.5 18t44 -18t18 -44t-18 -44.5t-44 -18.5q-25 0 -44 19z" />
    <glyph glyph-name="Ygrave" unicode="&#x1ef2;" horiz-adv-x="1000" 
d="M1053 249q5 -9 2 -19q-38 -143 -111.5 -215t-172.5 -102l-27 -95q-18 -49 -36 -86t-70 -84t-129 -47q-40 0 -70 19.5t-45 54.5q-10 24 -10 56q0 37 16 74.5t46 67.5q27 27 66.5 38.5t111.5 22.5q72 10 106 19l56 202q-110 -156 -242 -156q-40 0 -73 15.5t-55 44.5
q-29 35 -38 87q-50 -14 -92 -14q-62 0 -119.5 30t-97.5 82q-67 88 -67 211q0 62 18 130q23 86 75 151t118 100t129 35q26 0 50 -6q44 -12 85 -55.5t41 -140.5q0 -55 -19 -130l-61 -195q-17 -74 -17 -130q64 29 113.5 79.5t69.5 114.5q2 8 9 13t15 5q13 0 20.5 -10.5
t3.5 -21.5q-24 -79 -86 -139t-141 -93q8 -45 30 -72q32 -41 89 -41q93 0 166.5 88.5t128.5 218.5l4 19q19 83 42.5 140.5t27 63l37.5 57.5q8 8 19 8q10 0 17 -7q8 -8 8 -18t-7 -17q-5 -5 -20.5 -30.5t-36.5 -78t-38 -129.5q-20 -91 -105 -394q77 29 133 92.5t87 179.5
q3 10 12 15.5t19 2.5q10 -2 15 -11zM467 667q0 61 -22.5 99.5t-65.5 50.5q-20 5 -37 5q-52 0 -108 -31t-100.5 -88t-64.5 -131q-17 -63 -17 -119q0 -105 56 -179q34 -43 81 -67.5t97 -24.5q37 0 86 13l-1 22q0 59 19 140l61 196q16 61 16 114zM715 -101q-44 -9 -84 -15
q-62 -9 -96 -18t-53 -28q-25 -24 -37 -52t-12 -55q0 -18 7 -37q9 -21 26.5 -32.5t42.5 -11.5q61 0 102.5 40t66.5 94t18 47q0 3 19 68zM797.5 703.5q-7.5 0.5 -11.5 5.5l-91 89q-5 7 -4 15t9 14q7 6 16.5 6t14.5 -6l89 -87q2 -2 4 -6q3 -6 1 -13t-8 -12q-2 -1 -5 -2
q-7 -4 -14.5 -3.5z" />
    <glyph glyph-name="ygrave" unicode="&#x1ef3;" horiz-adv-x="530" 
d="M596.5 263.5q4.5 -8.5 2.5 -18.5q-43 -159 -124.5 -237.5t-191.5 -110.5l-21 -72q-10 -37 -11 -38q-5 -24 -31.5 -80.5t-83.5 -108t-143 -51.5q-43 0 -75.5 21t-48.5 59q-12 28 -12 62q0 40 18 81t51 75q33 32 80.5 46t127.5 26q62 9 110 19l43 154q-71 -82 -150 -82
q-53 0 -83 39q-27 38 -27 105q0 62 23 146l49 182q3 9 11.5 14t17.5 3q10 -3 15 -11.5t2 -18.5l-49 -182q-8 -27 -14.5 -63.5t-6.5 -69.5q0 -52 18 -77q15 -19 44 -19q44 0 84.5 36.5t69.5 84.5t43 86l1 2q37 135 55 214q1 8 7.5 13.5t14.5 5.5q12 0 19 -9t5 -21
q-28 -126 -138 -516q89 30 154 100.5t101 204.5q2 10 10.5 15t18.5 2q10 -2 14.5 -10.5zM229 -116q-25 -5 -88 -14q-75 -12 -115.5 -23t-65.5 -36q-28 -29 -41.5 -60.5t-13.5 -60.5q0 -26 9 -45q10 -24 30.5 -37t48.5 -13q69 0 116 45t71.5 97t24.5 62zM243.5 539.5
q-7.5 0.5 -11.5 5.5l-91 89q-5 7 -4 15t9 14q7 6 16.5 6t14.5 -6l89 -87q2 -2 4 -6q3 -6 1 -13t-8 -12q-2 -1 -5 -2q-7 -4 -14.5 -3.5z" />
    <glyph glyph-name="uni1EF4" unicode="&#x1ef4;" horiz-adv-x="1000" 
d="M1053 249q5 -9 2 -19q-38 -143 -111.5 -215t-172.5 -102l-27 -95q-18 -49 -36 -86t-70 -84t-129 -47q-40 0 -70 19.5t-45 54.5q-10 24 -10 56q0 37 16 74.5t46 67.5q27 27 66.5 38.5t111.5 22.5q72 10 106 19l56 202q-110 -156 -242 -156q-40 0 -73 15.5t-55 44.5
q-29 35 -38 87q-50 -14 -92 -14q-62 0 -119.5 30t-97.5 82q-67 88 -67 211q0 62 18 130q23 86 75 151t118 100t129 35q26 0 50 -6q44 -12 85 -55.5t41 -140.5q0 -55 -19 -130l-61 -195q-17 -74 -17 -130q64 29 113.5 79.5t69.5 114.5q2 8 9 13t15 5q13 0 20.5 -10.5
t3.5 -21.5q-24 -79 -86 -139t-141 -93q8 -45 30 -72q32 -41 89 -41q93 0 166.5 88.5t128.5 218.5l4 19q19 83 42.5 140.5t27 63l37.5 57.5q8 8 19 8q10 0 17 -7q8 -8 8 -18t-7 -17q-5 -5 -20.5 -30.5t-36.5 -78t-38 -129.5q-20 -91 -105 -394q77 29 133 92.5t87 179.5
q3 10 12 15.5t19 2.5q10 -2 15 -11zM467 667q0 61 -22.5 99.5t-65.5 50.5q-20 5 -37 5q-52 0 -108 -31t-100.5 -88t-64.5 -131q-17 -63 -17 -119q0 -105 56 -179q34 -43 81 -67.5t97 -24.5q37 0 86 13l-1 22q0 59 19 140l61 196q16 61 16 114zM715 -101q-44 -9 -84 -15
q-62 -9 -96 -18t-53 -28q-25 -24 -37 -52t-12 -55q0 -18 7 -37q9 -21 26.5 -32.5t42.5 -11.5q61 0 102.5 40t66.5 94t18 47q0 3 19 68zM817 -229q-19 19 -19 44q0 26 18.5 44t44.5 18t44 -18t18 -44t-18 -44.5t-44 -18.5q-25 0 -44 19z" />
    <glyph glyph-name="uni1EF5" unicode="&#x1ef5;" horiz-adv-x="530" 
d="M596.5 263.5q4.5 -8.5 2.5 -18.5q-43 -159 -124.5 -237.5t-191.5 -110.5l-21 -72q-10 -37 -11 -38q-5 -24 -31.5 -80.5t-83.5 -108t-143 -51.5q-43 0 -75.5 21t-48.5 59q-12 28 -12 62q0 40 18 81t51 75q33 32 80.5 46t127.5 26q62 9 110 19l43 154q-71 -82 -150 -82
q-53 0 -83 39q-27 38 -27 105q0 62 23 146l49 182q3 9 11.5 14t17.5 3q10 -3 15 -11.5t2 -18.5l-49 -182q-8 -27 -14.5 -63.5t-6.5 -69.5q0 -52 18 -77q15 -19 44 -19q44 0 84.5 36.5t69.5 84.5t43 86l1 2q37 135 55 214q1 8 7.5 13.5t14.5 5.5q12 0 19 -9t5 -21
q-28 -126 -138 -516q89 30 154 100.5t101 204.5q2 10 10.5 15t18.5 2q10 -2 14.5 -10.5zM229 -116q-25 -5 -88 -14q-75 -12 -115.5 -23t-65.5 -36q-28 -29 -41.5 -60.5t-13.5 -60.5q0 -26 9 -45q10 -24 30.5 -37t48.5 -13q69 0 116 45t71.5 97t24.5 62zM319 -216
q-19 19 -19 44q0 26 18.5 44t44.5 18t44 -18t18 -44t-18 -44.5t-44 -18.5q-25 0 -44 19z" />
    <glyph glyph-name="uni1EF6" unicode="&#x1ef6;" horiz-adv-x="1000" 
d="M1053 249q5 -9 2 -19q-38 -143 -111.5 -215t-172.5 -102l-27 -95q-18 -49 -36 -86t-70 -84t-129 -47q-40 0 -70 19.5t-45 54.5q-10 24 -10 56q0 37 16 74.5t46 67.5q27 27 66.5 38.5t111.5 22.5q72 10 106 19l56 202q-110 -156 -242 -156q-40 0 -73 15.5t-55 44.5
q-29 35 -38 87q-50 -14 -92 -14q-62 0 -119.5 30t-97.5 82q-67 88 -67 211q0 62 18 130q23 86 75 151t118 100t129 35q26 0 50 -6q44 -12 85 -55.5t41 -140.5q0 -55 -19 -130l-61 -195q-17 -74 -17 -130q64 29 113.5 79.5t69.5 114.5q2 8 9 13t15 5q13 0 20.5 -10.5
t3.5 -21.5q-24 -79 -86 -139t-141 -93q8 -45 30 -72q32 -41 89 -41q93 0 166.5 88.5t128.5 218.5l4 19q19 83 42.5 140.5t27 63l37.5 57.5q8 8 19 8q10 0 17 -7q8 -8 8 -18t-7 -17q-5 -5 -20.5 -30.5t-36.5 -78t-38 -129.5q-20 -91 -105 -394q77 29 133 92.5t87 179.5
q3 10 12 15.5t19 2.5q10 -2 15 -11zM467 667q0 61 -22.5 99.5t-65.5 50.5q-20 5 -37 5q-52 0 -108 -31t-100.5 -88t-64.5 -131q-17 -63 -17 -119q0 -105 56 -179q34 -43 81 -67.5t97 -24.5q37 0 86 13l-1 22q0 59 19 140l61 196q16 61 16 114zM715 -101q-44 -9 -84 -15
q-62 -9 -96 -18t-53 -28q-25 -24 -37 -52t-12 -55q0 -18 7 -37q9 -21 26.5 -32.5t42.5 -11.5q61 0 102.5 40t66.5 94t18 47q0 3 19 68zM1598 731q-5 0 -6 1q-6 0 -11 5.5t-5 12.5q0 4 1 7q4 10 16.5 24t20 21t9.5 14q2 5 2 8q0 4 -2 6q-3 3 -14 3q-12 0 -20 -5.5t-19 -23.5
q-1 -5 -7.5 -8.5t-13.5 -3.5q-9 0 -15.5 5.5t-6.5 12.5q0 5 1 7q1 4 9.5 17t26.5 25t45 12q15 0 27.5 -4t21.5 -13q12 -12 12 -30q0 -9 -4 -19q-5 -14 -15.5 -24.5l-19 -19t-12.5 -17.5q-2 -6 -8 -9.5t-13 -3.5z" />
    <glyph glyph-name="uni1EF7" unicode="&#x1ef7;" horiz-adv-x="530" 
d="M596.5 263.5q4.5 -8.5 2.5 -18.5q-43 -159 -124.5 -237.5t-191.5 -110.5l-21 -72q-10 -37 -11 -38q-5 -24 -31.5 -80.5t-83.5 -108t-143 -51.5q-43 0 -75.5 21t-48.5 59q-12 28 -12 62q0 40 18 81t51 75q33 32 80.5 46t127.5 26q62 9 110 19l43 154q-71 -82 -150 -82
q-53 0 -83 39q-27 38 -27 105q0 62 23 146l49 182q3 9 11.5 14t17.5 3q10 -3 15 -11.5t2 -18.5l-49 -182q-8 -27 -14.5 -63.5t-6.5 -69.5q0 -52 18 -77q15 -19 44 -19q44 0 84.5 36.5t69.5 84.5t43 86l1 2q37 135 55 214q1 8 7.5 13.5t14.5 5.5q12 0 19 -9t5 -21
q-28 -126 -138 -516q89 30 154 100.5t101 204.5q2 10 10.5 15t18.5 2q10 -2 14.5 -10.5zM229 -116q-25 -5 -88 -14q-75 -12 -115.5 -23t-65.5 -36q-28 -29 -41.5 -60.5t-13.5 -60.5q0 -26 9 -45q10 -24 30.5 -37t48.5 -13q69 0 116 45t71.5 97t24.5 62zM845 545q-5 0 -6 1
q-6 0 -11 5.5t-5 12.5q0 4 1 7q4 10 16.5 24t20 21t9.5 14q2 5 2 8q0 4 -2 6q-3 3 -14 3q-12 0 -20 -5.5t-19 -23.5q-1 -5 -7.5 -8.5t-13.5 -3.5q-9 0 -15.5 5.5t-6.5 12.5q0 5 1 7q1 4 9.5 17t26.5 25t45 12q15 0 27.5 -4t21.5 -13q12 -12 12 -30q0 -9 -4 -19
q-5 -14 -15.5 -24.5l-19 -19t-12.5 -17.5q-2 -6 -8 -9.5t-13 -3.5z" />
    <glyph glyph-name="uni1EF8" unicode="&#x1ef8;" horiz-adv-x="1000" 
d="M1053 249q5 -9 2 -19q-38 -143 -111.5 -215t-172.5 -102l-27 -95q-18 -49 -36 -86t-70 -84t-129 -47q-40 0 -70 19.5t-45 54.5q-10 24 -10 56q0 37 16 74.5t46 67.5q27 27 66.5 38.5t111.5 22.5q72 10 106 19l56 202q-110 -156 -242 -156q-40 0 -73 15.5t-55 44.5
q-29 35 -38 87q-50 -14 -92 -14q-62 0 -119.5 30t-97.5 82q-67 88 -67 211q0 62 18 130q23 86 75 151t118 100t129 35q26 0 50 -6q44 -12 85 -55.5t41 -140.5q0 -55 -19 -130l-61 -195q-17 -74 -17 -130q64 29 113.5 79.5t69.5 114.5q2 8 9 13t15 5q13 0 20.5 -10.5
t3.5 -21.5q-24 -79 -86 -139t-141 -93q8 -45 30 -72q32 -41 89 -41q93 0 166.5 88.5t128.5 218.5l4 19q19 83 42.5 140.5t27 63l37.5 57.5q8 8 19 8q10 0 17 -7q8 -8 8 -18t-7 -17q-5 -5 -20.5 -30.5t-36.5 -78t-38 -129.5q-20 -91 -105 -394q77 29 133 92.5t87 179.5
q3 10 12 15.5t19 2.5q10 -2 15 -11zM467 667q0 61 -22.5 99.5t-65.5 50.5q-20 5 -37 5q-52 0 -108 -31t-100.5 -88t-64.5 -131q-17 -63 -17 -119q0 -105 56 -179q34 -43 81 -67.5t97 -24.5q37 0 86 13l-1 22q0 59 19 140l61 196q16 61 16 114zM715 -101q-44 -9 -84 -15
q-62 -9 -96 -18t-53 -28q-25 -24 -37 -52t-12 -55q0 -18 7 -37q9 -21 26.5 -32.5t42.5 -11.5q61 0 102.5 40t66.5 94t18 47q0 3 19 68zM845 752q-7 0 -9 1q-15 2 -30.5 8.5t-30.5 14.5q-16 9 -29.5 14t-25 5.5t-22 -4.5t-22.5 -20q-7 -7 -17.5 -9t-18.5 6q-19 16 -2 36
q37 46 88 43q21 -2 38.5 -10l34.5 -16q30 -16 43 -17.5t26 14.5q6 8 17 10t19 -6q7 -6 9.5 -16t-4.5 -19q-26 -35 -64 -35z" />
    <glyph glyph-name="uni1EF9" unicode="&#x1ef9;" horiz-adv-x="530" 
d="M596.5 263.5q4.5 -8.5 2.5 -18.5q-43 -159 -124.5 -237.5t-191.5 -110.5l-21 -72q-10 -37 -11 -38q-5 -24 -31.5 -80.5t-83.5 -108t-143 -51.5q-43 0 -75.5 21t-48.5 59q-12 28 -12 62q0 40 18 81t51 75q33 32 80.5 46t127.5 26q62 9 110 19l43 154q-71 -82 -150 -82
q-53 0 -83 39q-27 38 -27 105q0 62 23 146l49 182q3 9 11.5 14t17.5 3q10 -3 15 -11.5t2 -18.5l-49 -182q-8 -27 -14.5 -63.5t-6.5 -69.5q0 -52 18 -77q15 -19 44 -19q44 0 84.5 36.5t69.5 84.5t43 86l1 2q37 135 55 214q1 8 7.5 13.5t14.5 5.5q12 0 19 -9t5 -21
q-28 -126 -138 -516q89 30 154 100.5t101 204.5q2 10 10.5 15t18.5 2q10 -2 14.5 -10.5zM229 -116q-25 -5 -88 -14q-75 -12 -115.5 -23t-65.5 -36q-28 -29 -41.5 -60.5t-13.5 -60.5q0 -26 9 -45q10 -24 30.5 -37t48.5 -13q69 0 116 45t71.5 97t24.5 62zM356 544q-7 0 -9 1
q-15 2 -30.5 8.5t-30.5 14.5q-16 9 -29.5 14t-25 5.5t-22 -4.5t-22.5 -20q-7 -7 -17.5 -9t-18.5 6q-19 16 -2 36q37 46 88 43q21 -2 38.5 -10l34.5 -16q30 -16 43 -17.5t26 14.5q6 8 17 10t19 -6q7 -6 9.5 -16t-4.5 -19q-26 -35 -64 -35z" />
    <glyph glyph-name="abreve" unicode="&#x103;" horiz-adv-x="575" 
d="M642 263.5q5 -8.5 2 -18.5q-5 -24 -27.5 -81.5t-66 -110.5t-103.5 -53q-24 0 -43.5 9.5t-32.5 26.5q-22 28 -25 80q-41 -54 -93 -85t-104 -31q-34 0 -63 14t-49 40q-37 47 -37 122q0 36 11 80q18 68 58.5 123.5t93.5 88t107 32.5q34 0 63 -14t49 -40q14 -19 20 -35l5 17
q2 10 11 15t19 3q10 -3 15 -11.5t2 -18.5l-39 -147q-9 -28 -15 -64.5t-6 -68.5q0 -50 16 -71q11 -16 37 -16q36 0 67.5 37t52 84.5t30.5 86.5q2 10 11 15t19 3q10 -3 15 -11.5zM234.5 77.5q43.5 28.5 77.5 75.5t49 102l2 9q7 28 7 59q0 58 -27 93q-26 35 -73 35
q-42 0 -85.5 -28.5t-77.5 -76t-49 -102.5q-9 -34 -9 -67q0 -57 27 -93q27 -35 73 -35q42 0 85.5 28.5zM343 608q13 10 18.5 20t5.5 11q2 10 9 15t15 5q12 0 19.5 -8.5t4.5 -20.5q-4 -17 -16.5 -34.5t-34.5 -30.5q-23 -12 -53 -12h-1q-30 0 -52 12q-22 13 -35 30.5t-17 34.5
q-2 12 5.5 20.5t18.5 8.5q8 0 15 -5t10 -15q0 -1 5.5 -11t18.5 -20q12 -9 32 -9t32 9z" />
    <glyph glyph-name="Abreve" unicode="&#x102;" horiz-adv-x="1650" 
d="M1650 913q27 -35 27 -105q0 -37 -6.5 -71.5t-11.5 -52.5l-48 -179q18 1 29 -5t11 -16q0 -12 -14.5 -21.5t-39.5 -9.5l-113 -422l-1 -3q-1 -9 -8 -14t-16 -5q-13 0 -21 10.5t-4 21.5v1q8 29 18.5 94.5t10.5 141.5q0 84 -16 148q-11 -3 -31 -7q-98 -22 -164.5 -34
t-124.5 -12l-31 1q-103 -159 -194.5 -270t-206 -183t-247.5 -72q-105 0 -191 33.5t-147 98.5q-53 57 -81.5 132t-28.5 158q0 81 26.5 154.5t75.5 131.5q56 64 132 97t167 33q55 0 105 -25t80.5 -66t30.5 -87q0 -11 -7 -18.5t-18 -7.5t-18.5 7.5t-7.5 18.5q0 32 -23.5 61.5
t-61.5 47.5t-80 18q-110 0 -189.5 -52t-120 -135.5t-40.5 -177.5q0 -73 24.5 -139t71.5 -116q53 -57 129.5 -86.5t171.5 -29.5q118 0 221.5 65.5t189.5 168.5t180 248q-78 15 -123.5 57.5t-45.5 102.5q0 51 32 89t90.5 59t136.5 21q59 0 114 -13q87 122 165 186.5t165 64.5
q49 0 77 -36zM1437 842q-67 -56 -142 -160q83 -32 136 -101q30 -39 51 -95q60 11 75 13l53 199q16 58 16 112q0 49 -17 72q-11 16 -36 16q-69 0 -136 -56zM983 630.5q-62 -28.5 -62 -88.5q0 -47 41.5 -75.5t106.5 -37.5l42 65q60 98 101 158q-36 7 -83 7q-84 0 -146 -28.5z
M1154 467l-27 -42q54 0 119 11.5t159 32.5l26 6q-14 39 -41 75q-49 63 -125 89q-37 -54 -111 -172zM1497 436q11 -47 16 -100l29 109q-24 -3 -45 -9zM1641 1056q13 10 18.5 20t5.5 11q2 10 9 15t15 5q12 0 19.5 -8.5t4.5 -20.5q-4 -17 -16.5 -34.5t-34.5 -30.5
q-23 -12 -53 -12h-1q-30 0 -52 12q-22 13 -35 30.5t-17 34.5q-2 12 5.5 20.5t18.5 8.5q8 0 15 -5t10 -15q0 -1 5.5 -11t18.5 -20q12 -9 32 -9t32 9z" />
    <glyph glyph-name="ograve" unicode="&#xf2;" horiz-adv-x="510" 
d="M222 523q17 0 25 -17q2 -6 2 -9q0 -8 -5 -14.5t-12 -9.5q-57 -23 -104 -80.5t-66 -128.5q-10 -34 -10 -71q0 -60 29 -98q35 -44 78 -44q30 0 61.5 15t46.5 42q-28 23 -47.5 70t-19.5 107q0 50 19 99t51.5 80.5t70.5 31.5q21 0 37.5 -10.5t26.5 -30.5q17 -31 17 -80
q0 -56 -22.5 -126t-54.5 -119q15 -5 34 -5q48 0 84.5 40.5t51.5 112.5q6 23 26 23q21 0 21 -28q0 -9 -1 -14q-17 -88 -71 -135.5t-120 -47.5q-29 0 -56 9q-29 -42 -71.5 -63.5t-83.5 -21.5q-35 0 -66 17.5t-53 46.5q-39 51 -39 129q0 45 11 85q23 82 78 149t123 94q6 2 9 2z
M299 420.5q-21 -23.5 -34 -60.5t-13 -75q0 -42 13.5 -83t30.5 -51q33 46 53.5 108t20.5 116q0 36 -10 56q-7 13 -19 13q-21 0 -42 -23.5zM296.5 539.5q-7.5 0.5 -11.5 5.5l-91 89q-5 7 -4 15t9 14q7 6 16.5 6t14.5 -6l89 -87q2 -2 4 -6q3 -6 1 -13t-8 -12q-2 -1 -5 -2
q-7 -4 -14.5 -3.5z" />
    <glyph glyph-name="oacute" unicode="&#xf3;" horiz-adv-x="510" 
d="M222 523q17 0 25 -17q2 -6 2 -9q0 -8 -5 -14.5t-12 -9.5q-57 -23 -104 -80.5t-66 -128.5q-10 -34 -10 -71q0 -60 29 -98q35 -44 78 -44q30 0 61.5 15t46.5 42q-28 23 -47.5 70t-19.5 107q0 50 19 99t51.5 80.5t70.5 31.5q21 0 37.5 -10.5t26.5 -30.5q17 -31 17 -80
q0 -56 -22.5 -126t-54.5 -119q15 -5 34 -5q48 0 84.5 40.5t51.5 112.5q6 23 26 23q21 0 21 -28q0 -9 -1 -14q-17 -88 -71 -135.5t-120 -47.5q-29 0 -56 9q-29 -42 -71.5 -63.5t-83.5 -21.5q-35 0 -66 17.5t-53 46.5q-39 51 -39 129q0 45 11 85q23 82 78 149t123 94q6 2 9 2z
M299 420.5q-21 -23.5 -34 -60.5t-13 -75q0 -42 13.5 -83t30.5 -51q33 46 53.5 108t20.5 116q0 36 -10 56q-7 13 -19 13q-21 0 -42 -23.5zM250 543q-3 1 -4 2q-7 5 -9 12t1 13q2 4 5 6l88 87q5 6 14.5 6t17.5 -6q7 -6 8.5 -14t-4.5 -15l-90 -89q-5 -5 -12.5 -5.5t-14.5 3.5z
" />
    <glyph glyph-name="ocircumflex" unicode="&#xf4;" horiz-adv-x="510" 
d="M222 523q17 0 25 -17q2 -6 2 -9q0 -8 -5 -14.5t-12 -9.5q-57 -23 -104 -80.5t-66 -128.5q-10 -34 -10 -71q0 -60 29 -98q35 -44 78 -44q30 0 61.5 15t46.5 42q-28 23 -47.5 70t-19.5 107q0 50 19 99t51.5 80.5t70.5 31.5q21 0 37.5 -10.5t26.5 -30.5q17 -31 17 -80
q0 -56 -22.5 -126t-54.5 -119q15 -5 34 -5q48 0 84.5 40.5t51.5 112.5q6 23 26 23q21 0 21 -28q0 -9 -1 -14q-17 -88 -71 -135.5t-120 -47.5q-29 0 -56 9q-29 -42 -71.5 -63.5t-83.5 -21.5q-35 0 -66 17.5t-53 46.5q-39 51 -39 129q0 45 11 85q23 82 78 149t123 94q6 2 9 2z
M299 420.5q-21 -23.5 -34 -60.5t-13 -75q0 -42 13.5 -83t30.5 -51q33 46 53.5 108t20.5 116q0 36 -10 56q-7 13 -19 13q-21 0 -42 -23.5zM161 533q-8 0 -14 6t-6 15q0 8 6 14t14 6q38 0 68.5 27t44.5 73q2 6 7.5 10.5t13.5 4.5l3 -1q9 -1 13.5 -8t3.5 -16q-2 -7 -2 -16
q0 -21 14 -39q13 -16 35.5 -24.5t39.5 -8.5q8 0 14 -6t6 -15q0 -8 -6 -14t-14 -6q-27 0 -57.5 12t-49.5 36q-13 17 -12 13q-12 -20 -46.5 -41.5t-75.5 -21.5z" />
    <glyph glyph-name="otilde" unicode="&#xf5;" horiz-adv-x="510" 
d="M222 523q17 0 25 -17q2 -6 2 -9q0 -8 -5 -14.5t-12 -9.5q-57 -23 -104 -80.5t-66 -128.5q-10 -34 -10 -71q0 -60 29 -98q35 -44 78 -44q30 0 61.5 15t46.5 42q-28 23 -47.5 70t-19.5 107q0 50 19 99t51.5 80.5t70.5 31.5q21 0 37.5 -10.5t26.5 -30.5q17 -31 17 -80
q0 -56 -22.5 -126t-54.5 -119q15 -5 34 -5q48 0 84.5 40.5t51.5 112.5q6 23 26 23q21 0 21 -28q0 -9 -1 -14q-17 -88 -71 -135.5t-120 -47.5q-29 0 -56 9q-29 -42 -71.5 -63.5t-83.5 -21.5q-35 0 -66 17.5t-53 46.5q-39 51 -39 129q0 45 11 85q23 82 78 149t123 94q6 2 9 2z
M299 420.5q-21 -23.5 -34 -60.5t-13 -75q0 -42 13.5 -83t30.5 -51q33 46 53.5 108t20.5 116q0 36 -10 56q-7 13 -19 13q-21 0 -42 -23.5zM355 533q-7 0 -9 1q-15 2 -30.5 8.5t-30.5 14.5q-16 9 -29.5 14t-25 5.5t-22 -4.5t-22.5 -20q-7 -7 -17.5 -9t-18.5 6q-19 16 -2 36
q37 46 88 43q21 -2 38.5 -10l34.5 -16q30 -16 43 -17.5t26 14.5q6 8 17 10t19 -6q7 -6 9.5 -16t-4.5 -19q-26 -35 -64 -35z" />
    <glyph glyph-name="ugrave" unicode="&#xf9;" horiz-adv-x="498" 
d="M552 266.5q7 -9.5 5 -20.5q-13 -44 -32 -92t-62 -100.5t-103 -52.5q-55 0 -85 39q-17 24 -24 64q-61 -103 -139 -103q-55 0 -84 39q-28 37 -28 108q0 44 9 87t15 61l49 185q3 10 11.5 15t18.5 3q10 -3 15 -11.5t2 -18.5l-49 -186q-8 -26 -15 -64t-7 -73q0 -52 18 -77
q15 -20 45 -20q51 0 90.5 67t58.5 137q5 28 11 43l49 185q3 10 11.5 15t18.5 3q10 -3 15 -11.5t2 -18.5l-49 -186q-8 -26 -15 -64t-7 -73q0 -52 18 -77q15 -20 45 -20q36 0 67.5 37t52 85t30.5 87q2 8 8.5 13t14.5 5q12 0 19 -9.5zM293.5 539.5q-7.5 0.5 -11.5 5.5l-91 89
q-5 7 -4 15t9 14q7 6 16.5 6t14.5 -6l89 -87q2 -2 4 -6q3 -6 1 -13t-8 -12q-2 -1 -5 -2q-7 -4 -14.5 -3.5z" />
    <glyph glyph-name="uacute" unicode="&#xfa;" horiz-adv-x="498" 
d="M552 266.5q7 -9.5 5 -20.5q-13 -44 -32 -92t-62 -100.5t-103 -52.5q-55 0 -85 39q-17 24 -24 64q-61 -103 -139 -103q-55 0 -84 39q-28 37 -28 108q0 44 9 87t15 61l49 185q3 10 11.5 15t18.5 3q10 -3 15 -11.5t2 -18.5l-49 -186q-8 -26 -15 -64t-7 -73q0 -52 18 -77
q15 -20 45 -20q51 0 90.5 67t58.5 137q5 28 11 43l49 185q3 10 11.5 15t18.5 3q10 -3 15 -11.5t2 -18.5l-49 -186q-8 -26 -15 -64t-7 -73q0 -52 18 -77q15 -20 45 -20q36 0 67.5 37t52 85t30.5 87q2 8 8.5 13t14.5 5q12 0 19 -9.5zM247 543q-3 1 -4 2q-7 5 -9 12t1 13
q2 4 5 6l88 87q5 6 14.5 6t17.5 -6q7 -6 8.5 -14t-4.5 -15l-90 -89q-5 -5 -12.5 -5.5t-14.5 3.5z" />
    <glyph glyph-name="yacute" unicode="&#xfd;" horiz-adv-x="530" 
d="M596.5 263.5q4.5 -8.5 2.5 -18.5q-43 -159 -124.5 -237.5t-191.5 -110.5l-21 -72q-10 -37 -11 -38q-5 -24 -31.5 -80.5t-83.5 -108t-143 -51.5q-43 0 -75.5 21t-48.5 59q-12 28 -12 62q0 40 18 81t51 75q33 32 80.5 46t127.5 26q62 9 110 19l43 154q-71 -82 -150 -82
q-53 0 -83 39q-27 38 -27 105q0 62 23 146l49 182q3 9 11.5 14t17.5 3q10 -3 15 -11.5t2 -18.5l-49 -182q-8 -27 -14.5 -63.5t-6.5 -69.5q0 -52 18 -77q15 -19 44 -19q44 0 84.5 36.5t69.5 84.5t43 86l1 2q37 135 55 214q1 8 7.5 13.5t14.5 5.5q12 0 19 -9t5 -21
q-28 -126 -138 -516q89 30 154 100.5t101 204.5q2 10 10.5 15t18.5 2q10 -2 14.5 -10.5zM229 -116q-25 -5 -88 -14q-75 -12 -115.5 -23t-65.5 -36q-28 -29 -41.5 -60.5t-13.5 -60.5q0 -26 9 -45q10 -24 30.5 -37t48.5 -13q69 0 116 45t71.5 97t24.5 62zM197 543q-3 1 -4 2
q-7 5 -9 12t1 13q2 4 5 6l88 87q5 6 14.5 6t17.5 -6q7 -6 8.5 -14t-4.5 -15l-90 -89q-5 -5 -12.5 -5.5t-14.5 3.5z" />
    <glyph glyph-name="itilde" unicode="&#x129;" horiz-adv-x="250" 
d="M120 488q5 -9 2 -19l-52 -200q-9 -28 -15 -64t-6 -68q0 -51 16 -72q11 -16 37 -16q37 0 68 37t52 85.5t30 85.5q2 10 11 15t19 3q10 -3 15 -11.5t3 -18.5q-13 -44 -32 -92t-62.5 -100.5t-103.5 -52.5q-24 0 -43.5 9.5t-32.5 26.5q-26 34 -26 102q0 60 23 144l52 200
q3 10 11.5 15t18.5 2q10 -2 15 -11zM196 533q-7 0 -9 1q-15 2 -30.5 8.5t-30.5 14.5q-16 9 -29.5 14t-25 5.5t-22 -4.5t-22.5 -20q-7 -7 -17.5 -9t-18.5 6q-19 16 -2 36q37 46 88 43q21 -2 38.5 -10l34.5 -16q30 -16 43 -17.5t26 14.5q6 8 17 10t19 -6q7 -6 9.5 -16
t-4.5 -19q-26 -35 -64 -35z" />
    <glyph glyph-name="Agrave" unicode="&#xc0;" horiz-adv-x="1650" 
d="M1650 913q27 -35 27 -105q0 -37 -6.5 -71.5t-11.5 -52.5l-48 -179q18 1 29 -5t11 -16q0 -12 -14.5 -21.5t-39.5 -9.5l-113 -422l-1 -3q-1 -9 -8 -14t-16 -5q-13 0 -21 10.5t-4 21.5v1q8 29 18.5 94.5t10.5 141.5q0 84 -16 148q-11 -3 -31 -7q-98 -22 -164.5 -34
t-124.5 -12l-31 1q-103 -159 -194.5 -270t-206 -183t-247.5 -72q-105 0 -191 33.5t-147 98.5q-53 57 -81.5 132t-28.5 158q0 81 26.5 154.5t75.5 131.5q56 64 132 97t167 33q55 0 105 -25t80.5 -66t30.5 -87q0 -11 -7 -18.5t-18 -7.5t-18.5 7.5t-7.5 18.5q0 32 -23.5 61.5
t-61.5 47.5t-80 18q-110 0 -189.5 -52t-120 -135.5t-40.5 -177.5q0 -73 24.5 -139t71.5 -116q53 -57 129.5 -86.5t171.5 -29.5q118 0 221.5 65.5t189.5 168.5t180 248q-78 15 -123.5 57.5t-45.5 102.5q0 51 32 89t90.5 59t136.5 21q59 0 114 -13q87 122 165 186.5t165 64.5
q49 0 77 -36zM1437 842q-67 -56 -142 -160q83 -32 136 -101q30 -39 51 -95q60 11 75 13l53 199q16 58 16 112q0 49 -17 72q-11 16 -36 16q-69 0 -136 -56zM983 630.5q-62 -28.5 -62 -88.5q0 -47 41.5 -75.5t106.5 -37.5l42 65q60 98 101 158q-36 7 -83 7q-84 0 -146 -28.5z
M1154 467l-27 -42q54 0 119 11.5t159 32.5l26 6q-14 39 -41 75q-49 63 -125 89q-37 -54 -111 -172zM1497 436q11 -47 16 -100l29 109q-24 -3 -45 -9zM1607.5 1000.5q-7.5 0.5 -11.5 5.5l-91 89q-5 7 -4 15t9 14q7 6 16.5 6t14.5 -6l89 -87q2 -2 4 -6q3 -6 1 -13t-8 -12
q-2 -1 -5 -2q-7 -4 -14.5 -3.5z" />
    <glyph glyph-name="Aacute" unicode="&#xc1;" horiz-adv-x="1650" 
d="M1650 913q27 -35 27 -105q0 -37 -6.5 -71.5t-11.5 -52.5l-48 -179q18 1 29 -5t11 -16q0 -12 -14.5 -21.5t-39.5 -9.5l-113 -422l-1 -3q-1 -9 -8 -14t-16 -5q-13 0 -21 10.5t-4 21.5v1q8 29 18.5 94.5t10.5 141.5q0 84 -16 148q-11 -3 -31 -7q-98 -22 -164.5 -34
t-124.5 -12l-31 1q-103 -159 -194.5 -270t-206 -183t-247.5 -72q-105 0 -191 33.5t-147 98.5q-53 57 -81.5 132t-28.5 158q0 81 26.5 154.5t75.5 131.5q56 64 132 97t167 33q55 0 105 -25t80.5 -66t30.5 -87q0 -11 -7 -18.5t-18 -7.5t-18.5 7.5t-7.5 18.5q0 32 -23.5 61.5
t-61.5 47.5t-80 18q-110 0 -189.5 -52t-120 -135.5t-40.5 -177.5q0 -73 24.5 -139t71.5 -116q53 -57 129.5 -86.5t171.5 -29.5q118 0 221.5 65.5t189.5 168.5t180 248q-78 15 -123.5 57.5t-45.5 102.5q0 51 32 89t90.5 59t136.5 21q59 0 114 -13q87 122 165 186.5t165 64.5
q49 0 77 -36zM1437 842q-67 -56 -142 -160q83 -32 136 -101q30 -39 51 -95q60 11 75 13l53 199q16 58 16 112q0 49 -17 72q-11 16 -36 16q-69 0 -136 -56zM983 630.5q-62 -28.5 -62 -88.5q0 -47 41.5 -75.5t106.5 -37.5l42 65q60 98 101 158q-36 7 -83 7q-84 0 -146 -28.5z
M1154 467l-27 -42q54 0 119 11.5t159 32.5l26 6q-14 39 -41 75q-49 63 -125 89q-37 -54 -111 -172zM1497 436q11 -47 16 -100l29 109q-24 -3 -45 -9zM1565 1004q-3 1 -4 2q-7 5 -9 12t1 13q2 4 5 6l88 87q5 6 14.5 6t17.5 -6q7 -6 8.5 -14t-4.5 -15l-90 -89
q-5 -5 -12.5 -5.5t-14.5 3.5z" />
    <glyph glyph-name="Acircumflex" unicode="&#xc2;" horiz-adv-x="1650" 
d="M1650 913q27 -35 27 -105q0 -37 -6.5 -71.5t-11.5 -52.5l-48 -179q18 1 29 -5t11 -16q0 -12 -14.5 -21.5t-39.5 -9.5l-113 -422l-1 -3q-1 -9 -8 -14t-16 -5q-13 0 -21 10.5t-4 21.5v1q8 29 18.5 94.5t10.5 141.5q0 84 -16 148q-11 -3 -31 -7q-98 -22 -164.5 -34
t-124.5 -12l-31 1q-103 -159 -194.5 -270t-206 -183t-247.5 -72q-105 0 -191 33.5t-147 98.5q-53 57 -81.5 132t-28.5 158q0 81 26.5 154.5t75.5 131.5q56 64 132 97t167 33q55 0 105 -25t80.5 -66t30.5 -87q0 -11 -7 -18.5t-18 -7.5t-18.5 7.5t-7.5 18.5q0 32 -23.5 61.5
t-61.5 47.5t-80 18q-110 0 -189.5 -52t-120 -135.5t-40.5 -177.5q0 -73 24.5 -139t71.5 -116q53 -57 129.5 -86.5t171.5 -29.5q118 0 221.5 65.5t189.5 168.5t180 248q-78 15 -123.5 57.5t-45.5 102.5q0 51 32 89t90.5 59t136.5 21q59 0 114 -13q87 122 165 186.5t165 64.5
q49 0 77 -36zM1437 842q-67 -56 -142 -160q83 -32 136 -101q30 -39 51 -95q60 11 75 13l53 199q16 58 16 112q0 49 -17 72q-11 16 -36 16q-69 0 -136 -56zM983 630.5q-62 -28.5 -62 -88.5q0 -47 41.5 -75.5t106.5 -37.5l42 65q60 98 101 158q-36 7 -83 7q-84 0 -146 -28.5z
M1154 467l-27 -42q54 0 119 11.5t159 32.5l26 6q-14 39 -41 75q-49 63 -125 89q-37 -54 -111 -172zM1497 436q11 -47 16 -100l29 109q-24 -3 -45 -9zM1455 975q-8 0 -14 6t-6 15q0 8 6 14t14 6q38 0 68.5 27t44.5 73q2 6 7.5 10.5t13.5 4.5l3 -1q9 -1 13.5 -8t3.5 -16
q-2 -7 -2 -16q0 -21 14 -39q13 -16 35.5 -24.5t39.5 -8.5q8 0 14 -6t6 -15q0 -8 -6 -14t-14 -6q-27 0 -57.5 12t-49.5 36q-13 17 -12 13q-12 -20 -46.5 -41.5t-75.5 -21.5z" />
    <glyph glyph-name="Atilde" unicode="&#xc3;" horiz-adv-x="1650" 
d="M1650 913q27 -35 27 -105q0 -37 -6.5 -71.5t-11.5 -52.5l-48 -179q18 1 29 -5t11 -16q0 -12 -14.5 -21.5t-39.5 -9.5l-113 -422l-1 -3q-1 -9 -8 -14t-16 -5q-13 0 -21 10.5t-4 21.5v1q8 29 18.5 94.5t10.5 141.5q0 84 -16 148q-11 -3 -31 -7q-98 -22 -164.5 -34
t-124.5 -12l-31 1q-103 -159 -194.5 -270t-206 -183t-247.5 -72q-105 0 -191 33.5t-147 98.5q-53 57 -81.5 132t-28.5 158q0 81 26.5 154.5t75.5 131.5q56 64 132 97t167 33q55 0 105 -25t80.5 -66t30.5 -87q0 -11 -7 -18.5t-18 -7.5t-18.5 7.5t-7.5 18.5q0 32 -23.5 61.5
t-61.5 47.5t-80 18q-110 0 -189.5 -52t-120 -135.5t-40.5 -177.5q0 -73 24.5 -139t71.5 -116q53 -57 129.5 -86.5t171.5 -29.5q118 0 221.5 65.5t189.5 168.5t180 248q-78 15 -123.5 57.5t-45.5 102.5q0 51 32 89t90.5 59t136.5 21q59 0 114 -13q87 122 165 186.5t165 64.5
q49 0 77 -36zM1437 842q-67 -56 -142 -160q83 -32 136 -101q30 -39 51 -95q60 11 75 13l53 199q16 58 16 112q0 49 -17 72q-11 16 -36 16q-69 0 -136 -56zM983 630.5q-62 -28.5 -62 -88.5q0 -47 41.5 -75.5t106.5 -37.5l42 65q60 98 101 158q-36 7 -83 7q-84 0 -146 -28.5z
M1154 467l-27 -42q54 0 119 11.5t159 32.5l26 6q-14 39 -41 75q-49 63 -125 89q-37 -54 -111 -172zM1497 436q11 -47 16 -100l29 109q-24 -3 -45 -9zM1650 984q-7 0 -9 1q-15 2 -30.5 8.5t-30.5 14.5q-16 9 -29.5 14t-25 5.5t-22 -4.5t-22.5 -20q-7 -7 -17.5 -9t-18.5 6
q-19 16 -2 36q37 46 88 43q21 -2 38.5 -10l34.5 -16q30 -16 43 -17.5t26 14.5q6 8 17 10t19 -6q7 -6 9.5 -16t-4.5 -19q-26 -35 -64 -35z" />
    <glyph glyph-name="agrave" unicode="&#xe0;" horiz-adv-x="575" 
d="M642 263.5q5 -8.5 2 -18.5q-5 -24 -27.5 -81.5t-66 -110.5t-103.5 -53q-24 0 -43.5 9.5t-32.5 26.5q-22 28 -25 80q-41 -54 -93 -85t-104 -31q-34 0 -63 14t-49 40q-37 47 -37 122q0 36 11 80q18 68 58.5 123.5t93.5 88t107 32.5q34 0 63 -14t49 -40q14 -19 20 -35l5 17
q2 10 11 15t19 3q10 -3 15 -11.5t2 -18.5l-39 -147q-9 -28 -15 -64.5t-6 -68.5q0 -50 16 -71q11 -16 37 -16q36 0 67.5 37t52 84.5t30.5 86.5q2 10 11 15t19 3q10 -3 15 -11.5zM234.5 77.5q43.5 28.5 77.5 75.5t49 102l2 9q7 28 7 59q0 58 -27 93q-26 35 -73 35
q-42 0 -85.5 -28.5t-77.5 -76t-49 -102.5q-9 -34 -9 -67q0 -57 27 -93q27 -35 73 -35q42 0 85.5 28.5zM337.5 539.5q-7.5 0.5 -11.5 5.5l-91 89q-5 7 -4 15t9 14q7 6 16.5 6t14.5 -6l89 -87q2 -2 4 -6q3 -6 1 -13t-8 -12q-2 -1 -5 -2q-7 -4 -14.5 -3.5z" />
    <glyph glyph-name="aacute" unicode="&#xe1;" horiz-adv-x="575" 
d="M642 263.5q5 -8.5 2 -18.5q-5 -24 -27.5 -81.5t-66 -110.5t-103.5 -53q-24 0 -43.5 9.5t-32.5 26.5q-22 28 -25 80q-41 -54 -93 -85t-104 -31q-34 0 -63 14t-49 40q-37 47 -37 122q0 36 11 80q18 68 58.5 123.5t93.5 88t107 32.5q34 0 63 -14t49 -40q14 -19 20 -35l5 17
q2 10 11 15t19 3q10 -3 15 -11.5t2 -18.5l-39 -147q-9 -28 -15 -64.5t-6 -68.5q0 -50 16 -71q11 -16 37 -16q36 0 67.5 37t52 84.5t30.5 86.5q2 10 11 15t19 3q10 -3 15 -11.5zM234.5 77.5q43.5 28.5 77.5 75.5t49 102l2 9q7 28 7 59q0 58 -27 93q-26 35 -73 35
q-42 0 -85.5 -28.5t-77.5 -76t-49 -102.5q-9 -34 -9 -67q0 -57 27 -93q27 -35 73 -35q42 0 85.5 28.5zM291 543q-3 1 -4 2q-7 5 -9 12t1 13q2 4 5 6l88 87q5 6 14.5 6t17.5 -6q7 -6 8.5 -14t-4.5 -15l-90 -89q-5 -5 -12.5 -5.5t-14.5 3.5z" />
    <glyph glyph-name="acircumflex" unicode="&#xe2;" horiz-adv-x="575" 
d="M642 263.5q5 -8.5 2 -18.5q-5 -24 -27.5 -81.5t-66 -110.5t-103.5 -53q-24 0 -43.5 9.5t-32.5 26.5q-22 28 -25 80q-41 -54 -93 -85t-104 -31q-34 0 -63 14t-49 40q-37 47 -37 122q0 36 11 80q18 68 58.5 123.5t93.5 88t107 32.5q34 0 63 -14t49 -40q14 -19 20 -35l5 17
q2 10 11 15t19 3q10 -3 15 -11.5t2 -18.5l-39 -147q-9 -28 -15 -64.5t-6 -68.5q0 -50 16 -71q11 -16 37 -16q36 0 67.5 37t52 84.5t30.5 86.5q2 10 11 15t19 3q10 -3 15 -11.5zM234.5 77.5q43.5 28.5 77.5 75.5t49 102l2 9q7 28 7 59q0 58 -27 93q-26 35 -73 35
q-42 0 -85.5 -28.5t-77.5 -76t-49 -102.5q-9 -34 -9 -67q0 -57 27 -93q27 -35 73 -35q42 0 85.5 28.5zM194 533q-8 0 -14 6t-6 15q0 8 6 14t14 6q38 0 68.5 27t44.5 73q2 6 7.5 10.5t13.5 4.5l3 -1q9 -1 13.5 -8t3.5 -16q-2 -7 -2 -16q0 -21 14 -39q13 -16 35.5 -24.5
t39.5 -8.5q8 0 14 -6t6 -15q0 -8 -6 -14t-14 -6q-27 0 -57.5 12t-49.5 36q-13 17 -12 13q-12 -20 -46.5 -41.5t-75.5 -21.5z" />
    <glyph glyph-name="atilde" unicode="&#xe3;" horiz-adv-x="575" 
d="M642 263.5q5 -8.5 2 -18.5q-5 -24 -27.5 -81.5t-66 -110.5t-103.5 -53q-24 0 -43.5 9.5t-32.5 26.5q-22 28 -25 80q-41 -54 -93 -85t-104 -31q-34 0 -63 14t-49 40q-37 47 -37 122q0 36 11 80q18 68 58.5 123.5t93.5 88t107 32.5q34 0 63 -14t49 -40q14 -19 20 -35l5 17
q2 10 11 15t19 3q10 -3 15 -11.5t2 -18.5l-39 -147q-9 -28 -15 -64.5t-6 -68.5q0 -50 16 -71q11 -16 37 -16q36 0 67.5 37t52 84.5t30.5 86.5q2 10 11 15t19 3q10 -3 15 -11.5zM234.5 77.5q43.5 28.5 77.5 75.5t49 102l2 9q7 28 7 59q0 58 -27 93q-26 35 -73 35
q-42 0 -85.5 -28.5t-77.5 -76t-49 -102.5q-9 -34 -9 -67q0 -57 27 -93q27 -35 73 -35q42 0 85.5 28.5zM358 533q-7 0 -9 1q-15 2 -30.5 8.5t-30.5 14.5q-16 9 -29.5 14t-25 5.5t-22 -4.5t-22.5 -20q-7 -7 -17.5 -9t-18.5 6q-19 16 -2 36q37 46 88 43q21 -2 38.5 -10
l34.5 -16q30 -16 43 -17.5t26 14.5q6 8 17 10t19 -6q7 -6 9.5 -16t-4.5 -19q-26 -35 -64 -35z" />
    <glyph glyph-name="Ograve" unicode="&#xd2;" horiz-adv-x="800" 
d="M646.5 936.5q46.5 -18.5 82.5 -56.5q31 -33 47.5 -76t16.5 -88q0 -14 -1 -21q-1 -10 -9 -16t-18 -5q-10 2 -16.5 9.5t-5.5 17.5q1 5 1 16q0 34 -13.5 67.5t-37.5 61.5q-28 29 -64.5 44t-74.5 12q-107 -7 -203 -77.5t-166.5 -190.5t-101.5 -270q-13 -66 -13 -134
q0 -84 21 -153.5t61 -116.5q34 -37 77 -56.5t92 -19.5q99 0 173.5 64.5t121.5 145.5q48 81 74.5 174t26.5 176q0 79 -34.5 147.5t-134.5 62.5q-15 -1 -22.5 5.5t-7.5 16.5t7 18t20 9q102 6 163 -64q28 -35 43 -84.5t15 -110.5q0 -90 -28.5 -189.5t-79.5 -185.5
q-68 -113 -155 -174t-182 -61q-61 0 -113 23.5t-92 69.5q-46 55 -70.5 133.5t-24.5 170.5q0 74 14 143q33 160 110 288.5t183 205t223 83.5q49 4 95.5 -14.5zM615.5 1001.5q-7.5 0.5 -11.5 5.5l-91 89q-5 7 -4 15t9 14q7 6 16.5 6t14.5 -6l89 -87q2 -2 4 -6q3 -6 1 -13
t-8 -12q-2 -1 -5 -2q-7 -4 -14.5 -3.5z" />
    </font>
</defs>
</svg>
